<svg width="61" height="61" viewBox="0 0 61 61" fill="none" xmlns="http://www.w3.org/2000/svg">
<g clip-path="url(#clip0_208_1481)">
<path d="M61 41.2227H39.3164V37.6484H35.7422V44.7969H32.168V39.4355C32.168 37.4401 31.0713 35.6969 29.4498 34.7739L37.6431 27.0611L42.543 32.2661L45.1455 29.8163L42.6956 27.2137L58.3105 12.5144L50.961 4.70689L35.3459 19.4062L32.896 16.8037L30.2935 19.2536L35.1933 24.4586L24.9785 34.0742H8.93555V12.6289C8.93555 8.68726 12.1423 5.48047 16.084 5.48047C20.0256 5.48047 23.2324 8.68726 23.2324 12.6289V23.3516H26.8066V12.6289C26.8066 6.71643 21.9965 1.90625 16.084 1.90625C10.1715 1.90625 5.36133 6.71643 5.36133 12.6289V34.0742C2.40509 34.0742 0 36.4793 0 39.4355V53.7324C0 56.6887 2.40509 59.0938 5.36133 59.0938H26.8066C29.7629 59.0938 32.168 56.6887 32.168 53.7324V48.3711H35.7422V55.5195H39.3164V51.9453H61V41.2227ZM50.8082 9.75917L53.2581 12.3617L40.2457 24.6112L37.7958 22.0087L50.8082 9.75917ZM26.8066 37.6484C27.7921 37.6484 28.5938 38.4501 28.5938 39.4355V44.7969H21.1379C20.9505 44.2687 20.6829 43.7785 20.3493 43.3407L26.3962 37.6484H26.8066ZM17.8711 46.584C17.8711 47.5694 17.0694 48.3711 16.084 48.3711C15.0986 48.3711 14.2969 47.5694 14.2969 46.584C14.2969 45.5986 15.0986 44.7969 16.084 44.7969C17.0694 44.7969 17.8711 45.5986 17.8711 46.584ZM28.5938 53.7324C28.5938 54.7178 27.7921 55.5195 26.8066 55.5195H5.36133C4.37592 55.5195 3.57422 54.7178 3.57422 53.7324V39.4355C3.57422 38.4501 4.37592 37.6484 5.36133 37.6484H21.1818L17.2481 41.3514C16.8731 41.268 16.4838 41.2227 16.084 41.2227C13.1277 41.2227 10.7227 43.6277 10.7227 46.584C10.7227 49.5402 13.1277 51.9453 16.084 51.9453C18.4138 51.9453 20.4002 50.451 21.1379 48.3711H28.5938V53.7324ZM57.4258 48.3711H39.3164V44.7969H57.4258V48.3711Z" fill="#BF3232"/>
</g>
<defs>
<clipPath id="clip0_208_1481">
<rect width="61" height="61" fill="white"/>
</clipPath>
</defs>
</svg>
