<svg width="61" height="61" viewBox="0 0 61 61" fill="none" xmlns="http://www.w3.org/2000/svg">
<path d="M7.14844 28.7129H10.7227V32.2871H7.14844V28.7129Z" fill="#BF3232"/>
<path d="M57.4258 0V14.416H50.0391V21.5645H47.258C44.2901 17.1424 39.366 14.416 33.9551 14.416C25.8383 14.416 21.6568 20.3013 21.4453 20.4628V28.7129H17.6913C16.8611 24.6392 13.2508 21.5645 8.93555 21.5645C4.00849 21.5645 0 25.5729 0 30.5C0 35.4271 4.00849 39.4355 8.93555 39.4355C13.2508 39.4355 16.861 36.3608 17.6913 32.2871H21.4453V40.5371C21.6973 40.7295 25.8045 46.584 33.9551 46.584C39.3658 46.584 44.2901 43.8576 47.2577 39.4355H50.0391V46.584H57.4258V61H61V0H57.4258ZM8.93555 35.8613C5.97931 35.8613 3.57422 33.4562 3.57422 30.5C3.57422 27.5438 5.97931 25.1387 8.93555 25.1387C11.8918 25.1387 14.2969 27.5438 14.2969 30.5C14.2969 33.4562 11.8918 35.8613 8.93555 35.8613ZM45.2411 35.8613L44.7243 36.7495C42.443 40.6695 38.4171 43.0098 33.9551 43.0098C30.6087 43.0098 27.3873 41.618 25.0195 39.1702V32.2871H28.5938V35.8613H32.168V32.2871H35.7422V35.8613H39.3164V28.7129H25.0195V21.8298C27.3873 19.382 30.6087 17.9902 33.9551 17.9902C38.4171 17.9902 42.4431 20.3305 44.7247 24.2505L45.2415 25.1387H50.0391V35.8613H45.2411ZM53.6133 43.0098V17.9902H57.4258V43.0098H53.6133Z" fill="#BF3232"/>
</svg>
