<svg width="61" height="61" viewBox="0 0 61 61" fill="none" xmlns="http://www.w3.org/2000/svg">
<path d="M17.8711 39.4355H21.4453V35.8613H25.0195V39.4355H35.7422V35.8613H39.3164V39.4355H49.3565L54.0006 30.1471L45.418 21.5645H32.168V25.1387H28.5937V21.5645H17.8711V25.1387H14.2969V21.5645H0V43.0098H17.8711V39.4355ZM14.2969 39.4355H3.57422V35.8613H10.7227V32.2871H3.57422V25.1387H10.7227V28.7129H21.4453V25.1387H25.0195V28.7129H35.7422V25.1387H43.9375L49.6517 30.8529L47.1474 35.8613H42.8906V32.2871H32.168V35.8613H28.5937V32.2871H17.8711V35.8613H14.2969V39.4355Z" fill="#BF3232"/>
<path d="M0 7.26758V10.8418H14.2969V14.416H17.8711V10.8418H21.4453V17.9902H25.0195V10.8418H28.5938V14.416H32.168V10.8418H35.7422V14.416H39.3164V10.8418H42.8906V17.9902H46.4648V10.8418H50.0391V14.416H53.6133V10.8418H57.4258V50.1582H53.6133V46.584H50.0391V50.1582H46.4648V43.0098H42.8906V50.1582H39.3164V46.584H35.7422V50.1582H32.168V43.0098H28.5938V50.1582H25.0195V43.0098H21.4453V50.1582H17.8711V46.584H14.2969V50.1582H0V53.7324H61V7.26758H0Z" fill="#BF3232"/>
</svg>
