<svg width="25" height="25" viewBox="0 0 25 25" fill="none" xmlns="http://www.w3.org/2000/svg">
<path fill-rule="evenodd" clip-rule="evenodd" d="M20.4713 19.3679L17.1351 17.4418C16.4868 17.0676 15.6502 17.2905 15.2762 17.9395L15.1445 18.1678C14.8112 18.7461 14.2983 19.1146 13.6446 19.2485C12.9935 19.3819 12.3724 19.2423 11.8408 18.8435C10.7496 18.0248 9.71869 17.1209 8.75424 16.1564C7.78998 15.1922 6.88608 14.1615 6.06767 13.0704C5.66879 12.5386 5.5287 11.9175 5.6621 11.2662C5.79599 10.6125 6.16532 10.1004 6.74321 9.76689L6.97138 9.63525C7.28783 9.45264 7.50937 9.1605 7.604 8.80791C7.69819 8.45688 7.65141 8.09131 7.46962 7.77646L5.54335 4.44019C5.20131 3.84775 4.4955 3.61265 3.86049 3.85635L3.81904 3.87227C3.16454 4.12334 1.36069 4.78223 0.875921 5.26699C-0.557624 6.70059 0.0557546 9.29404 0.695305 10.9444C1.81537 13.8347 3.94003 16.6166 6.11738 18.7937C8.29443 20.9705 11.0762 23.0958 13.9663 24.2158C14.969 24.6044 16.0974 24.9111 17.1798 24.9111C18.0858 24.9111 18.9875 24.6918 19.6441 24.0352C20.1062 23.5731 20.7916 21.7127 21.0428 21.081L21.059 21.0403C21.3097 20.4097 21.0573 19.7061 20.4713 19.3679ZM19.4437 6.28027C19.7591 6.39331 19.9695 6.69258 19.9695 7.02749V10.8264H20.1174C20.5554 10.8264 20.9111 11.1821 20.9111 11.6201C20.9111 12.0586 20.5559 12.4139 20.1174 12.4139H19.9695V13.2926C19.9695 13.7311 19.6138 14.0861 19.1757 14.0861C18.7374 14.0861 18.3822 13.7311 18.3822 13.2926V12.4139H15.396C15.089 12.4139 14.8094 12.2367 14.6783 11.9594C14.5473 11.6816 14.588 11.3533 14.7829 11.1163L18.5626 6.5229C18.7753 6.2644 19.1282 6.16728 19.4437 6.28027ZM18.3822 10.8264H17.0774L18.3822 9.24101V10.8264ZM13.0026 9.25923C13.1484 8.725 13.0627 8.32715 12.7466 8.077C12.3789 7.78638 11.7668 7.73486 11.3526 7.96045C11.0544 8.12285 10.9283 8.39663 10.9664 8.79795C11.0088 9.23437 10.6892 9.62236 10.2527 9.66401C9.81606 9.70635 9.4288 9.38623 9.38666 8.95029C9.28627 7.90732 9.72597 7.03818 10.593 6.56597C11.5704 6.03433 12.8612 6.14336 13.7317 6.83252C14.5568 7.48516 14.8494 8.52251 14.5339 9.67734C14.3191 10.4643 13.5759 11.0437 12.7898 11.6578C12.4543 11.9194 12.0976 12.1977 11.7743 12.4988H14.0807C14.519 12.4988 14.8742 12.8545 14.8742 13.2926C14.8742 13.7311 14.519 14.0861 14.0807 14.0861H10.1584C9.8851 14.0861 9.63075 13.9457 9.48569 13.714C9.34037 13.4826 9.32514 13.1922 9.44428 12.9462C9.98437 11.8335 10.9983 11.0421 11.8129 10.4063C12.309 10.0188 12.9265 9.53701 13.0026 9.25923ZM25 10.4262C25 13.1873 23.9245 15.7829 21.9722 17.7355C21.817 17.8902 21.6141 17.9681 21.4108 17.9681C21.2079 17.9681 21.0043 17.8902 20.8497 17.7355C20.5396 17.4254 20.5396 16.9228 20.8497 16.6127C22.502 14.9604 23.4125 12.763 23.4125 10.4262C23.4125 5.60117 19.4874 1.67612 14.6624 1.67612C12.3253 1.67612 10.1282 2.58643 8.47568 4.23877C8.16562 4.54883 7.66318 4.54883 7.35312 4.23877C7.04306 3.92871 7.04306 3.42627 7.35312 3.11621C9.30571 1.16411 11.9013 0.088623 14.6624 0.088623C20.3624 0.0886719 25 4.72603 25 10.4262Z" fill="white"/>
</svg>
