<svg width="12" height="12" viewBox="0 0 12 12" fill="none" xmlns="http://www.w3.org/2000/svg">
<path fill-rule="evenodd" clip-rule="evenodd" d="M7.00844 0.460947C6.77274 0.480589 6.55163 0.583141 6.38438 0.750386L0.706773 6.42799C0.316248 6.81852 0.316249 7.45168 0.706773 7.84221L4.16463 11.3001C4.55515 11.6906 5.18832 11.6906 5.57884 11.3001L11.2565 5.62246C11.4237 5.45521 11.5262 5.2341 11.5459 4.99839L11.8602 1.22619C11.9116 0.609925 11.3969 0.0952409 10.7806 0.146596L7.00844 0.460947ZM8.19322 3.81327C8.56014 4.1802 9.15504 4.1802 9.52196 3.81327C9.88889 3.44635 9.88889 2.85145 9.52196 2.48453C9.15504 2.1176 8.56014 2.1176 8.19322 2.48453C7.82629 2.85145 7.82629 3.44635 8.19322 3.81327Z" fill="#BF3232"/>
</svg>
