<svg width="178" height="54" viewBox="0 0 178 54" fill="none" xmlns="http://www.w3.org/2000/svg">
<path fill-rule="evenodd" clip-rule="evenodd" d="M16.9902 1.8878C16.9902 0.844811 17.8351 0 18.878 0C19.921 0 20.7658 0.844811 20.7658 1.8878C20.7658 2.9308 19.921 3.77561 18.878 3.77561C17.8351 3.77561 16.9902 2.9308 16.9902 1.8878ZM18.878 3.77561L23.6542 9.491C21.9647 9.89216 20.6999 11.4024 20.6999 13.2194C20.6999 15.3385 22.4178 17.0564 24.5369 17.0564C24.9616 17.0564 25.3628 16.9808 25.7403 16.8534C25.0371 16.575 24.5369 15.9001 24.5369 15.1025C24.5369 14.0595 25.3817 13.2147 26.4247 13.2147C27.4677 13.2147 28.3125 14.0595 28.3125 15.1025C28.3125 15.9378 27.7555 16.627 27.0004 16.8723C27.6611 18.0286 28.8646 18.8309 30.2899 18.8309C32.4089 18.8309 34.1269 17.113 34.1269 14.9939C34.1269 13.5639 33.3386 12.3321 32.1777 11.6714L37.7561 9.43901V26.4293C37.7561 52.6829 18.878 54 18.878 54C18.878 54 0 52.6829 0 26.4293V9.43901L5.57373 11.6666C4.41744 12.3273 3.62453 13.5591 3.62453 14.9891C3.62453 17.1082 5.34245 18.8261 7.46153 18.8261C8.88679 18.8261 10.0903 18.0238 10.751 16.8675C9.99587 16.6222 9.43893 15.9378 9.43893 15.0977C9.43893 14.0547 10.2837 13.2099 11.3267 13.2099C12.3697 13.2099 13.2145 14.0547 13.2145 15.0977C13.2145 15.9 12.7143 16.5749 12.0111 16.8486C12.3886 16.9761 12.7945 17.0516 13.2145 17.0516C15.3336 17.0516 17.0515 15.3337 17.0515 13.2146C17.0515 11.3976 15.7915 9.88736 14.0971 9.4862L18.878 3.77561ZM20.2196 33.4637C21.5009 32.8727 22.3902 31.5768 22.3902 30.0732C22.3902 28.0122 20.7195 26.3415 18.6585 26.3415C16.5976 26.3415 14.9268 28.0122 14.9268 30.0732C14.9268 31.5768 15.8161 32.8727 17.0975 33.4637L14.9268 42.1463H22.3902L20.2196 33.4637Z" fill="white"/>
<path d="M54.848 28V12.352H64.712V15.328H58.376V18.952H63.8V21.928H58.376V28H54.848ZM70.1684 20.08L69.7844 21.52H73.1204L72.7604 20.08C72.5524 19.296 72.3364 18.464 72.1124 17.584C71.9044 16.704 71.6964 15.856 71.4884 15.04H71.3924C71.2004 15.872 71.0004 16.728 70.7924 17.608C70.6004 18.472 70.3924 19.296 70.1684 20.08ZM64.5044 28L69.4004 12.352H73.6484L78.5444 28H74.8004L73.8404 24.28H69.0644L68.1044 28H64.5044ZM85.0303 28.288C84.0063 28.288 82.9823 28.096 81.9583 27.712C80.9503 27.328 80.0463 26.768 79.2463 26.032L81.2623 23.608C81.8223 24.088 82.4463 24.48 83.1343 24.784C83.8223 25.088 84.4863 25.24 85.1263 25.24C85.8623 25.24 86.4063 25.104 86.7583 24.832C87.1263 24.56 87.3103 24.192 87.3103 23.728C87.3103 23.232 87.1023 22.872 86.6863 22.648C86.2863 22.408 85.7423 22.144 85.0543 21.856L83.0143 20.992C82.4863 20.768 81.9823 20.472 81.5023 20.104C81.0223 19.72 80.6303 19.248 80.3263 18.688C80.0223 18.128 79.8703 17.472 79.8703 16.72C79.8703 15.856 80.1023 15.072 80.5663 14.368C81.0463 13.664 81.7023 13.104 82.5343 12.688C83.3823 12.272 84.3503 12.064 85.4383 12.064C86.3343 12.064 87.2303 12.24 88.1263 12.592C89.0223 12.944 89.8063 13.456 90.4783 14.128L88.6783 16.36C88.1663 15.96 87.6543 15.656 87.1423 15.448C86.6303 15.224 86.0623 15.112 85.4383 15.112C84.8303 15.112 84.3423 15.24 83.9743 15.496C83.6223 15.736 83.4463 16.08 83.4463 16.528C83.4463 17.008 83.6703 17.368 84.1183 17.608C84.5823 17.848 85.1503 18.104 85.8223 18.376L87.8383 19.192C88.7823 19.576 89.5343 20.104 90.0943 20.776C90.6543 21.448 90.9343 22.336 90.9343 23.44C90.9343 24.304 90.7023 25.104 90.2383 25.84C89.7743 26.576 89.1023 27.168 88.2223 27.616C87.3423 28.064 86.2783 28.288 85.0303 28.288ZM96.1694 28V15.328H91.8734V12.352H104.017V15.328H99.7214V28H96.1694ZM54.848 49V33.352H58.376V46.024H64.568V49H54.848ZM72.7627 49.288C71.3547 49.288 70.1147 48.96 69.0427 48.304C67.9867 47.648 67.1547 46.712 66.5467 45.496C65.9547 44.264 65.6587 42.8 65.6587 41.104C65.6587 39.392 65.9547 37.944 66.5467 36.76C67.1547 35.56 67.9867 34.648 69.0427 34.024C70.1147 33.384 71.3547 33.064 72.7627 33.064C74.1707 33.064 75.4027 33.384 76.4587 34.024C77.5307 34.648 78.3627 35.56 78.9547 36.76C79.5627 37.96 79.8667 39.408 79.8667 41.104C79.8667 42.8 79.5627 44.264 78.9547 45.496C78.3627 46.712 77.5307 47.648 76.4587 48.304C75.4027 48.96 74.1707 49.288 72.7627 49.288ZM72.7627 46.24C73.8347 46.24 74.6827 45.776 75.3067 44.848C75.9307 43.92 76.2427 42.672 76.2427 41.104C76.2427 39.536 75.9307 38.312 75.3067 37.432C74.6827 36.552 73.8347 36.112 72.7627 36.112C71.6907 36.112 70.8427 36.552 70.2187 37.432C69.5947 38.312 69.2827 39.536 69.2827 41.104C69.2827 42.672 69.5947 43.92 70.2187 44.848C70.8427 45.776 71.6907 46.24 72.7627 46.24ZM89.3369 49.288C88.0249 49.288 86.8169 48.984 85.7129 48.376C84.6089 47.768 83.7209 46.872 83.0489 45.688C82.3929 44.488 82.0649 43.016 82.0649 41.272C82.0649 39.544 82.4009 38.072 83.0729 36.856C83.7609 35.624 84.6649 34.688 85.7849 34.048C86.9209 33.392 88.1449 33.064 89.4569 33.064C90.4649 33.064 91.3689 33.272 92.1689 33.688C92.9689 34.088 93.6329 34.56 94.1609 35.104L92.2889 37.36C91.8889 36.992 91.4649 36.696 91.0169 36.472C90.5849 36.232 90.0889 36.112 89.5289 36.112C88.8249 36.112 88.1769 36.312 87.5849 36.712C87.0089 37.112 86.5449 37.688 86.1929 38.44C85.8569 39.192 85.6889 40.096 85.6889 41.152C85.6889 42.752 86.0329 44 86.7209 44.896C87.4089 45.792 88.3289 46.24 89.4809 46.24C90.1209 46.24 90.6889 46.096 91.1849 45.808C91.6969 45.52 92.1449 45.176 92.5289 44.776L94.4009 46.984C93.0889 48.52 91.4009 49.288 89.3369 49.288ZM96.7777 49V33.352H100.306V39.76H100.402L105.058 33.352H108.946L104.218 39.592L109.81 49H105.946L102.13 42.4L100.306 44.8V49H96.7777ZM115.827 49.288C114.803 49.288 113.779 49.096 112.755 48.712C111.747 48.328 110.843 47.768 110.043 47.032L112.059 44.608C112.619 45.088 113.243 45.48 113.931 45.784C114.619 46.088 115.283 46.24 115.923 46.24C116.659 46.24 117.203 46.104 117.555 45.832C117.923 45.56 118.107 45.192 118.107 44.728C118.107 44.232 117.899 43.872 117.483 43.648C117.083 43.408 116.539 43.144 115.851 42.856L113.811 41.992C113.283 41.768 112.779 41.472 112.299 41.104C111.819 40.72 111.427 40.248 111.123 39.688C110.819 39.128 110.667 38.472 110.667 37.72C110.667 36.856 110.899 36.072 111.363 35.368C111.843 34.664 112.499 34.104 113.331 33.688C114.179 33.272 115.147 33.064 116.235 33.064C117.131 33.064 118.027 33.24 118.923 33.592C119.819 33.944 120.603 34.456 121.275 35.128L119.475 37.36C118.963 36.96 118.451 36.656 117.939 36.448C117.427 36.224 116.859 36.112 116.235 36.112C115.627 36.112 115.139 36.24 114.771 36.496C114.419 36.736 114.243 37.08 114.243 37.528C114.243 38.008 114.467 38.368 114.915 38.608C115.379 38.848 115.947 39.104 116.619 39.376L118.635 40.192C119.579 40.576 120.331 41.104 120.891 41.776C121.451 42.448 121.731 43.336 121.731 44.44C121.731 45.304 121.499 46.104 121.035 46.84C120.571 47.576 119.899 48.168 119.019 48.616C118.139 49.064 117.075 49.288 115.827 49.288ZM124.387 49V33.352H128.251L130.771 40.312C130.931 40.76 131.083 41.232 131.227 41.728C131.371 42.224 131.523 42.712 131.683 43.192H131.779C131.939 42.712 132.083 42.224 132.211 41.728C132.355 41.232 132.507 40.76 132.667 40.312L135.139 33.352H138.979V49H135.763V43.264C135.763 42.752 135.787 42.184 135.835 41.56C135.899 40.92 135.963 40.28 136.027 39.64C136.107 39 136.171 38.432 136.219 37.936H136.123L134.851 41.656L132.619 47.632H130.675L128.443 41.656L127.195 37.936H127.099C127.163 38.432 127.227 39 127.291 39.64C127.355 40.28 127.411 40.92 127.459 41.56C127.523 42.184 127.555 42.752 127.555 43.264V49H124.387ZM142.668 49V33.352H146.196V49H142.668ZM152.935 49V36.328H148.639V33.352H160.783V36.328H156.487V49H152.935ZM163.223 49V33.352H166.751V39.376H172.151V33.352H175.703V49H172.151V42.472H166.751V49H163.223Z" fill="white"/>
</svg>
