<svg width="41" height="41" viewBox="0 0 41 41" fill="none" xmlns="http://www.w3.org/2000/svg">
<circle cx="20.5" cy="20.5" r="20.5" fill="#32BF94"/>
<path d="M14.14 20.06L13.852 21.14H16.354L16.084 20.06C15.928 19.472 15.766 18.848 15.598 18.188C15.442 17.528 15.286 16.892 15.13 16.28H15.058C14.914 16.904 14.764 17.546 14.608 18.206C14.464 18.854 14.308 19.472 14.14 20.06ZM9.892 26L13.564 14.264H16.75L20.422 26H17.614L16.894 23.21H13.312L12.592 26H9.892ZM24.0984 24.308V20.996H20.9304V19.124H24.0984V15.812H26.0424V19.124H29.2104V20.996H26.0424V24.308H24.0984Z" fill="white"/>
</svg>
