<svg width="492" height="1385" viewBox="0 0 492 1385" fill="none" xmlns="http://www.w3.org/2000/svg">
<path fill-rule="evenodd" clip-rule="evenodd" d="M435.6 48.4C435.6 21.6595 457.259 0 484 0C510.74 0 532.4 21.6595 532.4 48.4C532.4 75.1405 510.74 96.8 484 96.8C457.259 96.8 435.6 75.1405 435.6 48.4ZM484 96.8L606.453 243.333C563.137 253.618 530.708 292.337 530.708 338.923C530.708 393.252 574.752 437.296 629.082 437.296C639.972 437.296 650.257 435.359 659.937 432.092C641.907 424.953 629.082 407.651 629.082 387.202C629.082 360.461 650.741 338.802 677.482 338.802C704.222 338.802 725.882 360.461 725.882 387.202C725.882 408.618 711.603 426.286 692.243 432.577C709.183 462.222 740.038 482.792 776.579 482.792C830.908 482.792 874.953 438.747 874.953 384.418C874.953 347.754 854.745 316.174 824.979 299.234L968 242V677.6C968 1350.7 484 1384.47 484 1384.47C484 1384.47 0 1350.7 0 677.6V242L142.901 299.111C113.256 316.051 92.9266 347.631 92.9266 384.295C92.9266 438.625 136.971 482.669 191.301 482.669C227.842 482.669 258.697 462.099 275.637 432.454C256.277 426.163 241.998 408.618 241.998 387.079C241.998 360.339 263.657 338.679 290.398 338.679C317.138 338.679 338.798 360.339 338.798 387.079C338.798 407.649 325.972 424.951 307.943 431.97C317.623 435.238 328.028 437.174 338.798 437.174C393.127 437.174 437.172 393.129 437.172 338.8C437.172 292.215 404.866 253.495 361.426 243.21L484 96.8ZM518.393 857.952C551.244 842.802 574.045 809.576 574.045 771.026C574.045 718.186 531.21 675.351 478.37 675.351C425.531 675.351 382.696 718.186 382.696 771.026C382.696 809.576 405.496 842.802 438.348 857.952L382.696 1080.56H574.045L518.393 857.952Z" fill="#F6F6F6"/>
</svg>
