<svg width="61" height="61" viewBox="0 0 61 61" fill="none" xmlns="http://www.w3.org/2000/svg">
<path d="M61 25.1387H57.0339L53.4597 10.8418H0V46.584H7.45582C8.19354 48.6639 10.18 50.1582 12.5098 50.1582C14.8396 50.1582 16.826 48.6639 17.5637 46.584H43.4363C44.174 48.6639 46.1604 50.1582 48.4902 50.1582C50.82 50.1582 52.8065 48.6639 53.5442 46.584H61V25.1387ZM53.3499 25.1387H43.1289V14.416H50.6692L53.3499 25.1387ZM12.5098 46.584C11.5244 46.584 10.7227 45.7823 10.7227 44.7969C10.7227 43.8115 11.5244 43.0098 12.5098 43.0098C13.4952 43.0098 14.2969 43.8115 14.2969 44.7969C14.2969 45.7823 13.4952 46.584 12.5098 46.584ZM48.4902 46.584C47.5048 46.584 46.7031 45.7823 46.7031 44.7969C46.7031 43.8115 47.5048 43.0098 48.4902 43.0098C49.4756 43.0098 50.2773 43.8115 50.2773 44.7969C50.2773 45.7823 49.4756 46.584 48.4902 46.584ZM53.5442 43.0098C52.8065 40.9298 50.82 39.4355 48.4902 39.4355C46.1604 39.4355 44.174 40.9298 43.4363 43.0098H17.5637C16.826 40.9298 14.8396 39.4355 12.5098 39.4355C10.18 39.4355 8.19354 40.9298 7.45582 43.0098H3.57422V35.8613H7.14844V32.2871H3.57422V14.416H39.5547V28.7129H57.4258V32.2871H53.8516V35.8613H57.4258V43.0098H53.5442Z" fill="#BF3232"/>
<path d="M26.8066 21.5645C24.4768 21.5645 22.4904 23.0587 21.7527 25.1387H17.8711V21.5645H14.2969V25.1387H10.7227V21.5645H7.14844V28.7129H21.7527C22.4904 30.7928 24.4768 32.2871 26.8066 32.2871C29.7629 32.2871 32.168 29.882 32.168 26.9258C32.168 23.9695 29.7629 21.5645 26.8066 21.5645ZM26.8066 28.7129C25.8212 28.7129 25.0195 27.9112 25.0195 26.9258C25.0195 25.9404 25.8212 25.1387 26.8066 25.1387C27.7921 25.1387 28.5938 25.9404 28.5938 26.9258C28.5938 27.9112 27.7921 28.7129 26.8066 28.7129Z" fill="#BF3232"/>
</svg>
