<svg width="63" height="63" viewBox="0 0 63 63" fill="none" xmlns="http://www.w3.org/2000/svg">
<path fill-rule="evenodd" clip-rule="evenodd" d="M51.5878 48.8071L43.1803 43.9535C41.5466 43.0104 39.4386 43.5722 38.4959 45.2075L38.1642 45.783C37.3242 47.2402 36.0318 48.1688 34.3843 48.5064C32.7435 48.8425 31.1785 48.4906 29.8387 47.4856C27.0889 45.4226 24.4911 43.1447 22.0607 40.7143C19.6308 38.2844 17.3529 35.687 15.2905 32.9374C14.2854 31.5973 13.9323 30.0322 14.2685 28.3908C14.6059 26.7436 15.5366 25.4532 16.9929 24.6126L17.5679 24.2809C18.3653 23.8207 18.9236 23.0845 19.1621 22.196C19.3994 21.3114 19.2815 20.3902 18.8234 19.5968L13.9692 11.1893C13.1073 9.6964 11.3287 9.10393 9.72844 9.71805L9.62397 9.75817C7.97465 10.3909 3.42893 12.0513 2.20732 13.2729C-1.40521 16.8855 0.140502 23.421 1.75217 27.5799C4.57474 34.8635 9.92888 41.874 15.4158 47.3602C20.902 52.8457 27.9121 58.2015 35.195 61.0239C37.7218 62.0031 40.5653 62.7761 43.2932 62.7761C45.5762 62.7761 47.8486 62.2234 49.5032 60.5688C50.6677 59.4043 52.3949 54.7162 53.0279 53.1242L53.0686 53.0217C53.7003 51.4324 53.0643 49.6594 51.5878 48.8071ZM48.9981 15.8263C49.793 16.1112 50.3231 16.8654 50.3231 17.7093V27.2825H50.6958C51.7996 27.2825 52.696 28.1789 52.696 29.2828C52.696 30.3878 51.8009 31.283 50.6958 31.283H50.3231V33.4974C50.3231 34.6024 49.4268 35.497 48.3228 35.497C47.2184 35.497 46.3232 34.6024 46.3232 33.4974V31.283H38.798C38.0243 31.283 37.3196 30.8366 36.9893 30.1378C36.6591 29.4378 36.7617 28.6104 37.2529 28.013L46.7779 16.4378C47.3138 15.7864 48.2031 15.5416 48.9981 15.8263ZM46.3232 27.2826H43.035L46.3232 23.2874V27.2826ZM32.7665 23.3333C33.1339 21.9871 32.9181 20.9845 32.1214 20.3541C31.1949 19.6217 29.6523 19.4919 28.6085 20.0604C27.8572 20.4696 27.5393 21.1596 27.6354 22.1709C27.7421 23.2707 26.9367 24.2484 25.8369 24.3534C24.7365 24.4601 23.7606 23.6534 23.6544 22.5548C23.4014 19.9265 24.5094 17.7363 26.6943 16.5463C29.1574 15.2066 32.4103 15.4813 34.604 17.218C36.6832 18.8627 37.4204 21.4768 36.6255 24.387C36.0842 26.3701 34.2112 27.8303 32.2304 29.3776C31.3848 30.0369 30.4861 30.7381 29.6711 31.4971H35.4833C36.5878 31.4971 37.483 32.3934 37.483 33.4974C37.483 34.6024 36.5878 35.497 35.4833 35.497H25.5993C24.9105 35.497 24.2695 35.1431 23.9039 34.5594C23.5377 33.9761 23.4994 33.2444 23.7996 32.6246C25.1606 29.8206 27.7158 27.8261 29.7686 26.2239C31.0186 25.2476 32.5748 24.0333 32.7665 23.3333ZM63 26.2741C63 33.2321 60.2897 39.773 55.3698 44.6935C54.9788 45.0833 54.4675 45.2797 53.9552 45.2797C53.4439 45.2797 52.9309 45.0833 52.5411 44.6935C51.7598 43.9122 51.7598 42.6454 52.5411 41.8642C56.705 37.7003 58.9995 32.1629 58.9995 26.2741C58.9995 14.115 49.1084 4.22389 36.9492 4.22389C31.0598 4.22389 25.5231 6.51785 21.3587 10.6818C20.5774 11.4631 19.3112 11.4631 18.5299 10.6818C17.7485 9.90041 17.7485 8.63426 18.5299 7.85291C23.4504 2.93362 29.9913 0.223389 36.9492 0.223389C51.3132 0.223512 63 11.9096 63 26.2741Z" fill="#BF3232"/>
</svg>
