<svg width="24" height="24" viewBox="0 0 24 24" fill="none" xmlns="http://www.w3.org/2000/svg">
    <path
        d="M23.3124 11.7002C22.9304 11.7002 22.6248 12.0299 22.6248 12.4421V19.1911C22.6248 21.0267 21.2394 22.5161 19.5433 22.5161H4.45671C2.75552 22.5161 1.37521 21.0212 1.37521 19.1911V12.3322C1.37521 11.92 1.06961 11.5903 0.687606 11.5903C0.305603 11.5903 0 11.92 0 12.3322V19.1911C0 21.8456 2.0017 24 4.45671 24H19.5433C22.0034 24 24 21.8401 24 19.1911V12.4421C24 12.0354 23.6944 11.7002 23.3124 11.7002Z"
        fill="white" />
    <path
        d="M11.5159 18.1087C11.6483 18.2516 11.8266 18.3285 11.9998 18.3285C12.1729 18.3285 12.3512 18.2571 12.4836 18.1087L16.8538 13.3933C17.1237 13.102 17.1237 12.6348 16.8538 12.3436C16.5838 12.0523 16.1509 12.0523 15.8809 12.3436L12.6874 15.7949V0.741933C12.6874 0.329748 12.3818 0 11.9998 0C11.6178 0 11.3122 0.329748 11.3122 0.741933V15.7949L8.11353 12.3436C7.84358 12.0523 7.41064 12.0523 7.14069 12.3436C6.87075 12.6348 6.87075 13.102 7.14069 13.3933L11.5159 18.1087Z"
        fill="white" />
</svg>