<svg width="32" height="32" viewBox="0 0 32 32" fill="none" xmlns="http://www.w3.org/2000/svg">
<g clip-path="url(#clip0)">
<path d="M29.2175 0H11.1306C10.5543 0 10.0871 0.467187 10.0871 1.0435V4.17394H6.95663C6.38038 4.17394 5.91313 4.64112 5.91313 5.21744V8.34787H2.78276C2.20651 8.34787 1.73926 8.81506 1.73926 9.39137V30.9566C1.73926 31.5328 2.20645 32.0001 2.78276 32.0001H20.8697C21.4459 32.0001 21.9132 31.5329 21.9132 30.9566V27.8261H25.0436C25.6199 27.8261 26.0871 27.3589 26.0871 26.7826V23.6522H29.2176C29.7938 23.6522 30.2611 23.185 30.2611 22.6087V1.0435C30.261 0.467187 29.7938 0 29.2175 0ZM19.8262 29.9131H3.8262V10.4348H19.8262V29.9131ZM24.0001 25.7391H21.9132V9.39131C21.9132 8.81506 21.446 8.34781 20.8697 8.34781H8.00013V6.26088H24.0001V25.7391ZM28.1741 21.5652H26.0871V5.21737C26.0871 4.64112 25.6199 4.17387 25.0436 4.17387H12.1741V2.08694H28.1741V21.5652Z" fill="#77875F"/>
<path d="M16.6957 13.2173H6.95659C6.38034 13.2173 5.91309 13.6845 5.91309 14.2608C5.91309 14.837 6.38027 15.3043 6.95659 15.3043H16.6957C17.272 15.3043 17.7392 14.8371 17.7392 14.2608C17.7392 13.6845 17.272 13.2173 16.6957 13.2173Z" fill="#77875F"/>
<path d="M16.6959 17.3914H14.0865C13.5102 17.3914 13.043 17.8585 13.043 18.4349C13.043 19.0112 13.5102 19.4784 14.0865 19.4784H16.6959C17.2721 19.4784 17.7394 19.0112 17.7394 18.4349C17.7394 17.8585 17.2722 17.3914 16.6959 17.3914Z" fill="#77875F"/>
<path d="M9.9124 17.3914H6.95659C6.38034 17.3914 5.91309 17.8585 5.91309 18.4349C5.91309 19.0112 6.38027 19.4784 6.95659 19.4784H9.9124C10.4887 19.4784 10.9559 19.0112 10.9559 18.4349C10.9559 17.8585 10.4887 17.3914 9.9124 17.3914Z" fill="#77875F"/>
<path d="M16.6957 21.5652H6.95659C6.38034 21.5652 5.91309 22.0324 5.91309 22.6087C5.91309 23.185 6.38027 23.6522 6.95659 23.6522H16.6957C17.272 23.6522 17.7392 23.185 17.7392 22.6087C17.7392 22.0324 17.272 21.5652 16.6957 21.5652Z" fill="#77875F"/>
<path d="M16.6958 25.739H11.8262C11.25 25.739 10.7827 26.2062 10.7827 26.7825C10.7827 27.3588 11.2499 27.826 11.8262 27.826H16.6958C17.272 27.826 17.7393 27.3588 17.7393 26.7825C17.7393 26.2062 17.2721 25.739 16.6958 25.739Z" fill="#77875F"/>
</g>
<defs>
<clipPath id="clip0">
<rect width="32" height="32" fill="white"/>
</clipPath>
</defs>
</svg>
