<svg width="32" height="32" viewBox="0 0 32 32" fill="none" xmlns="http://www.w3.org/2000/svg">
<g clip-path="url(#clip0)">
<path d="M14.9566 24.3477C15.5329 24.3477 16.0001 23.8806 16.0001 23.3042C16.0001 22.7279 15.5329 22.2607 14.9566 22.2607C14.3803 22.2607 13.9131 22.7279 13.9131 23.3042C13.9131 23.8806 14.3803 24.3477 14.9566 24.3477Z" fill="#77875F"/>
<path d="M31.6944 15.9577L28.5217 12.785V5.91295C28.5217 5.3367 28.0545 4.86945 27.4782 4.86945H23.3043C22.728 4.86945 22.2608 5.33663 22.2608 5.91295V6.5242L16.7378 1.00113C16.3304 0.593697 15.6696 0.593697 15.2621 1.00113C14.8761 1.38713 0.861328 15.4019 0.305578 15.9576C-0.101859 16.3651 -0.101859 17.0259 0.305578 17.4333C0.713078 17.8408 1.37377 17.8408 1.78127 17.4333L3.47827 15.7364V30.2608C3.47827 30.837 3.94545 31.3043 4.52177 31.3043C5.05708 31.3043 27.4266 31.3043 27.4783 31.3043C28.0545 31.3043 28.5218 30.8371 28.5218 30.2608V15.7364L30.2188 17.4334C30.6263 17.8409 31.287 17.8409 31.6945 17.4334C32.1019 17.0259 32.1019 16.3653 31.6944 15.9577ZM20.1739 29.2173H11.8261V21.5651C11.8261 19.2636 13.6985 17.3911 16 17.3911C18.3015 17.3911 20.174 19.2636 20.174 21.5651V29.2173H20.1739ZM26.4348 29.2173H22.2608V21.5651C22.2608 18.1128 19.4522 15.3042 16 15.3042C12.5477 15.3042 9.73908 18.1128 9.73908 21.5651V29.2173H5.5652V13.6495L16 3.2147C16.5426 3.75726 25.8968 13.1114 26.4348 13.6495V29.2173H26.4348ZM26.4348 10.6981L24.3478 8.6112V6.95645H26.4348V10.6981Z" fill="#77875F"/>
</g>
<defs>
<clipPath id="clip0">
<rect width="32" height="32" fill="white"/>
</clipPath>
</defs>
</svg>
