<svg width="32" height="31" viewBox="0 0 32 31" fill="none" xmlns="http://www.w3.org/2000/svg">
<g clip-path="url(#clip0)">
<path d="M31.7368 12.6892C31.633 12.1397 31.089 11.7756 30.5219 11.8764C29.9548 11.9769 29.5792 12.5038 29.6829 13.0532C30.5087 17.4258 29.073 21.9048 25.8422 25.0347C23.2178 27.5771 19.7224 28.9773 15.9999 28.9773C12.6286 28.9773 9.44352 27.8287 6.92308 25.7234L8.37221 24.3196C8.95665 23.7534 8.65971 22.7855 7.85583 22.6163L2.19651 21.4244C1.45426 21.2684 0.793442 21.9091 0.95463 22.6275L2.18488 28.1098C2.36038 28.892 3.36113 29.174 3.94314 28.61L5.44389 27.1562C8.36127 29.6415 12.0705 30.9998 15.9999 30.9998C20.2801 30.9998 24.2998 29.3892 27.3185 26.4648C31.0344 22.865 32.6861 17.7153 31.7368 12.6892ZM3.81895 25.87L3.33976 23.7349L5.54376 24.1991L3.81895 25.87Z" fill="#77875F"/>
<path d="M31.0459 8.37335L29.8156 2.89088C29.6407 2.11152 28.6412 1.82471 28.0573 2.39065L26.5566 3.8445C23.6391 1.35935 19.9299 0.000976562 16.0005 0.000976562C11.7203 0.000976562 7.70065 1.61153 4.68196 4.53595C0.966083 8.13559 -0.685607 13.2855 0.263707 18.3116C0.367519 18.8615 0.911833 19.2249 1.47852 19.1244C2.04565 19.0239 2.42127 18.497 2.31752 17.9475C1.49171 13.5749 2.92752 9.09586 6.15834 5.96607C8.78272 3.4237 12.2782 2.02349 16.0006 2.02349C19.3719 2.02349 22.557 3.172 25.0774 5.27734L23.6283 6.68119C23.0439 7.24736 23.3408 8.21521 24.1447 8.38449L29.804 9.5763C30.5489 9.73324 31.2064 9.08902 31.0459 8.37335ZM26.4567 6.80161L28.1816 5.13064L28.6607 7.26571L26.4567 6.80161Z" fill="#77875F"/>
<path d="M24.9706 12.6615L16.6191 6.59361C16.248 6.32394 15.7376 6.32394 15.3664 6.59361L7.01491 12.6615C6.21553 13.2423 6.63978 14.4818 7.64129 14.4818H8.68522V21.561C8.68522 22.1194 9.1526 22.5723 9.72916 22.5723H22.2564C22.8329 22.5723 23.3003 22.1195 23.3003 21.561V14.4818H24.3443C25.3434 14.4818 25.7718 13.2436 24.9706 12.6615ZM21.2124 20.5496H10.7731V14.4818H21.2124V20.5496H21.2124ZM10.7731 12.4592L15.9927 8.66674L21.2124 12.4592H10.7731Z" fill="#77875F"/>
</g>
<defs>
<clipPath id="clip0">
<rect width="32" height="31" fill="white"/>
</clipPath>
</defs>
</svg>
