<svg width="2118" height="1793" viewBox="0 0 2118 1793" fill="none" xmlns="http://www.w3.org/2000/svg">
<path d="M279 1.99997C279 3.59997 278.3 3.99997 275.8 3.99997C268.9 3.99997 265 5.19997 265 7.09997C265 8.79997 264.2 8.99997 258 8.99997C251.8 8.99997 251 9.19997 251 10.9C251 12.9 247.6 14 241.4 14C238.7 14 238 14.4 238 16C238 17.7 237.2 17.9 231.3 18.2C225.1 18.5 224.5 18.7 224.2 20.7C223.9 22.7 223.3 23 219.4 23C215.7 23 215 23.3 215 25C215 26.6 214.3 27 211.6 27C205.8 27 202.2 28.1 201.7 30.1C201.3 31.6 200.3 32 196.6 32C192.7 32 192 32.3 192 33.9C192 35.5 191.1 36 187.5 36.6C184 37.1 183 37.6 183 39.1C183 40.7 182.2 41 178.5 41C174.4 41 174 41.2 174 43.5C174 45.8 173.6 46 169.5 46C165.7 46 165 46.3 165 48C165 49.5 164.3 50 162.5 50C160.5 50 160 50.5 160 52.5C160 54.8 159.6 55 155.5 55C151.7 55 151 55.3 151 56.9C151 58.2 150.2 59 148.8 59.2C147.3 59.4 146.4 60.3 146.2 61.7C145.9 63.6 145.2 64 142 64C138.8 64 138.1 64.4 137.8 66.2C137.6 67.7 136.7 68.6 135.3 68.8C133.8 69 133 69.8 133 71.1C133 72.5 132.3 73 130.5 73C128.7 73 128 73.5 128 74.9C128 76.5 127.1 77 123.5 77.6C120 78.1 119 78.6 119 80.1C119 81.3 118.3 82 117.1 82C115.8 82 115 82.8 114.8 84.2C114.6 85.7 113.7 86.6 112.3 86.8C110.8 87 110 87.8 110 89C110 90.2 109.2 91 107.8 91.2C106.3 91.4 105.4 92.3 105.2 93.7C105 95.2 104.2 96 102.9 96C101.7 96 101 96.7 101 97.9C101 99.2 100.2 100 98.8 100.2C97.3 100.4 96.4 101.3 96.2 102.7C96 104.1 95.1 105 93.7 105.2C92.3 105.4 91.4 106.3 91.2 107.7C91 109.2 90.2 110 88.9 110C87.7 110 87 110.7 87 111.9C87 113.2 86.2 114 84.8 114.2C83.3 114.4 82.4 115.3 82.2 116.7C82 118.2 81.2 119 79.9 119C78.5 119 78 119.7 78 121.5C78 123.3 77.5 124 76.1 124C74.6 124 74 125 73.5 127.9C73 131 72.3 132 70.7 132.2C69.3 132.4 68.4 133.3 68.2 134.7C68 136.2 67.2 137 65.9 137C64.5 137 64 137.7 64 139.5C64 141.3 63.5 142 62.1 142C60.5 142 60 142.9 59.4 146.5C58.9 150 58.4 151 56.9 151C55.6 151 55 151.7 55 153.1C55 154.3 54.2 155.4 53.1 155.7C51.8 156 50.9 157.4 50.5 160.1C50 163 49.4 164 47.9 164C46.5 164 46 164.7 46 166.6C46 168.3 45.4 169.4 44 169.7C42.6 170.1 41.8 171.4 41.4 174.1C40.9 176.9 40.3 178 39 178C37.6 178 37 179.1 36.5 183C35.9 187 35.4 188 33.9 188C32.3 188 32 188.7 32 192.5C32 196.3 31.7 197 30.1 197C28.5 197 28 197.9 27.4 201.5C26.9 205 26.4 206 24.9 206C23.2 206 23 206.8 23 212.4C23 218.3 22.8 218.9 20.8 219.2C18.7 219.5 18.5 220.1 18.2 226.2C17.9 232.1 17.7 233 16 233C14.3 233 14.1 233.9 13.8 239.7C13.5 245.9 13.3 246.5 11.2 246.8C9.1 247.1 9 247.5 9 258.1C9 268.1 8.8 269 7.1 269C5.4 269 5.2 270.3 4.5 287.5C3.8 304.7 3.7 306 1.9 306C0 306 0 317.9 0 892C0 1461 0.1 1478 1.8 1478C3.5 1478 3.8 1479.3 4.3 1490.7C4.7 1497.8 5 1506.8 5 1510.7C5 1517.3 5.2 1518 7 1518C8.8 1518 9 1518.7 9 1526.4C9 1537.2 9.7 1540.7 12.1 1541.3C13.7 1541.7 14 1542.8 14 1548.9C14 1555.3 14.2 1556 16 1556C17.8 1556 18 1556.7 18 1561.4C18 1569.5 18.9 1573 21.1 1573C22.7 1573 23 1573.8 23 1578C23 1582.2 23.3 1583 24.9 1583C26.8 1583 28 1586.9 28 1593.2C28 1595.3 28.5 1596 30 1596C31.7 1596 32 1596.7 32 1600.4C32 1604.3 32.3 1604.9 34.3 1605.2C36.1 1605.4 36.6 1606.2 36.8 1609.7C37.1 1613.2 37.5 1614 39.1 1614C40.5 1614 41 1614.7 41 1617C41 1619.3 41.5 1620 42.9 1620C44.5 1620 45 1620.9 45.6 1624.5C46.1 1627.9 46.7 1629 48 1629C49.3 1629 50 1630.1 50.5 1632.9C50.9 1635.6 51.8 1637 53.1 1637.3C54.2 1637.6 55 1638.7 55 1639.9C55 1641.3 55.6 1642 56.9 1642C58.4 1642 58.9 1643 59.4 1646.5C60 1650.1 60.5 1651 62.1 1651C63.5 1651 64 1651.7 64 1653.5C64 1655.5 64.5 1656 66.5 1656C68.5 1656 69 1656.5 69 1658.5C69 1660.3 69.5 1661 71 1661C72.3 1661 73 1661.7 73 1663C73 1664.3 73.7 1665 74.9 1665C76.5 1665 77 1665.9 77.5 1669.4C78.1 1673 78.7 1674 80.4 1674.2C81.7 1674.4 82.6 1675.3 82.8 1676.7C83 1678.2 83.8 1679 85.1 1679C86.3 1679 87 1679.7 87 1680.9C87 1682.2 87.8 1683 89.3 1683.2C90.7 1683.4 91.6 1684.3 91.8 1685.7C92 1687.2 92.8 1688 94.1 1688C95.3 1688 96 1688.7 96 1689.9C96 1691.2 96.8 1692 98.3 1692.2C99.7 1692.4 100.6 1693.3 100.8 1694.7C101 1696.2 101.8 1697 103.1 1697C104.3 1697 105 1697.7 105 1698.9C105 1700.2 105.8 1701 107.3 1701.2C108.7 1701.4 109.6 1702.3 109.8 1703.6C110 1705.3 111 1705.9 114.6 1706.5C118.1 1707 119 1707.5 119 1709.1C119 1710.3 119.7 1711 121 1711C122.3 1711 123 1711.7 123 1713C123 1714.5 123.7 1715 125.5 1715C127.5 1715 128 1715.5 128 1717.5C128 1719.5 128.5 1720 130.5 1720C132.3 1720 133 1720.5 133 1721.9C133 1723.4 134 1724 137 1724.5C140 1725 141 1725.6 141 1727.1C141 1728.4 141.7 1729 143.4 1729C145.2 1729 145.9 1729.6 146.2 1731.2C146.4 1733.1 147.2 1733.6 150.8 1733.8C154.2 1734.1 155 1734.5 155 1736.1C155 1737.5 155.7 1738 157.5 1738C159.5 1738 160 1738.5 160 1740.5C160 1742.8 160.4 1743 164.5 1743C168.2 1743 169 1743.3 169 1744.9C169 1746.4 170 1746.9 173.5 1747.4C177.1 1748 178 1748.5 178 1750.1C178 1751.5 178.7 1752 180.5 1752C182.3 1752 183 1752.5 183 1753.9C183 1755.4 184 1755.9 188 1756.5C192 1757.1 193 1757.6 193 1759.1C193 1760.6 193.7 1761 196.4 1761C202.6 1761 206 1762.1 206 1764.1C206 1765.7 206.8 1766 210.5 1766C214.3 1766 215 1766.3 215 1768C215 1769.6 215.7 1770 218.4 1770C224.2 1770 227.8 1771.1 228.3 1773.1C228.7 1774.6 229.7 1775 233.4 1775C237.3 1775 238 1775.3 238 1777C238 1778.7 238.7 1779 243.3 1779C252 1779 256 1780 256 1782.1C256 1783.8 256.8 1784 263 1784C269.2 1784 270 1784.2 270 1785.9C270 1787.4 271.1 1787.8 276.8 1788.3C280.5 1788.7 285.6 1789 288.3 1789C292.3 1789 293 1789.3 293 1791C293 1793 293.7 1793 331.5 1793C369.3 1793 370 1793 370 1791C370 1789.5 369.3 1789 367.3 1789C360.9 1789 357 1787.8 357 1785.9C357 1784.2 356.2 1784 350 1784C343.7 1784 343 1783.8 343 1782.1C343 1780.5 342.1 1780 338.5 1779.4C335 1778.9 334 1778.4 334 1776.9C334 1775.4 333.3 1775 330.6 1775C324.8 1775 321.2 1773.9 320.7 1771.9C320.3 1770.4 319.3 1770 316.1 1770C312.7 1770 312 1769.7 312 1768C312 1766.5 311.3 1766 309.4 1766C307.7 1766 306.6 1765.4 306.3 1764C305.9 1762.6 304.6 1761.9 301.4 1761.4C298 1760.9 297 1760.3 297 1758.9C297 1757.6 295.9 1757 292.5 1756.4C289 1755.9 288 1755.4 288 1753.9C288 1752.5 287.3 1752 285.5 1752C283.7 1752 283 1751.5 283 1750.1C283 1748.6 282 1748 279 1747.5C276 1747 275 1746.4 275 1744.9C275 1743.5 274.3 1743 272.5 1743C270.5 1743 270 1742.5 270 1740.5C270 1738.5 269.5 1738 267.5 1738C265.7 1738 265 1737.5 265 1736.1C265 1734.5 264.1 1734 260.5 1733.4C257 1732.9 256 1732.4 256 1730.9C256 1729.7 255.3 1729 254.1 1729C252.8 1729 252 1728.2 251.8 1726.7C251.6 1725.3 250.7 1724.4 249.3 1724.2C247.8 1724 247 1723.2 247 1721.9C247 1720.7 246.3 1720 245.1 1720C243.8 1720 243 1719.2 242.8 1717.7C242.6 1716.3 241.7 1715.4 240.3 1715.2C238.8 1715 238 1714.2 238 1713C238 1711.8 237.2 1711 235.8 1710.8C234.3 1710.6 233.4 1709.7 233.2 1708.2C233 1706.8 232.2 1706 230.9 1706C229.5 1706 229 1705.3 229 1703.5C229 1701.7 228.5 1701 227.1 1701C225.6 1701 225 1700 224.5 1697C224 1694 223.4 1693 221.9 1693C220.5 1693 220 1692.3 220 1690.5C220 1688.5 219.5 1688 217.5 1688C215.5 1688 215 1687.5 215 1685.5C215 1683.7 214.5 1683 213.1 1683C211.5 1683 211 1682.1 210.4 1678.5C209.9 1675 209.4 1674 207.9 1674C206.5 1674 206 1673.3 206 1671.5C206 1669.7 205.5 1669 204.1 1669C202.5 1669 202 1668.1 201.4 1664.5C200.9 1661.1 200.3 1660 199 1660C197.7 1660 197.1 1658.9 196.6 1655.5C196 1651.9 195.5 1651 193.9 1651C192.3 1651 192 1650.3 192 1646.5C192 1642.7 191.7 1642 190.1 1642C188.5 1642 188 1641.1 187.4 1637.5C186.9 1634 186.4 1633 184.9 1633C183.3 1633 183 1632.2 183 1628.5C183 1624.8 182.7 1624 181.1 1624C179.1 1624 178 1620.6 178 1614.4C178 1611.7 177.6 1611 176 1611C174.3 1611 174 1610.3 174 1606C174 1601.8 173.7 1601 172.1 1601C169.9 1601 169 1597.5 169 1588.9C169 1583.7 168.8 1583 167 1583C165.3 1583 165 1582.3 165 1579.1C165 1573.4 163.9 1569 162.5 1569C160.8 1569 160 1564.3 160 1554.4C160 1546.9 159.8 1546 158.2 1546C156.5 1546 156.2 1544.8 155.7 1535.3C155.3 1529.5 155 1522.3 155 1519.3C155 1514.7 154.8 1514 153 1514C151 1514 151 1513.3 151 901.5C151 302.9 151 289 152.9 289C154.6 289 154.8 287.7 155.5 270.5C156.2 253.3 156.3 252 158.1 252C159.8 252 160 251.1 160 241.1C160 228.8 160.7 224 162.5 224C163.9 224 165 218.7 165 211.2C165 206.7 165.3 206 167 206C168.8 206 169 205.3 169 200.1C169 191.5 169.9 188 172.1 188C173.8 188 174 187.2 174 181C174 174.8 174.2 174 175.9 174C177.4 174 177.9 173 178.4 169.5C179 165.9 179.5 165 181.1 165C182.7 165 183 164.3 183 160C183 155.7 183.3 155 184.9 155C186.5 155 187 154.1 187.6 150.5C188.1 147 188.6 146 190.1 146C191.7 146 192 145.2 192 141.5C192 137.4 192.2 137 194.5 137C196.8 137 197 136.6 197 132.5C197 128.7 197.3 128 199 128C200.5 128 201 127.3 201 125.5C201 123.7 201.5 123 202.9 123C204.5 123 205 122.1 205.6 118.5C206.1 115.1 206.7 114 208 114C209.2 114 210 113.1 210.2 111.7C210.4 110.3 211.3 109.4 212.8 109.2C214.6 108.9 215 108.2 215 105C215 101.8 215.4 101.1 217.3 100.8C218.7 100.6 219.6 99.7 219.8 98.2C220 96.8 220.8 96 222.1 96C223.5 96 224 95.3 224 93.5C224 91.5 224.5 91 226.5 91C228.3 91 229 90.5 229 89C229 87.7 229.7 87 231 87C232.5 87 233 86.3 233 84.5C233 82.5 233.5 82 235.5 82C237.5 82 238 81.5 238 79.5C238 77.7 238.5 77 240 77C241.3 77 242 76.3 242 75C242 73.5 242.7 73 244.5 73C246.5 73 247 72.5 247 70.5C247 68.7 247.5 68 249 68C250.3 68 251 67.3 251 66C251 64.5 251.7 64 253.5 64C255.5 64 256 63.5 256 61.5C256 59.5 256.5 59 258.5 59C260.3 59 261 58.5 261 57.1C261 55.8 261.8 55 263.3 54.8C264.7 54.6 265.6 53.7 265.8 52.2C266.1 50.4 266.8 50 270 50C273.2 50 273.9 49.6 274.2 47.7C274.4 46.3 275.3 45.4 276.8 45.2C278.2 45 279 44.2 279 42.9C279 41.5 279.7 41 281.5 41C283.3 41 284 40.5 284 39.1C284 37.5 284.9 37 288.5 36.4C291.9 35.9 293 35.3 293 34C293 32.7 294.1 32.1 296.9 31.6C299.6 31.2 300.9 30.4 301.3 29C301.6 27.6 302.7 27 304.4 27C306.3 27 307 26.5 307 25C307 23.3 307.7 23 311.1 23C314.3 23 315.3 22.6 315.7 21C316.1 19.6 317.4 18.9 320.6 18.4C324 17.9 325 17.3 325 15.9C325 14.3 325.8 14 329.5 14C333.6 14 334 13.8 334 11.5C334 9.09997 334.2 8.99997 340.5 8.99997C346.2 8.99997 347 8.79997 347 7.09997C347 5.59997 348 5.09997 352 4.49997C356 3.89997 357 3.39997 357 1.89997C357 0.0999733 355.7 -2.67178e-05 318 -2.67178e-05C279.7 -2.67178e-05 279 -2.67178e-05 279 1.99997Z" fill="white"/>
<path d="M1756 1.89997C1756 3.79997 1759.9 4.99997 1766.8 4.99997C1769.3 4.99997 1770 5.39997 1770 6.99997C1770 8.69997 1770.7 8.99997 1775 8.99997C1779.2 8.99997 1780 9.29997 1780 10.9C1780 12.9 1783.4 14 1789.6 14C1792.3 14 1793 14.4 1793 15.9C1793 17.4 1794 17.9 1797.5 18.4C1801.1 19 1802 19.5 1802 21.1C1802 22.7 1802.7 23 1806.5 23C1810.3 23 1811 23.3 1811 25C1811 26.5 1811.7 27 1813.6 27C1815.3 27 1816.4 27.6 1816.7 29C1817.1 30.4 1818.4 31.2 1821.1 31.6C1823.9 32.1 1825 32.7 1825 34C1825 35.3 1826.1 35.9 1829.5 36.4C1833.1 37 1834 37.5 1834 39.1C1834 40.5 1834.7 41 1836.5 41C1838.3 41 1839 41.5 1839 42.9C1839 44.5 1839.9 45 1843.5 45.6C1846.9 46.1 1848 46.7 1848 48C1848 49.2 1848.9 50 1850.3 50.2C1851.7 50.4 1852.6 51.3 1852.8 52.7C1853 54.2 1853.8 55 1855.1 55C1856.3 55 1857 55.7 1857 57C1857 58.5 1857.7 59 1859.5 59C1861.5 59 1862 59.5 1862 61.5C1862 63.5 1862.5 64 1864.5 64C1866.3 64 1867 64.5 1867 66C1867 67.3 1867.7 68 1869 68C1870.5 68 1871 68.7 1871 70.5C1871 72.5 1871.5 73 1873.5 73C1875.3 73 1876 73.5 1876 74.9C1876 76.2 1876.8 77 1878.3 77.2C1879.7 77.4 1880.6 78.3 1880.8 79.7C1881 81.2 1881.8 82 1883.1 82C1884.3 82 1885 82.7 1885 84C1885 85.3 1885.7 86 1887 86C1888.5 86 1889 86.7 1889 88.5C1889 90.5 1889.5 91 1891.5 91C1893.5 91 1894 91.5 1894 93.5C1894 95.3 1894.5 96 1895.9 96C1897.2 96 1898 96.8 1898.2 98.2C1898.4 99.7 1899.3 100.6 1900.8 100.8C1902.6 101.1 1903 101.8 1903 105C1903 108.2 1903.4 108.9 1905.3 109.2C1906.7 109.4 1907.6 110.3 1907.8 111.7C1908 113.2 1908.8 114 1910.1 114C1911.7 114 1912 114.7 1912 118.5C1912 122.6 1912.2 123 1914.5 123C1916.5 123 1917 123.5 1917 125.5C1917 127.3 1917.5 128 1919 128C1920.7 128 1921 128.7 1921 132.5C1921 136.6 1921.2 137 1923.5 137C1925.8 137 1926 137.4 1926 141.5C1926 145.2 1926.3 146 1927.9 146C1929.4 146 1929.9 147 1930.4 150.5C1931 154.1 1931.5 155 1933.1 155C1934.7 155 1935 155.7 1935 160C1935 164.2 1935.3 165 1936.9 165C1938.9 165 1940 168.4 1940 174.6C1940 177.3 1940.4 178 1942 178C1943.7 178 1944 178.7 1944 183C1944 187.2 1944.3 188 1945.9 188C1948.1 188 1949 191.5 1949 200.1C1949 205.3 1949.2 206 1951 206C1952.7 206 1953 206.7 1953 211.2C1953 218.7 1954.1 224 1955.5 224C1957.3 224 1958 228.8 1958 241.1C1958 251 1958.2 252 1959.8 252C1961.5 252 1961.8 253.3 1962.3 265.7C1962.7 273.2 1963 284.4 1963 290.7C1963 301.3 1963.1 302 1965 302C1967 302 1967 302.7 1967 405V508H1964.5C1962.7 508 1962 508.5 1962 510C1962 512 1961.3 512 1383.5 512H805V896.5V1281H1123H1441V1205.5V1130H1198.5H956V894.5V659H1461.5H1967V1082C1967 1494.7 1967 1505 1965.1 1505C1963.4 1505 1963.2 1506.3 1962.5 1523C1961.8 1539.8 1961.7 1541 1959.9 1541C1958.1 1541 1958 1541.9 1958 1552.6C1958 1563.1 1957.8 1564.2 1956.1 1564.7C1954.2 1565.2 1953 1571.7 1953 1582.1C1953 1586.3 1952.7 1587 1951 1587C1949.2 1587 1949 1587.7 1949 1594C1949 1600.2 1948.8 1601 1947.1 1601C1945.1 1601 1944 1604.4 1944 1611.1C1944 1614.3 1943.7 1615 1942 1615C1940.4 1615 1940 1615.7 1940 1618.4C1940 1624.6 1938.9 1628 1936.9 1628C1935.3 1628 1935 1628.8 1935 1633C1935 1637.3 1934.7 1638 1933.1 1638C1931.5 1638 1931 1638.9 1930.4 1642.5C1929.9 1646 1929.4 1647 1927.9 1647C1926.3 1647 1926 1647.8 1926 1651.5C1926 1655.6 1925.8 1656 1923.5 1656C1921.5 1656 1921 1656.5 1921 1658.5C1921 1660.3 1920.5 1661 1919.1 1661C1917.5 1661 1917.1 1661.8 1916.8 1665.2C1916.6 1668.8 1916.1 1669.6 1914.3 1669.8C1912.4 1670.1 1912 1670.8 1912 1674.1C1912 1677.3 1911.7 1678 1910 1678C1908.5 1678 1908 1678.7 1908 1680.5C1908 1682.5 1907.5 1683 1905.5 1683C1903.5 1683 1903 1683.5 1903 1685.5C1903 1687.3 1902.5 1688 1901.1 1688C1899.5 1688 1899 1688.9 1898.4 1692.5C1897.9 1695.9 1897.3 1697 1896 1697C1894.8 1697 1894 1697.9 1893.8 1699.2C1893.6 1700.7 1892.7 1701.6 1891.3 1701.8C1889.8 1702 1889 1702.8 1889 1704.1C1889 1705.3 1888.3 1706 1887 1706C1885.5 1706 1885 1706.7 1885 1708.5C1885 1710.5 1884.5 1711 1882.5 1711C1880.7 1711 1880 1711.5 1880 1713C1880 1714.3 1879.3 1715 1878 1715C1876.5 1715 1876 1715.7 1876 1717.5C1876 1719.5 1875.5 1720 1873.5 1720C1871.5 1720 1871 1720.5 1871 1722.5C1871 1724.5 1870.5 1725 1868.5 1725C1866.7 1725 1866 1725.5 1866 1727C1866 1728.3 1865.3 1729 1864.1 1729C1862.8 1729 1862 1729.8 1861.8 1731.2C1861.6 1732.7 1860.7 1733.6 1859.3 1733.8C1857.9 1734 1857 1734.8 1857 1735.9C1857 1737.3 1856 1737.9 1853.1 1738.4C1850.4 1738.8 1849.1 1739.6 1848.7 1741C1848.4 1742.2 1847.3 1743 1846.1 1743C1844.7 1743 1844 1743.6 1844 1745C1844 1746.5 1843.3 1747 1841.5 1747C1839.5 1747 1839 1747.5 1839 1749.5C1839 1751.8 1838.6 1752 1834.5 1752C1830.7 1752 1830 1752.3 1830 1753.9C1830 1755.2 1829.2 1756 1827.8 1756.2C1826.3 1756.4 1825.4 1757.3 1825.2 1758.8C1824.9 1760.7 1824.3 1761 1820.4 1761C1816.7 1761 1816 1761.3 1816 1762.9C1816 1764.5 1815.1 1765 1811.5 1765.6C1808 1766.1 1807 1766.6 1807 1768.1C1807 1769.7 1806.2 1770 1802.6 1770C1798.7 1770 1798.1 1770.3 1797.8 1772.2C1797.5 1774.2 1796.8 1774.5 1792.8 1774.8C1788.8 1775.1 1788 1775.4 1788 1777.1C1788 1778.6 1787.3 1779 1784.6 1779C1778.4 1779 1775 1780.1 1775 1782.1C1775 1783.8 1774.2 1784 1768.5 1784C1762.7 1784 1762 1784.2 1762 1785.9C1762 1787.6 1761 1788 1755 1788.6C1749.1 1789.2 1748 1789.5 1748 1791.1C1748 1792.9 1749.7 1793 1791 1793C1832.3 1793 1834 1792.9 1834 1791.1C1834 1789.2 1837.9 1788 1844.8 1788C1847.3 1788 1848 1787.6 1848 1786C1848 1784.1 1848.7 1784 1857 1784C1865.1 1784 1866 1783.8 1866 1782.1C1866 1780.2 1869.9 1779 1876.8 1779C1879.3 1779 1880 1778.6 1880 1777C1880 1775.3 1880.7 1775 1884.6 1775C1888.3 1775 1889.3 1774.6 1889.7 1773.1C1890.2 1771.1 1893.8 1770 1899.6 1770C1902.3 1770 1903 1769.6 1903 1768.1C1903 1766.6 1904 1766.1 1907.5 1765.6C1911.1 1765 1912 1764.5 1912 1762.9C1912 1761.3 1912.7 1761 1917 1761C1921.3 1761 1922 1760.7 1922 1759.1C1922 1757.5 1922.9 1757 1926.5 1756.4C1930 1755.9 1931 1755.4 1931 1753.9C1931 1752.3 1931.8 1752 1935.5 1752C1939.3 1752 1940 1751.7 1940 1750.1C1940 1748.5 1940.9 1748 1944.5 1747.4C1947.9 1746.9 1949 1746.3 1949 1745C1949 1743.7 1950.1 1743.1 1953.5 1742.6C1957.1 1742 1958 1741.5 1958 1739.9C1958 1738.5 1958.7 1738 1960.5 1738C1962.3 1738 1963 1737.5 1963 1736.1C1963 1734.6 1964 1734 1967 1733.5C1970 1733 1971 1732.4 1971 1730.9C1971 1729.5 1971.7 1729 1973.5 1729C1975.3 1729 1976 1728.5 1976 1727.1C1976 1725.6 1977 1725.1 1980.5 1724.6C1984.1 1724 1985 1723.5 1985 1721.9C1985 1720.5 1985.7 1720 1987.5 1720C1989.5 1720 1990 1719.5 1990 1717.5C1990 1715.5 1990.5 1715 1992.5 1715C1994.3 1715 1995 1714.5 1995 1713C1995 1711.6 1995.7 1711 1997.1 1711C1998.3 1711 1999.4 1710.2 1999.7 1709C2000.1 1707.6 2001.4 1706.8 2004.1 1706.4C2007 1705.9 2008 1705.2 2008.2 1703.6C2008.4 1702.3 2009.3 1701.4 2010.8 1701.2C2012.2 1701 2013 1700.2 2013 1698.9C2013 1697.7 2013.7 1697 2014.9 1697C2016.2 1697 2017 1696.2 2017.2 1694.8C2017.4 1693.3 2018.3 1692.4 2019.8 1692.2C2021.2 1692 2022 1691.2 2022 1689.9C2022 1688.7 2022.7 1688 2023.9 1688C2025.2 1688 2026 1687.2 2026.2 1685.7C2026.4 1684.3 2027.3 1683.4 2028.8 1683.2C2030.2 1683 2031 1682.2 2031 1680.8C2031 1679.7 2031.8 1678.6 2033 1678.3C2034.1 1678 2035 1676.9 2035 1675.9C2035 1674.6 2035.7 1674 2037.4 1674C2039.4 1674 2039.9 1673.4 2040.4 1669.5C2041 1665.9 2041.5 1665 2043.1 1665C2044.3 1665 2045 1664.3 2045 1663C2045 1661.7 2045.7 1661 2047 1661C2048.5 1661 2049 1660.3 2049 1658.5C2049 1656.5 2049.5 1656 2051.5 1656C2053.5 1656 2054 1655.5 2054 1653.5C2054 1651.7 2054.5 1651 2055.9 1651C2057.5 1651 2058 1650.1 2058.6 1646.5C2059.1 1643 2059.6 1642 2061.1 1642C2062.5 1642 2063 1641.3 2063 1639.5C2063 1637.7 2063.5 1637 2064.9 1637C2066.4 1637 2067 1636 2067.5 1633C2068 1630 2068.6 1629 2070.1 1629C2071.5 1629 2072 1628.3 2072 1626.4C2072 1624.7 2072.6 1623.6 2074 1623.3C2075.4 1622.9 2076.2 1621.6 2076.6 1618.9C2077.1 1616 2077.7 1615 2079.1 1615C2080.5 1615 2081 1614.1 2081.2 1610.3C2081.5 1606.2 2081.8 1605.5 2083.8 1605.2C2085.7 1604.9 2086 1604.3 2086 1600.4C2086 1596.7 2086.3 1596 2087.9 1596C2089.5 1596 2090 1595.1 2090.6 1591.5C2091.1 1588 2091.6 1587 2093.1 1587C2094.8 1587 2095 1586.2 2095 1580.6C2095 1574.7 2095.2 1574.1 2097.3 1573.8C2099.3 1573.5 2099.5 1572.9 2099.8 1566.7C2100.1 1560.8 2100.3 1560 2102 1560C2103.6 1560 2104 1559.3 2104 1556.1C2104 1549.4 2105.1 1546 2107.1 1546C2108.8 1546 2109 1545.1 2109 1537C2109 1528.7 2109.1 1528 2111 1528C2112.8 1528 2113 1527.3 2113 1521.7C2113 1518.3 2113.3 1511.1 2113.7 1505.7C2114.2 1497.2 2114.5 1496 2116.2 1496C2117.9 1496 2118 1479 2118 896.5C2118 313.2 2117.9 297 2116.1 297C2114.6 297 2114.2 295.9 2113.7 290.2C2113.3 286.5 2113 280.2 2113 276.2C2113 269.7 2112.8 269 2111 269C2109.1 269 2109 268.3 2109 260C2109 251.9 2108.8 251 2107.1 251C2104.9 251 2104 247.5 2104 238.9C2104 233.7 2103.8 233 2102 233C2100.4 233 2100 232.3 2100 229.6C2100 223.8 2098.9 220.2 2096.9 219.7C2095.4 219.3 2095 218.3 2095 214.6C2095 210.7 2094.7 210 2093 210C2091.4 210 2091 209.3 2091 206.6C2091 200.4 2089.9 197 2087.9 197C2086.3 197 2086 196.2 2086 192.5C2086 188.7 2085.7 188 2084.1 188C2082.6 188 2082.1 187 2081.5 183C2080.9 179 2080.4 178 2078.9 178C2077.3 178 2077 177.3 2077 173.5C2077 169.4 2076.8 169 2074.5 169C2072.5 169 2072 168.5 2072 166.5C2072 164.7 2071.5 164 2070.1 164C2068.5 164 2068.1 163.2 2067.8 159.7C2067.6 156.2 2067.1 155.4 2065.3 155.2C2063.4 154.9 2063 154.2 2063 151C2063 147.8 2062.6 147.1 2060.8 146.8C2059.3 146.6 2058.4 145.7 2058.2 144.2C2058 142.8 2057.2 142 2055.9 142C2054.5 142 2054 141.3 2054 139.5C2054 137.7 2053.5 137 2052.1 137C2050.5 137 2050 136.1 2049.4 132.5C2048.9 129.1 2048.3 128 2047 128C2045.8 128 2045 127.1 2044.8 125.7C2044.6 124.3 2043.7 123.4 2042.3 123.2C2040.8 123 2040 122.2 2040 120.9C2040 119.7 2039.3 119 2038 119C2036.5 119 2036 118.3 2036 116.5C2036 114.5 2035.5 114 2033.5 114C2031.5 114 2031 113.5 2031 111.5C2031 109.7 2030.5 109 2029 109C2027.7 109 2027 108.3 2027 107C2027 105.5 2026.3 105 2024.5 105C2022.5 105 2022 104.5 2022 102.5C2022 100.5 2021.5 100 2019.5 100C2017.7 100 2017 99.5 2017 98C2017 96.7 2016.3 96 2015.1 96C2013.8 96 2013 95.2 2012.8 93.7C2012.6 92.3 2011.7 91.4 2010.3 91.2C2008.8 91 2008 90.2 2008 89C2008 87.8 2007.2 87 2005.8 86.8C2004.3 86.6 2003.4 85.7 2003.2 84.2C2003 82.8 2002.2 82 2000.9 82C1999.7 82 1999 81.3 1999 80.1C1999 78.6 1998 78.1 1994.5 77.6C1990.9 77 1990 76.5 1990 74.9C1990 73.5 1989.3 73 1987.5 73C1985.7 73 1985 72.5 1985 71.1C1985 69.8 1984.2 69 1982.8 68.8C1981.3 68.6 1980.4 67.7 1980.2 66.2C1979.9 64.4 1979.2 64 1976 64C1972.8 64 1972.1 63.6 1971.8 61.7C1971.6 60.3 1970.7 59.4 1969.3 59.2C1967.8 59 1967 58.2 1967 56.9C1967 55.3 1966.3 55 1962.5 55C1958.4 55 1958 54.8 1958 52.5C1958 50.2 1957.6 50 1953.5 50C1949.7 50 1949 49.7 1949 48C1949 46.5 1948.3 46 1946.5 46C1944.5 46 1944 45.5 1944 43.5C1944 41.2 1943.6 41 1939.5 41C1935.8 41 1935 40.7 1935 39.1C1935 37.6 1934 37.1 1930.5 36.6C1926.9 36 1926 35.5 1926 33.9C1926 32.3 1925.3 32 1921.5 32C1917.7 32 1917 31.7 1917 30.1C1917 28.6 1916 28.1 1912 27.5C1908 26.9 1907 26.4 1907 24.9C1907 23.4 1906.3 23 1903.6 23C1897.4 23 1894 21.9 1894 19.9C1894 18.3 1893.2 18 1889 18C1884.7 18 1884 17.7 1884 16C1884 14.4 1883.3 14 1880.6 14C1874.4 14 1871 12.9 1871 10.9C1871 9.19997 1870.2 8.99997 1864 8.99997C1857.8 8.99997 1857 8.79997 1857 7.09997C1857 5.39997 1855.9 5.09997 1848 4.49997C1840.1 3.89997 1839 3.59997 1839 1.89997C1839 0.0999733 1837.6 -2.67178e-05 1797.5 -2.67178e-05C1757.6 -2.67178e-05 1756 0.0999733 1756 1.89997Z" fill="white"/>
</svg>
