<svg width="25" height="25" fill="#77875F" viewBox="0 0 25 25" xmlns="http://www.w3.org/2000/svg">
    <g clip-path="url(#clip0)">
        <path
            d="M24.2676 3.71094H13.9648C13.5649 3.71094 13.1899 3.8189 12.8665 4.0064C12.1096 2.11826 10.2608 0.78125 8.10547 0.78125H3.66211C3.25762 0.78125 2.92969 1.10918 2.92969 1.51367V3.71094H0.732422C0.32793 3.71094 0 4.03887 0 4.44336V22.0215C0 22.426 0.32793 22.7539 0.732422 22.7539H11.0352C11.439 22.7539 11.7676 23.0825 11.7676 23.4863C11.7676 23.8908 12.0955 24.2188 12.5 24.2188C12.9045 24.2188 13.2324 23.8908 13.2324 23.4863C13.2324 23.0825 13.561 22.7539 13.9648 22.7539H24.2676C24.6721 22.7539 25 22.426 25 22.0215V4.44336C25 4.03887 24.6721 3.71094 24.2676 3.71094ZM4.39453 2.24609H8.10547C10.1248 2.24609 11.7676 3.88892 11.7676 5.9082V19.9021C10.8363 18.9508 9.53877 18.3594 8.10547 18.3594H4.39453V2.24609ZM1.46484 5.17578H2.92969V19.0918C2.92969 19.4963 3.25762 19.8242 3.66211 19.8242H8.10547C9.30098 19.8242 10.3644 20.4002 11.0332 21.2891H1.46484V5.17578ZM23.5352 21.2891H13.9648C13.7081 21.2891 13.4617 21.3337 13.2324 21.415V5.9082C13.2324 5.50435 13.561 5.17578 13.9648 5.17578H23.5352V21.2891Z" />
        <path
            d="M15.4297 11.0352H21.3379C21.7424 11.0352 22.0703 10.7072 22.0703 10.3027C22.0703 9.89824 21.7424 9.57031 21.3379 9.57031H15.4297C15.0252 9.57031 14.6973 9.89824 14.6973 10.3027C14.6973 10.7072 15.0252 11.0352 15.4297 11.0352Z" />
        <path
            d="M15.4297 8.10547H21.3379C21.7424 8.10547 22.0703 7.77754 22.0703 7.37305C22.0703 6.96855 21.7424 6.64062 21.3379 6.64062H15.4297C15.0252 6.64062 14.6973 6.96855 14.6973 7.37305C14.6973 7.77754 15.0252 8.10547 15.4297 8.10547Z" />
        <path
            d="M15.4297 13.9648H21.3379C21.7424 13.9648 22.0703 13.6369 22.0703 13.2324C22.0703 12.8279 21.7424 12.5 21.3379 12.5H15.4297C15.0252 12.5 14.6973 12.8279 14.6973 13.2324C14.6973 13.6369 15.0252 13.9648 15.4297 13.9648Z" />
        <path
            d="M15.4297 16.8945H21.3379C21.7424 16.8945 22.0703 16.5666 22.0703 16.1621C22.0703 15.7576 21.7424 15.4297 21.3379 15.4297H15.4297C15.0252 15.4297 14.6973 15.7576 14.6973 16.1621C14.6973 16.5666 15.0252 16.8945 15.4297 16.8945Z" />
        <path
            d="M15.4297 19.8242H21.3379C21.7424 19.8242 22.0703 19.4963 22.0703 19.0918C22.0703 18.6873 21.7424 18.3594 21.3379 18.3594H15.4297C15.0252 18.3594 14.6973 18.6873 14.6973 19.0918C14.6973 19.4963 15.0252 19.8242 15.4297 19.8242Z" />
    </g>
    <defs>
        <clipPath id="clip0">
            <rect width="25" height="25" fill="white" />
        </clipPath>
    </defs>
</svg>