<svg width="25" height="25" fill="#77875F" viewBox="0 0 25 25" xmlns="http://www.w3.org/2000/svg">
    <g clip-path="url(#clip0)">
        <path
            d="M24.1848 23.3696H22.0108C21.2451 23.3696 20.5137 23.0039 20.0543 22.3913L17.1195 18.4783C16.8862 18.1671 16.6105 17.8945 16.3042 17.6653C16.3042 17.6646 16.3043 17.6638 16.3043 17.663V16.0326C16.3043 14.6841 15.2072 13.587 13.8586 13.587H13.0435C13.0435 13.285 13.0435 6.82647 13.0435 6.52173H13.8587C14.6384 6.52173 14.9735 5.52363 14.3478 5.05435L7.82607 0.163037C7.53623 -0.0543457 7.13765 -0.0543457 6.8478 0.163037L0.326074 5.05435C-0.297656 5.52217 0.0331542 6.52173 0.815186 6.52173H1.63042C1.63042 7.02007 1.63042 23.1952 1.63042 23.3695H0.815234C0.36499 23.3696 0 23.7346 0 24.1848C0 24.635 0.36499 25 0.815234 25H4.07612C4.52632 25 4.89136 24.635 4.89136 24.1848C4.89136 23.7345 4.52637 23.3695 4.07612 23.3695H3.26089V18.4783H11.4131V23.3696H10.5979C10.1477 23.3696 9.78262 23.7346 9.78262 24.1848C9.78262 24.6351 10.1476 25 10.5978 25H13.8587C14.3089 25 14.6739 24.635 14.6739 24.1848C14.6739 23.7345 14.3089 23.3695 13.8587 23.3695H13.0435V18.4783C13.3421 18.4783 13.5478 18.4783 13.8587 18.4783C14.6244 18.4783 15.3558 18.844 15.8152 19.4565L18.75 23.3696C19.5157 24.3905 20.7347 25 22.0109 25H24.1848C24.635 25 25 24.635 25 24.1848C25 23.7345 24.635 23.3696 24.1848 23.3696ZM4.89131 16.8478H3.26089V11.9565H4.89131V16.8478ZM8.1522 16.8478H6.52178V11.9565H8.1522V16.8478ZM11.413 16.8478H9.78262V11.9565H11.413C11.413 12.475 11.413 16.3294 11.413 16.8478ZM11.413 10.3261H3.26089V6.52173H11.4131V10.3261H11.413ZM3.26089 4.89131L7.33696 1.83423L11.413 4.89131H3.26089ZM14.6739 16.9313C14.4075 16.8764 14.1345 16.8478 13.8587 16.8478C13.5354 16.8478 13.3752 16.8478 13.0435 16.8478V15.2174H13.8587C14.3082 15.2174 14.6739 15.5831 14.6739 16.0326V16.9313Z" />
    </g>
    <defs>
        <clipPath id="clip0">
            <rect width="25" height="25" fill="white" />
        </clipPath>
    </defs>
</svg>