<svg width="25" height="25" fill="#77875F" viewBox="0 0 25 25" xmlns="http://www.w3.org/2000/svg">
    <g clip-path="url(#clip0)">
        <path
            d="M0.732422 13.965H1.57681L2.53164 19.694C2.8272 21.4671 4.34639 22.754 6.14395 22.754H18.8073C20.6037 22.754 22.1776 21.4385 22.4684 19.694L23.4232 13.965H24.2676C24.6721 13.965 25 13.637 25 13.2326V10.3029C25 9.89838 24.6721 9.57045 24.2676 9.57045H18.7741L14.5929 2.60184C14.3848 2.25497 13.935 2.14242 13.588 2.35062C13.2412 2.55873 13.1287 3.00863 13.3368 3.3555L17.0658 9.57049H7.93423L11.6632 3.3555C11.8714 3.00863 11.7589 2.55878 11.412 2.35062C11.065 2.14247 10.6152 2.25502 10.4071 2.60184L6.22598 9.57045H0.732422C0.32793 9.57045 0 9.89838 0 10.3029V13.2326C0 13.6371 0.32793 13.965 0.732422 13.965ZM21.0235 19.4532C20.849 20.4999 19.8962 21.2892 18.8073 21.2892H6.14395C5.06538 21.2892 4.15386 20.5171 3.97651 19.4532L3.06187 13.965H21.9381L21.0235 19.4532ZM1.46484 11.0353H23.5352V12.5001H1.46484V11.0353Z" />
        <path
            d="M7.13123 19.1529C7.16453 19.5525 7.51517 19.8557 7.92196 19.822C8.32503 19.7884 8.62459 19.4344 8.591 19.0312L8.34686 16.1015C8.31326 15.6984 7.96024 15.3992 7.55613 15.4325C7.15306 15.466 6.8535 15.8201 6.88709 16.2232L7.13123 19.1529Z" />
        <path
            d="M17.0776 19.8218C17.485 19.8556 17.8351 19.5518 17.8684 19.1527L18.1125 16.223C18.1461 15.8199 17.8465 15.4659 17.4434 15.4323C17.04 15.3987 16.6863 15.6982 16.6527 16.1014L16.4086 19.031C16.375 19.4341 16.6745 19.7882 17.0776 19.8218Z" />
        <path
            d="M12.5 19.8242C12.9045 19.8242 13.2324 19.4963 13.2324 19.0918V16.1621C13.2324 15.7576 12.9045 15.4297 12.5 15.4297C12.0955 15.4297 11.7676 15.7576 11.7676 16.1621V19.0918C11.7676 19.4963 12.0955 19.8242 12.5 19.8242Z" />
    </g>
    <defs>
        <clipPath id="clip0">
            <rect width="25" height="25" fill="white" />
        </clipPath>
    </defs>
</svg>