<svg width="24" height="24" fill="#77875F" viewBox="0 0 24 24" xmlns="http://www.w3.org/2000/svg">
    <path
        d="M8.50168 7.01262L11.2647 11.2348C11.4272 11.4829 11.7037 11.6324 12.0001 11.6324C12.2968 11.6324 12.5733 11.4829 12.7355 11.2348L15.4988 7.01262C15.5169 6.98492 15.5334 6.95631 15.5483 6.92679C16.1743 5.6835 16.1122 4.23399 15.3823 3.04907C14.6533 1.86598 13.389 1.15942 12.0001 1.15942C10.6113 1.15942 9.34694 1.86598 8.61818 3.04907C7.88805 4.23399 7.82602 5.6835 8.45201 6.92679C8.46689 6.95631 8.48337 6.98492 8.50168 7.01262ZM12.0001 2.91724C12.7742 2.91724 13.4792 3.31137 13.8857 3.97101C14.2851 4.61966 14.3263 5.41022 13.9985 6.09503L12.0001 9.14854L10.0018 6.09503C9.67401 5.41022 9.71521 4.61966 10.1146 3.97101C10.5211 3.31137 11.2261 2.91724 12.0001 2.91724V2.91724Z" />
    <path
        d="M12.8788 17.0687V13.4001C12.8788 12.9147 12.4854 12.5212 11.9999 12.5212C11.5145 12.5212 11.121 12.9147 11.121 13.4001V17.0687C10.0338 17.4365 9.24878 18.4664 9.24878 19.677C9.24878 21.1952 10.4829 22.4305 11.9999 22.4305C13.517 22.4305 14.7511 21.1952 14.7511 19.677C14.7511 18.4664 13.966 17.4365 12.8788 17.0687ZM11.9999 20.6726C11.4522 20.6726 11.0066 20.2259 11.0066 19.677C11.0066 19.1281 11.4522 18.6816 11.9999 18.6816C12.5477 18.6816 12.9933 19.1281 12.9933 19.677C12.9933 20.2259 12.5477 20.6726 11.9999 20.6726V20.6726Z" />
    <path
        d="M10.2658 12.9921C10.6938 12.7633 10.8554 12.2307 10.6265 11.8026C10.3976 11.3744 9.86526 11.213 9.43702 11.4419L6.2075 13.1684C5.90263 12.8804 5.53367 12.6644 5.121 12.539C4.41787 12.3252 3.67332 12.3982 3.0249 12.7447C1.68708 13.4597 1.17988 15.1308 1.89399 16.4698C2.24006 17.1189 2.81822 17.5941 3.5218 17.8078C3.78593 17.8882 4.05601 17.928 4.32449 17.928C4.77058 17.928 5.21255 17.8181 5.61721 17.6021C6.68426 17.0317 7.22213 15.8529 7.03399 14.7197L10.2658 12.9921ZM4.78843 16.0516C4.55474 16.1766 4.28649 16.2029 4.03289 16.126C3.77883 16.0489 3.57009 15.8772 3.4449 15.6426C3.18649 15.1581 3.36982 14.5533 3.85345 14.2949C3.99948 14.2169 4.15878 14.1773 4.31968 14.1773C4.41673 14.1773 4.514 14.1917 4.60945 14.2206C4.86328 14.2979 5.07202 14.4696 5.19699 14.704C5.45539 15.1887 5.27206 15.7932 4.78843 16.0516Z" />
    <path
        d="M20.9752 12.7447C20.3267 12.3979 19.5822 12.3249 18.8791 12.5389C18.4664 12.6643 18.0974 12.8804 17.7925 13.1683L14.563 11.4419C14.1348 11.213 13.6022 11.3746 13.3735 11.8026C13.1446 12.2306 13.3062 12.7632 13.7342 12.9921L16.9663 14.7197C16.7779 15.8529 17.316 17.0314 18.3828 17.602C18.7875 17.8183 19.2295 17.9279 19.6756 17.9279C19.944 17.9279 20.2141 17.8881 20.4783 17.8078C21.1818 17.5942 21.76 17.1188 22.1061 16.4697C22.8202 15.1308 22.3127 13.4597 20.9752 12.7447V12.7447ZM20.5552 15.6425C20.43 15.8772 20.2212 16.0488 19.9672 16.1259C19.7136 16.2029 19.4453 16.1765 19.2116 16.0516C18.728 15.7932 18.5447 15.1887 18.8031 14.7039C18.928 14.4695 19.1368 14.2979 19.3906 14.2205C19.4858 14.1917 19.5833 14.1772 19.6804 14.1772C19.841 14.1772 20.0006 14.2168 20.1464 14.2949C20.6302 14.5533 20.8133 15.158 20.5552 15.6425V15.6425Z" />
</svg>