<svg width="25" height="25" fill="#77875F" viewBox="0 0 25 25" xmlns="http://www.w3.org/2000/svg">
    <g clip-path="url(#clip0)">
        <path
            d="M11.9817 23.4681L2.10147 13.5878C-0.700775 10.7855 -0.700824 6.22505 2.10137 3.42168C3.4585 2.0645 5.26353 1.31714 7.18399 1.31714C9.90674 1.31714 11.5391 2.69106 12.5017 3.64775C13.4752 2.68853 15.1186 1.31714 17.8144 1.31714C19.7356 1.31714 21.541 2.0645 22.8981 3.42158C22.8981 3.42163 22.8982 3.42163 22.8982 3.42168C25.7003 6.22505 25.7003 10.7855 22.8981 13.5878L13.0178 23.4681C12.7316 23.7542 12.2678 23.7541 11.9817 23.4681ZM7.18399 2.78237C5.65494 2.78237 4.21783 3.37734 3.13751 4.45767C0.906451 6.6896 0.906451 10.3207 3.13751 12.5518L12.4998 21.914L21.862 12.5518C24.093 10.3207 24.093 6.68965 21.8619 4.45762C20.7816 3.37739 19.3442 2.78242 17.8144 2.78242C15.2078 2.78242 13.8843 4.34175 13.0182 5.20859C12.7321 5.49512 12.2675 5.49512 11.9813 5.20859C11.1968 4.42236 9.83409 2.78237 7.18399 2.78237Z" />
        <path
            d="M13.9648 16.9467H11.0344C10.6298 16.9467 10.3018 16.6187 10.3018 16.2141V14.134H8.22212C7.81753 14.134 7.4895 13.806 7.4895 13.4014V10.4709C7.4895 10.0663 7.81753 9.73828 8.22212 9.73828H10.3018V7.65864C10.3018 7.25405 10.6298 6.92603 11.0344 6.92603H13.9648C14.3694 6.92603 14.6975 7.25405 14.6975 7.65864V9.73828H16.7771C17.1817 9.73828 17.5097 10.0663 17.5097 10.4709V13.4014C17.5097 13.806 17.1817 14.134 16.7771 14.134H14.6975V16.2141C14.6975 16.6187 14.3694 16.9467 13.9648 16.9467ZM11.767 15.4815H13.2322V13.4014C13.2322 12.9968 13.5603 12.6687 13.9648 12.6687H16.0445V11.2035H13.9648C13.5603 11.2035 13.2322 10.8755 13.2322 10.4709V8.39126H11.767V10.4709C11.767 10.8755 11.439 11.2035 11.0344 11.2035H8.95474V12.6687H11.0344C11.439 12.6687 11.767 12.9968 11.767 13.4014V15.4815Z" />
    </g>
    <defs>
        <clipPath id="clip0">
            <rect width="25" height="25" fill="white" />
        </clipPath>
    </defs>
</svg>