<svg width="25" height="25" fill="#77875F" viewBox="0 0 25 25" xmlns="http://www.w3.org/2000/svg">
    <g clip-path="url(#clip0)">
        <path
            d="M22.2693 12.5056H22.0683C20.9619 8.38081 17.2614 5.30947 12.8338 5.16182C11.9681 4.91372 11.3684 4.05225 11.3684 3.04355C11.3684 2.17305 12.0749 1.46479 12.9432 1.46479C13.5571 1.46479 14.0566 1.96567 14.0566 2.5813C14.0566 2.98579 14.3845 3.31372 14.789 3.31372C15.1935 3.31372 15.5214 2.98579 15.5214 2.5813C15.5214 1.15801 14.3648 0 12.9432 0C11.2671 0 9.90356 1.36533 9.90356 3.0436C9.90356 3.90269 10.179 4.7001 10.6505 5.32974C6.91113 6.03994 3.90913 8.86162 2.93169 12.5056H2.73071C1.225 12.5056 0 13.7298 0 15.2345C0 16.7392 1.225 17.9634 2.73071 17.9634H3.02119C4.25815 22.0315 8.03921 25 12.5 25C16.9608 25 20.7418 22.0315 21.9788 17.9634H22.2693C23.775 17.9634 25 16.7392 25 15.2345C25 13.7297 23.775 12.5056 22.2693 12.5056ZM1.46484 15.2345C1.46484 14.5629 1.99224 14.0121 2.65522 13.9729C2.61489 14.3358 2.59346 14.7043 2.59346 15.0778C2.59346 15.5599 2.62866 16.0338 2.69531 16.4977C2.01367 16.4788 1.46484 15.9196 1.46484 15.2345ZM12.5 23.5352C7.84521 23.5352 4.0583 19.7412 4.0583 15.0778C4.0583 10.4144 7.84521 6.62046 12.5 6.62046C17.1548 6.62046 20.9417 10.4144 20.9417 15.0778C20.9417 19.7413 17.1548 23.5352 12.5 23.5352ZM22.3047 16.4977C22.3713 16.0338 22.4065 15.5599 22.4065 15.0778C22.4065 14.7043 22.3851 14.3358 22.3448 13.9729C23.0078 14.0121 23.5352 14.5628 23.5352 15.2345C23.5352 15.9196 22.9863 16.4788 22.3047 16.4977Z" />
        <path
            d="M10.658 15.0694C10.6599 14.4189 10.4038 13.8423 9.93706 13.4458C9.53575 13.105 9.00459 12.9164 8.44146 12.9148C8.43902 12.9148 8.43667 12.9148 8.43423 12.9148C7.87378 12.9148 7.34434 13.1002 6.94287 13.4374C6.47388 13.8312 6.2145 14.4063 6.21265 15.0568C6.21153 15.4613 6.53848 15.7901 6.94297 15.7913C7.34785 15.7938 7.67637 15.4655 7.67749 15.061C7.67779 14.9471 7.71577 14.3797 8.4334 14.3797H8.43731C9.1586 14.3817 9.19356 14.9512 9.19322 15.0653C9.19209 15.4698 9.51905 15.7986 9.92359 15.7998H9.92569C10.3292 15.7997 10.6568 15.4731 10.658 15.0694Z" />
        <path
            d="M17.7586 13.2287C17.0376 12.8097 16.1042 12.8071 15.3809 13.222C14.7228 13.5994 14.344 14.2682 14.3418 15.0567C14.3407 15.4612 14.6676 15.7901 15.0722 15.7913H15.0743C15.4778 15.7913 15.8055 15.4647 15.8066 15.0609C15.8074 14.7951 15.9065 14.6092 16.1097 14.4927C16.3746 14.3407 16.7585 14.3418 17.0226 14.4953C17.225 14.6129 17.3231 14.7994 17.3224 15.0652C17.3212 15.4697 17.6482 15.7986 18.0527 15.7998H18.0548C18.4583 15.7998 18.7861 15.4732 18.7872 15.0694C18.7895 14.2808 18.4145 13.6099 17.7586 13.2287Z" />
        <path
            d="M14.1133 19.0405C13.7088 19.0405 13.3809 19.3685 13.3809 19.7729C13.3809 20.2576 12.9859 20.652 12.5004 20.652C12.0148 20.652 11.6199 20.2576 11.6199 19.7729C11.6199 19.3685 11.2919 19.0405 10.8875 19.0405C10.483 19.0405 10.155 19.3685 10.155 19.7729C10.155 21.0654 11.2071 22.1168 12.5004 22.1168C13.7937 22.1168 14.8458 21.0654 14.8458 19.7729C14.8458 19.3685 14.5178 19.0405 14.1133 19.0405Z" />
    </g>
    <defs>
        <clipPath id="clip0">
            <rect width="25" height="25" fill="white" />
        </clipPath>
    </defs>
</svg>