<svg width="50" height="69" viewBox="0 0 50 69" fill="none" xmlns="http://www.w3.org/2000/svg">
<path d="M8.01086e-05 24.8857C8.01086e-05 38.6297 24.8858 69 24.8858 69C24.8858 69 49.7715 38.6297 49.7715 24.8857C49.7715 11.1417 38.6298 0 24.8858 0C11.1418 0 8.01086e-05 11.1417 8.01086e-05 24.8857Z" fill="#77875F"/>
<g clip-path="url(#clip0)">
<path d="M34.2693 22.5056H34.0683C32.9619 18.3808 29.2614 15.3095 24.8338 15.1618C23.9681 14.9137 23.3684 14.0522 23.3684 13.0436C23.3684 12.173 24.0749 11.4648 24.9432 11.4648C25.5571 11.4648 26.0566 11.9657 26.0566 12.5813C26.0566 12.9858 26.3845 13.3137 26.789 13.3137C27.1935 13.3137 27.5214 12.9858 27.5214 12.5813C27.5214 11.158 26.3648 10 24.9432 10C23.2671 10 21.9036 11.3653 21.9036 13.0436C21.9036 13.9027 22.179 14.7001 22.6505 15.3297C18.9111 16.0399 15.9091 18.8616 14.9317 22.5056H14.7307C13.225 22.5056 12 23.7298 12 25.2345C12 26.7392 13.225 27.9634 14.7307 27.9634H15.0212C16.2582 32.0315 20.0392 35 24.5 35C28.9608 35 32.7418 32.0315 33.9788 27.9634H34.2693C35.775 27.9634 37 26.7392 37 25.2345C37 23.7297 35.775 22.5056 34.2693 22.5056ZM13.4648 25.2345C13.4648 24.5629 13.9922 24.0121 14.6552 23.9729C14.6149 24.3358 14.5935 24.7043 14.5935 25.0778C14.5935 25.5599 14.6287 26.0338 14.6953 26.4977C14.0137 26.4788 13.4648 25.9196 13.4648 25.2345ZM24.5 33.5352C19.8452 33.5352 16.0583 29.7412 16.0583 25.0778C16.0583 20.4144 19.8452 16.6205 24.5 16.6205C29.1548 16.6205 32.9417 20.4144 32.9417 25.0778C32.9417 29.7413 29.1548 33.5352 24.5 33.5352ZM34.3047 26.4977C34.3713 26.0338 34.4065 25.5599 34.4065 25.0778C34.4065 24.7043 34.3851 24.3358 34.3448 23.9729C35.0078 24.0121 35.5352 24.5628 35.5352 25.2345C35.5352 25.9196 34.9863 26.4788 34.3047 26.4977Z" fill="white"/>
<path d="M34.2693 22.5056H34.0683C32.9619 18.3808 29.2614 15.3095 24.8338 15.1618C23.9681 14.9137 23.3684 14.0522 23.3684 13.0436C23.3684 12.173 24.0749 11.4648 24.9432 11.4648C25.5571 11.4648 26.0566 11.9657 26.0566 12.5813C26.0566 12.9858 26.3845 13.3137 26.789 13.3137C27.1935 13.3137 27.5214 12.9858 27.5214 12.5813C27.5214 11.158 26.3648 10 24.9432 10C23.2671 10 21.9036 11.3653 21.9036 13.0436C21.9036 13.9027 22.179 14.7001 22.6505 15.3297C18.9111 16.0399 15.9091 18.8616 14.9317 22.5056H14.7307C13.225 22.5056 12 23.7298 12 25.2345C12 26.7392 13.225 27.9634 14.7307 27.9634H15.0212C16.2582 32.0315 20.0392 35 24.5 35C28.9608 35 32.7418 32.0315 33.9788 27.9634H34.2693C35.775 27.9634 37 26.7392 37 25.2345C37 23.7297 35.775 22.5056 34.2693 22.5056ZM13.4648 25.2345C13.4648 24.5629 13.9922 24.0121 14.6552 23.9729C14.6149 24.3358 14.5935 24.7043 14.5935 25.0778C14.5935 25.5599 14.6287 26.0338 14.6953 26.4977C14.0137 26.4788 13.4648 25.9196 13.4648 25.2345ZM24.5 33.5352C19.8452 33.5352 16.0583 29.7412 16.0583 25.0778C16.0583 20.4144 19.8452 16.6205 24.5 16.6205C29.1548 16.6205 32.9417 20.4144 32.9417 25.0778C32.9417 29.7413 29.1548 33.5352 24.5 33.5352ZM34.3047 26.4977C34.3713 26.0338 34.4065 25.5599 34.4065 25.0778C34.4065 24.7043 34.3851 24.3358 34.3448 23.9729C35.0078 24.0121 35.5352 24.5628 35.5352 25.2345C35.5352 25.9196 34.9863 26.4788 34.3047 26.4977Z" fill="url(#paint0_linear)"/>
<path d="M22.658 25.0694C22.6599 24.4189 22.4038 23.8423 21.9371 23.4458C21.5357 23.105 21.0046 22.9164 20.4415 22.9148C20.439 22.9148 20.4367 22.9148 20.4342 22.9148C19.8738 22.9148 19.3443 23.1002 18.9429 23.4374C18.4739 23.8312 18.2145 24.4063 18.2126 25.0568C18.2115 25.4613 18.5385 25.7901 18.943 25.7913C19.3479 25.7938 19.6764 25.4655 19.6775 25.061C19.6778 24.9471 19.7158 24.3797 20.4334 24.3797H20.4373C21.1586 24.3817 21.1936 24.9512 21.1932 25.0653C21.1921 25.4698 21.519 25.7986 21.9236 25.7998H21.9257C22.3292 25.7997 22.6568 25.4731 22.658 25.0694Z" fill="white"/>
<path d="M22.658 25.0694C22.6599 24.4189 22.4038 23.8423 21.9371 23.4458C21.5357 23.105 21.0046 22.9164 20.4415 22.9148C20.439 22.9148 20.4367 22.9148 20.4342 22.9148C19.8738 22.9148 19.3443 23.1002 18.9429 23.4374C18.4739 23.8312 18.2145 24.4063 18.2126 25.0568C18.2115 25.4613 18.5385 25.7901 18.943 25.7913C19.3479 25.7938 19.6764 25.4655 19.6775 25.061C19.6778 24.9471 19.7158 24.3797 20.4334 24.3797H20.4373C21.1586 24.3817 21.1936 24.9512 21.1932 25.0653C21.1921 25.4698 21.519 25.7986 21.9236 25.7998H21.9257C22.3292 25.7997 22.6568 25.4731 22.658 25.0694Z" fill="url(#paint1_linear)"/>
<path d="M29.7586 23.2287C29.0376 22.8097 28.1042 22.8071 27.3809 23.222C26.7228 23.5994 26.344 24.2682 26.3418 25.0567C26.3407 25.4612 26.6676 25.7901 27.0722 25.7913H27.0743C27.4778 25.7913 27.8055 25.4647 27.8066 25.0609C27.8074 24.7951 27.9065 24.6092 28.1097 24.4927C28.3746 24.3407 28.7585 24.3418 29.0226 24.4953C29.225 24.6129 29.3231 24.7994 29.3224 25.0652C29.3212 25.4697 29.6482 25.7986 30.0527 25.7998H30.0548C30.4583 25.7998 30.7861 25.4732 30.7872 25.0694C30.7895 24.2808 30.4145 23.6099 29.7586 23.2287Z" fill="white"/>
<path d="M29.7586 23.2287C29.0376 22.8097 28.1042 22.8071 27.3809 23.222C26.7228 23.5994 26.344 24.2682 26.3418 25.0567C26.3407 25.4612 26.6676 25.7901 27.0722 25.7913H27.0743C27.4778 25.7913 27.8055 25.4647 27.8066 25.0609C27.8074 24.7951 27.9065 24.6092 28.1097 24.4927C28.3746 24.3407 28.7585 24.3418 29.0226 24.4953C29.225 24.6129 29.3231 24.7994 29.3224 25.0652C29.3212 25.4697 29.6482 25.7986 30.0527 25.7998H30.0548C30.4583 25.7998 30.7861 25.4732 30.7872 25.0694C30.7895 24.2808 30.4145 23.6099 29.7586 23.2287Z" fill="url(#paint2_linear)"/>
<path d="M26.1133 29.0405C25.7088 29.0405 25.3809 29.3685 25.3809 29.7729C25.3809 30.2576 24.9859 30.652 24.5004 30.652C24.0148 30.652 23.6199 30.2576 23.6199 29.7729C23.6199 29.3685 23.2919 29.0405 22.8875 29.0405C22.483 29.0405 22.155 29.3685 22.155 29.7729C22.155 31.0654 23.2071 32.1168 24.5004 32.1168C25.7937 32.1168 26.8458 31.0654 26.8458 29.7729C26.8458 29.3685 26.5178 29.0405 26.1133 29.0405Z" fill="white"/>
<path d="M26.1133 29.0405C25.7088 29.0405 25.3809 29.3685 25.3809 29.7729C25.3809 30.2576 24.9859 30.652 24.5004 30.652C24.0148 30.652 23.6199 30.2576 23.6199 29.7729C23.6199 29.3685 23.2919 29.0405 22.8875 29.0405C22.483 29.0405 22.155 29.3685 22.155 29.7729C22.155 31.0654 23.2071 32.1168 24.5004 32.1168C25.7937 32.1168 26.8458 31.0654 26.8458 29.7729C26.8458 29.3685 26.5178 29.0405 26.1133 29.0405Z" fill="url(#paint3_linear)"/>
</g>
<defs>
<linearGradient id="paint0_linear" x1="24.5" y1="10" x2="24.5" y2="35" gradientUnits="userSpaceOnUse">
<stop stop-color="white"/>
<stop offset="1" stop-color="white" stop-opacity="0"/>
</linearGradient>
<linearGradient id="paint1_linear" x1="20.4353" y1="22.9148" x2="20.4353" y2="25.7998" gradientUnits="userSpaceOnUse">
<stop stop-color="white"/>
<stop offset="1" stop-color="white" stop-opacity="0"/>
</linearGradient>
<linearGradient id="paint2_linear" x1="28.5645" y1="22.9126" x2="28.5645" y2="25.7998" gradientUnits="userSpaceOnUse">
<stop stop-color="white"/>
<stop offset="1" stop-color="white" stop-opacity="0"/>
</linearGradient>
<linearGradient id="paint3_linear" x1="24.5004" y1="29.0405" x2="24.5004" y2="32.1168" gradientUnits="userSpaceOnUse">
<stop stop-color="white"/>
<stop offset="1" stop-color="white" stop-opacity="0"/>
</linearGradient>
<clipPath id="clip0">
<rect width="25" height="25" fill="white" transform="translate(12 10)"/>
</clipPath>
</defs>
</svg>
