<svg width="50" height="69" viewBox="0 0 50 69" fill="none" xmlns="http://www.w3.org/2000/svg">
    <path
        d="M8.01086e-05 24.8857C8.01086e-05 38.6297 24.8858 69 24.8858 69C24.8858 69 49.7715 38.6297 49.7715 24.8857C49.7715 11.1417 38.6298 0 24.8858 0C11.1418 0 8.01086e-05 11.1417 8.01086e-05 24.8857Z"
        fill="#77875F" />
    <g clip-path="url(#clip0)">
        <path
            d="M38.1848 34.3696H36.0108C35.2451 34.3696 34.5137 34.0039 34.0543 33.3913L31.1195 29.4783C30.8862 29.1671 30.6105 28.8945 30.3042 28.6653C30.3042 28.6646 30.3043 28.6638 30.3043 28.663V27.0326C30.3043 25.6841 29.2072 24.587 27.8586 24.587H27.0435C27.0435 24.285 27.0435 17.8265 27.0435 17.5217H27.8587C28.6384 17.5217 28.9735 16.5236 28.3478 16.0543L21.8261 11.163C21.5362 10.9457 21.1376 10.9457 20.8478 11.163L14.3261 16.0543C13.7023 16.5222 14.0332 17.5217 14.8152 17.5217H15.6304C15.6304 18.0201 15.6304 34.1952 15.6304 34.3695H14.8152C14.365 34.3696 14 34.7346 14 35.1848C14 35.635 14.365 36 14.8152 36H18.0761C18.5263 36 18.8914 35.635 18.8914 35.1848C18.8914 34.7345 18.5264 34.3695 18.0761 34.3695H17.2609V29.4783H25.4131V34.3696H24.5979C24.1477 34.3696 23.7826 34.7346 23.7826 35.1848C23.7826 35.6351 24.1476 36 24.5978 36H27.8587C28.3089 36 28.6739 35.635 28.6739 35.1848C28.6739 34.7345 28.3089 34.3695 27.8587 34.3695H27.0435V29.4783C27.3421 29.4783 27.5478 29.4783 27.8587 29.4783C28.6244 29.4783 29.3558 29.844 29.8152 30.4565L32.75 34.3696C33.5157 35.3905 34.7347 36 36.0109 36H38.1848C38.635 36 39 35.635 39 35.1848C39 34.7345 38.635 34.3696 38.1848 34.3696ZM18.8913 27.8478H17.2609V22.9565H18.8913V27.8478ZM22.1522 27.8478H20.5218V22.9565H22.1522V27.8478ZM25.413 27.8478H23.7826V22.9565H25.413C25.413 23.475 25.413 27.3294 25.413 27.8478ZM25.413 21.3261H17.2609V17.5217H25.4131V21.3261H25.413ZM17.2609 15.8913L21.337 12.8342L25.413 15.8913H17.2609ZM28.6739 27.9313C28.4075 27.8764 28.1345 27.8478 27.8587 27.8478C27.5354 27.8478 27.3752 27.8478 27.0435 27.8478V26.2174H27.8587C28.3082 26.2174 28.6739 26.5831 28.6739 27.0326V27.9313Z"
            fill="white" />
        <path
            d="M38.1848 34.3696H36.0108C35.2451 34.3696 34.5137 34.0039 34.0543 33.3913L31.1195 29.4783C30.8862 29.1671 30.6105 28.8945 30.3042 28.6653C30.3042 28.6646 30.3043 28.6638 30.3043 28.663V27.0326C30.3043 25.6841 29.2072 24.587 27.8586 24.587H27.0435C27.0435 24.285 27.0435 17.8265 27.0435 17.5217H27.8587C28.6384 17.5217 28.9735 16.5236 28.3478 16.0543L21.8261 11.163C21.5362 10.9457 21.1376 10.9457 20.8478 11.163L14.3261 16.0543C13.7023 16.5222 14.0332 17.5217 14.8152 17.5217H15.6304C15.6304 18.0201 15.6304 34.1952 15.6304 34.3695H14.8152C14.365 34.3696 14 34.7346 14 35.1848C14 35.635 14.365 36 14.8152 36H18.0761C18.5263 36 18.8914 35.635 18.8914 35.1848C18.8914 34.7345 18.5264 34.3695 18.0761 34.3695H17.2609V29.4783H25.4131V34.3696H24.5979C24.1477 34.3696 23.7826 34.7346 23.7826 35.1848C23.7826 35.6351 24.1476 36 24.5978 36H27.8587C28.3089 36 28.6739 35.635 28.6739 35.1848C28.6739 34.7345 28.3089 34.3695 27.8587 34.3695H27.0435V29.4783C27.3421 29.4783 27.5478 29.4783 27.8587 29.4783C28.6244 29.4783 29.3558 29.844 29.8152 30.4565L32.75 34.3696C33.5157 35.3905 34.7347 36 36.0109 36H38.1848C38.635 36 39 35.635 39 35.1848C39 34.7345 38.635 34.3696 38.1848 34.3696ZM18.8913 27.8478H17.2609V22.9565H18.8913V27.8478ZM22.1522 27.8478H20.5218V22.9565H22.1522V27.8478ZM25.413 27.8478H23.7826V22.9565H25.413C25.413 23.475 25.413 27.3294 25.413 27.8478ZM25.413 21.3261H17.2609V17.5217H25.4131V21.3261H25.413ZM17.2609 15.8913L21.337 12.8342L25.413 15.8913H17.2609ZM28.6739 27.9313C28.4075 27.8764 28.1345 27.8478 27.8587 27.8478C27.5354 27.8478 27.3752 27.8478 27.0435 27.8478V26.2174H27.8587C28.3082 26.2174 28.6739 26.5831 28.6739 27.0326V27.9313Z"
            fill="url(#paint0_linear)" />
    </g>
    <defs>
        <linearGradient id="paint0_linear" x1="26.5" y1="11" x2="26.5" y2="36" gradientUnits="userSpaceOnUse">
            <stop stop-color="white" />
            <stop offset="1" stop-color="white" stop-opacity="0" />
        </linearGradient>
        <clipPath id="clip0">
            <rect width="25" height="25" fill="white" transform="translate(14 11)" />
        </clipPath>
    </defs>
</svg>