<svg width="50" height="69" viewBox="0 0 50 69" fill="none" xmlns="http://www.w3.org/2000/svg">
<path d="M8.01086e-05 24.8857C8.01086e-05 38.6297 24.8858 69 24.8858 69C24.8858 69 49.7715 38.6297 49.7715 24.8857C49.7715 11.1417 38.6298 0 24.8858 0C11.1418 0 8.01086e-05 11.1417 8.01086e-05 24.8857Z" fill="#77875F"/>
<g clip-path="url(#clip0)">
<path d="M23.9817 40.4681L14.1015 30.5878C11.2992 27.7855 11.2992 23.225 14.1014 20.4217C15.4585 19.0645 17.2635 18.3171 19.184 18.3171C21.9067 18.3171 23.5391 19.6911 24.5017 20.6478C25.4752 19.6885 27.1186 18.3171 29.8144 18.3171C31.7356 18.3171 33.541 19.0645 34.8981 20.4216C34.8981 20.4216 34.8982 20.4216 34.8982 20.4217C37.7003 23.225 37.7003 27.7855 34.8981 30.5878L25.0178 40.4681C24.7316 40.7542 24.2678 40.7541 23.9817 40.4681ZM19.184 19.7824C17.6549 19.7824 16.2178 20.3773 15.1375 21.4577C12.9065 23.6896 12.9065 27.3207 15.1375 29.5518L24.4998 38.914L33.862 29.5518C36.093 27.3207 36.093 23.6896 33.8619 21.4576C32.7816 20.3774 31.3442 19.7824 29.8144 19.7824C27.2078 19.7824 25.8843 21.3417 25.0182 22.2086C24.7321 22.4951 24.2675 22.4951 23.9813 22.2086C23.1968 21.4224 21.8341 19.7824 19.184 19.7824Z" fill="white"/>
<path d="M23.9817 40.4681L14.1015 30.5878C11.2992 27.7855 11.2992 23.225 14.1014 20.4217C15.4585 19.0645 17.2635 18.3171 19.184 18.3171C21.9067 18.3171 23.5391 19.6911 24.5017 20.6478C25.4752 19.6885 27.1186 18.3171 29.8144 18.3171C31.7356 18.3171 33.541 19.0645 34.8981 20.4216C34.8981 20.4216 34.8982 20.4216 34.8982 20.4217C37.7003 23.225 37.7003 27.7855 34.8981 30.5878L25.0178 40.4681C24.7316 40.7542 24.2678 40.7541 23.9817 40.4681ZM19.184 19.7824C17.6549 19.7824 16.2178 20.3773 15.1375 21.4577C12.9065 23.6896 12.9065 27.3207 15.1375 29.5518L24.4998 38.914L33.862 29.5518C36.093 27.3207 36.093 23.6896 33.8619 21.4576C32.7816 20.3774 31.3442 19.7824 29.8144 19.7824C27.2078 19.7824 25.8843 21.3417 25.0182 22.2086C24.7321 22.4951 24.2675 22.4951 23.9813 22.2086C23.1968 21.4224 21.8341 19.7824 19.184 19.7824Z" fill="url(#paint0_linear)"/>
<path d="M25.9648 33.9467H23.0344C22.6298 33.9467 22.3018 33.6187 22.3018 33.2141V31.134H20.2221C19.8175 31.134 19.4895 30.806 19.4895 30.4014V27.4709C19.4895 27.0663 19.8175 26.7383 20.2221 26.7383H22.3018V24.6586C22.3018 24.2541 22.6298 23.926 23.0344 23.926H25.9648C26.3694 23.926 26.6975 24.2541 26.6975 24.6586V26.7383H28.7771C29.1817 26.7383 29.5097 27.0663 29.5097 27.4709V30.4014C29.5097 30.806 29.1817 31.134 28.7771 31.134H26.6975V33.2141C26.6975 33.6187 26.3694 33.9467 25.9648 33.9467ZM23.767 32.4815H25.2322V30.4014C25.2322 29.9968 25.5603 29.6687 25.9648 29.6687H28.0445V28.2035H25.9648C25.5603 28.2035 25.2322 27.8755 25.2322 27.4709V25.3913H23.767V27.4709C23.767 27.8755 23.439 28.2035 23.0344 28.2035H20.9547V29.6687H23.0344C23.439 29.6687 23.767 29.9968 23.767 30.4014V32.4815Z" fill="white"/>
<path d="M25.9648 33.9467H23.0344C22.6298 33.9467 22.3018 33.6187 22.3018 33.2141V31.134H20.2221C19.8175 31.134 19.4895 30.806 19.4895 30.4014V27.4709C19.4895 27.0663 19.8175 26.7383 20.2221 26.7383H22.3018V24.6586C22.3018 24.2541 22.6298 23.926 23.0344 23.926H25.9648C26.3694 23.926 26.6975 24.2541 26.6975 24.6586V26.7383H28.7771C29.1817 26.7383 29.5097 27.0663 29.5097 27.4709V30.4014C29.5097 30.806 29.1817 31.134 28.7771 31.134H26.6975V33.2141C26.6975 33.6187 26.3694 33.9467 25.9648 33.9467ZM23.767 32.4815H25.2322V30.4014C25.2322 29.9968 25.5603 29.6687 25.9648 29.6687H28.0445V28.2035H25.9648C25.5603 28.2035 25.2322 27.8755 25.2322 27.4709V25.3913H23.767V27.4709C23.767 27.8755 23.439 28.2035 23.0344 28.2035H20.9547V29.6687H23.0344C23.439 29.6687 23.767 29.9968 23.767 30.4014V32.4815Z" fill="url(#paint1_linear)"/>
</g>
<defs>
<linearGradient id="paint0_linear" x1="24.4998" y1="18.3171" x2="24.4998" y2="40.6826" gradientUnits="userSpaceOnUse">
<stop stop-color="white"/>
<stop offset="1" stop-color="white" stop-opacity="0"/>
</linearGradient>
<linearGradient id="paint1_linear" x1="24.4996" y1="23.926" x2="24.4996" y2="33.9467" gradientUnits="userSpaceOnUse">
<stop stop-color="white"/>
<stop offset="1" stop-color="white" stop-opacity="0"/>
</linearGradient>
<clipPath id="clip0">
<rect width="25" height="25" fill="white" transform="translate(12 17)"/>
</clipPath>
</defs>
</svg>
