<svg width="14" height="14" viewBox="0 0 14 14" fill="none" xmlns="http://www.w3.org/2000/svg">
<path d="M3.91141 10.6076L13.5076 7.07217C13.6597 7.0151 13.7561 6.86206 13.7389 6.69943C13.7223 6.5363 13.597 6.40599 13.4349 6.38326L8.39688 5.66355L7.67717 0.625536C7.65444 0.46341 7.52363 0.337649 7.3615 0.320982C7.2514 0.308861 7.14534 0.349266 7.07109 0.42351C7.03523 0.45937 7.00695 0.502805 6.98877 0.552301L3.45332 10.1485C3.40483 10.2798 3.43715 10.4263 3.53564 10.5248C3.63413 10.6233 3.7806 10.6556 3.91141 10.6076Z" fill="white"/>
<path d="M3.91141 10.6076L13.5076 7.07217C13.6597 7.0151 13.7561 6.86206 13.7389 6.69943C13.7223 6.5363 13.597 6.40599 13.4349 6.38326L8.39688 5.66355L7.67717 0.625536C7.65444 0.46341 7.52363 0.337649 7.3615 0.320982C7.2514 0.308861 7.14534 0.349266 7.07109 0.42351C7.03523 0.45937 7.00695 0.502805 6.98877 0.552301L3.45332 10.1485C3.40483 10.2798 3.43715 10.4263 3.53564 10.5248C3.63413 10.6233 3.7806 10.6556 3.91141 10.6076Z" fill="url(#paint0_linear)"/>
<defs>
<linearGradient id="paint0_linear" x1="10.3536" y1="10.2717" x2="3.78826" y2="3.70634" gradientUnits="userSpaceOnUse">
<stop stop-color="white"/>
<stop offset="1" stop-color="white" stop-opacity="0"/>
</linearGradient>
</defs>
</svg>
