<svg width="16" height="21" viewBox="0 0 16 21" fill="none" xmlns="http://www.w3.org/2000/svg">
<path d="M7.875 0C5.78727 0.00276942 3.78584 0.833344 2.30959 2.30959C0.833344 3.78584 0.00276942 5.78727 0 7.875C0 13.5286 7.33687 20.6095 7.64859 20.9081C7.70923 20.9671 7.79045 21 7.875 21C7.95955 21 8.04077 20.9671 8.10141 20.9081C8.41312 20.6095 15.75 13.5286 15.75 7.875C15.7472 5.78727 14.9167 3.78584 13.4404 2.30959C11.9642 0.833344 9.96273 0.00276942 7.875 0V0ZM7.875 11.4844C7.16113 11.4844 6.4633 11.2727 5.86974 10.8761C5.27618 10.4795 4.81356 9.91578 4.54037 9.25625C4.26719 8.59672 4.19571 7.871 4.33498 7.17085C4.47425 6.4707 4.81801 5.82757 5.32279 5.32279C5.82757 4.81801 6.4707 4.47425 7.17085 4.33498C7.871 4.19571 8.59672 4.26719 9.25625 4.54037C9.91578 4.81356 10.4795 5.27618 10.8761 5.86974C11.2727 6.4633 11.4844 7.16113 11.4844 7.875C11.4838 8.83209 11.1033 9.74981 10.4266 10.4266C9.74982 11.1033 8.83209 11.4838 7.875 11.4844Z" fill="#BF3232"/>
</svg>
