<svg width="50" height="69" viewBox="0 0 50 69" fill="none" xmlns="http://www.w3.org/2000/svg">
<path d="M8.01086e-05 24.8857C8.01086e-05 38.6297 24.8858 69 24.8858 69C24.8858 69 49.7715 38.6297 49.7715 24.8857C49.7715 11.1417 38.6298 0 24.8858 0C11.1418 0 8.01086e-05 11.1417 8.01086e-05 24.8857Z" fill="#77875F"/>
<g clip-path="url(#clip0)">
<path d="M12.7324 28.965H13.5768L14.5316 34.694C14.8272 36.4671 16.3464 37.754 18.1439 37.754H30.8073C32.6037 37.754 34.1776 36.4385 34.4684 34.694L35.4232 28.965H36.2676C36.6721 28.965 37 28.637 37 28.2326V25.3029C37 24.8984 36.6721 24.5704 36.2676 24.5704H30.7741L26.5929 17.6018C26.3848 17.255 25.935 17.1424 25.588 17.3506C25.2412 17.5587 25.1287 18.0086 25.3368 18.3555L29.0658 24.5705H19.9342L23.6632 18.3555C23.8714 18.0086 23.7589 17.5588 23.412 17.3506C23.065 17.1425 22.6152 17.255 22.4071 17.6018L18.226 24.5704H12.7324C12.3279 24.5704 12 24.8984 12 25.3029V28.2326C12 28.6371 12.3279 28.965 12.7324 28.965ZM33.0235 34.4532C32.849 35.4999 31.8962 36.2892 30.8073 36.2892H18.1439C17.0654 36.2892 16.1539 35.5171 15.9765 34.4532L15.0619 28.965H33.9381L33.0235 34.4532ZM13.4648 26.0353H35.5352V27.5001H13.4648V26.0353Z" fill="#F6F6F6"/>
<path d="M19.1312 34.1529C19.1645 34.5525 19.5152 34.8557 19.922 34.822C20.325 34.7884 20.6246 34.4344 20.591 34.0312L20.3469 31.1015C20.3133 30.6984 19.9602 30.3992 19.5561 30.4325C19.1531 30.466 18.8535 30.8201 18.8871 31.2232L19.1312 34.1529Z" fill="#F6F6F6"/>
<path d="M29.0776 34.8218C29.485 34.8556 29.8351 34.5518 29.8684 34.1527L30.1125 31.223C30.1461 30.8199 29.8465 30.4659 29.4434 30.4323C29.04 30.3987 28.6863 30.6982 28.6527 31.1014L28.4086 34.031C28.375 34.4341 28.6745 34.7882 29.0776 34.8218Z" fill="#F6F6F6"/>
<path d="M24.5 34.8242C24.9045 34.8242 25.2324 34.4963 25.2324 34.0918V31.1621C25.2324 30.7576 24.9045 30.4297 24.5 30.4297C24.0955 30.4297 23.7676 30.7576 23.7676 31.1621V34.0918C23.7676 34.4963 24.0955 34.8242 24.5 34.8242Z" fill="#F6F6F6"/>
</g>
<defs>
<clipPath id="clip0">
<rect width="25" height="25" fill="white" transform="translate(12 15)"/>
</clipPath>
</defs>
</svg>
