<svg width="30" height="30" viewBox="0 0 30 30" fill="none" xmlns="http://www.w3.org/2000/svg">
<path d="M27.3633 0.0585938H24.4336C23.9482 0.0585938 23.5547 0.452109 23.5547 0.9375V3.57422H7.61719V0.9375C7.61719 0.452109 7.22367 0.0585938 6.73828 0.0585938H0.878906C0.393516 0.0585938 0 0.452109 0 0.9375V29.0625C0 29.5479 0.393516 29.9414 0.878906 29.9414H6.73828C7.22367 29.9414 7.61719 29.5479 7.61719 29.0625V26.4258H27.3633C28.8172 26.4258 30 25.2429 30 23.7891V2.69531C30 1.24143 28.8172 0.0585938 27.3633 0.0585938ZM5.85938 3.57422H4.39453C3.90914 3.57422 3.51562 3.96773 3.51562 4.45312C3.51562 4.93852 3.90914 5.33203 4.39453 5.33203H5.85938V7.08984H4.98047C4.49508 7.08984 4.10156 7.48336 4.10156 7.96875C4.10156 8.45414 4.49508 8.84766 4.98047 8.84766H5.85938V10.6055H4.39453C3.90914 10.6055 3.51562 10.999 3.51562 11.4844C3.51562 11.9698 3.90914 12.3633 4.39453 12.3633H5.85938V14.1211H4.98047C4.49508 14.1211 4.10156 14.5146 4.10156 15C4.10156 15.4854 4.49508 15.8789 4.98047 15.8789H5.85938V17.6367H4.39453C3.90914 17.6367 3.51562 18.0302 3.51562 18.5156C3.51562 19.001 3.90914 19.3945 4.39453 19.3945H5.85938V21.1523H4.98047C4.49508 21.1523 4.10156 21.5459 4.10156 22.0312C4.10156 22.5166 4.49508 22.9102 4.98047 22.9102H5.85938V24.668H4.39453C3.90914 24.668 3.51562 25.0615 3.51562 25.5469C3.51562 26.0323 3.90914 26.4258 4.39453 26.4258H5.85938V28.1836H1.75781V1.81641H5.85938V3.57422ZM28.2422 23.7891C28.2422 24.2737 27.8479 24.668 27.3633 24.668H7.61719V5.33203H27.3633C27.6714 5.33203 27.9671 5.27842 28.2422 5.18086V23.7891ZM27.3633 3.57422H25.3125V1.81641H27.3633C27.8479 1.81641 28.2422 2.21068 28.2422 2.69531C28.2422 3.17994 27.8479 3.57422 27.3633 3.57422Z" fill="#9C938C"/>
<path d="M25.6055 7.08984H10.2539C9.76852 7.08984 9.375 7.48336 9.375 7.96875V22.0312C9.375 22.5166 9.76852 22.9102 10.2539 22.9102H15.0586C15.544 22.9102 15.9375 22.5166 15.9375 22.0312V18.9592C16.9606 19.3219 17.6953 20.2994 17.6953 21.4453V22.0312C17.6953 22.5166 18.0888 22.9102 18.5742 22.9102H25.6055C26.0909 22.9102 26.4844 22.5166 26.4844 22.0312V7.96875C26.4844 7.48336 26.0909 7.08984 25.6055 7.08984ZM24.7266 10.6055H22.0898C21.6045 10.6055 21.2109 10.999 21.2109 11.4844C21.2109 11.9698 21.6045 12.3633 22.0898 12.3633H24.7266V21.1523H19.4435C19.2921 18.8654 17.3832 17.0508 15.0586 17.0508C14.5732 17.0508 14.1797 17.4443 14.1797 17.9297V21.1523H11.1328V15.8789H15.0586C15.544 15.8789 15.9375 15.4854 15.9375 15V11.4844C15.9375 10.999 15.544 10.6055 15.0586 10.6055C14.5732 10.6055 14.1797 10.999 14.1797 11.4844V14.1211H11.1328V8.84766H17.6953V15C17.6953 15.4854 18.0888 15.8789 18.5742 15.8789H21.5039C21.9893 15.8789 22.3828 15.4854 22.3828 15C22.3828 14.5146 21.9893 14.1211 21.5039 14.1211H19.4531V8.84766H24.7266V10.6055Z" fill="#9C938C"/>
</svg>
