<svg width="30" height="30" viewBox="0 0 30 30" fill="none" xmlns="http://www.w3.org/2000/svg">
<g clip-path="url(#clip0)">
<path d="M14.8369 23.8477H10.1494C9.66396 23.8477 9.27051 24.2412 9.27051 24.7266C9.27051 25.212 9.66396 25.6055 10.1494 25.6055H14.8369C15.3223 25.6055 15.7158 25.212 15.7158 24.7266C15.7158 24.2412 15.3223 23.8477 14.8369 23.8477Z" fill="#9C938C"/>
<path d="M14.8369 20.332H10.1494C9.66396 20.332 9.27051 20.7255 9.27051 21.2109C9.27051 21.6963 9.66396 22.0898 10.1494 22.0898H14.8369C15.3223 22.0898 15.7158 21.6963 15.7158 21.2109C15.7158 20.7255 15.3223 20.332 14.8369 20.332Z" fill="#9C938C"/>
<path d="M28.6749 17.3044L25.7748 14.4041C25.4318 14.0611 24.875 14.0609 24.5318 14.4041L23.9189 15.017V3.51562C23.9189 3.03023 23.5254 2.63672 23.04 2.63672H17.7666V0.878906C17.7666 0.393516 17.3731 0 16.8877 0H8.09863C7.61318 0 7.21973 0.393516 7.21973 0.878906V2.63672H1.94629C1.46084 2.63672 1.06738 3.03023 1.06738 3.51562V29.1211C1.06738 29.6065 1.46084 30 1.94629 30H23.04C23.5254 30 23.9189 29.6065 23.9189 29.1211V23.3033L28.6749 18.5473C29.0182 18.2041 29.0182 17.6476 28.6749 17.3044ZM16.0088 1.75781V5.27344H8.97754V1.75781H16.0088ZM22.1611 28.2422H2.8252V4.39453H7.21973V6.15234C7.21973 6.63773 7.61318 7.03125 8.09863 7.03125H16.8877C17.3731 7.03125 17.7666 6.63773 17.7666 6.15234V4.39453H22.1611V16.7748L17.731 21.2048C17.5662 21.3697 17.4736 21.5932 17.4736 21.8263V24.7266C17.4736 25.212 17.8671 25.6055 18.3525 25.6055H21.2528C21.486 25.6055 21.7095 25.5129 21.8743 25.348L22.1611 25.0611V28.2422ZM20.8888 23.8477H19.2314V22.1904L25.1533 16.2686L26.8105 17.9258L20.8888 23.8477Z" fill="#9C938C"/>
<path d="M17.9664 12.6978C18.1835 12.2636 18.0076 11.7356 17.5734 11.5186L12.8859 9.1748C12.6385 9.05111 12.3472 9.05111 12.0998 9.1748L7.41231 11.5186C6.97813 11.7356 6.80217 12.2636 7.01926 12.6978C7.21989 13.0991 7.686 13.2791 8.09832 13.1326V17.2852C8.09832 17.7706 8.49178 18.1641 8.97723 18.1641H16.0085C16.4939 18.1641 16.8874 17.7706 16.8874 17.2852V13.1332C17.3035 13.2809 17.7673 13.096 17.9664 12.6978ZM13.3718 16.4063V15.5274C13.3718 15.042 12.9782 14.6485 12.4929 14.6485C12.0074 14.6485 11.6139 15.042 11.6139 15.5274V16.4063H9.85613V12.2619L12.4929 10.9436L15.1296 12.2619V16.4063H13.3718Z" fill="#9C938C"/>
</g>
<defs>
<clipPath id="clip0">
<rect width="30" height="30" fill="white"/>
</clipPath>
</defs>
</svg>
