<svg width="50" height="69" viewBox="0 0 50 69" fill="none" xmlns="http://www.w3.org/2000/svg">
<path d="M8.01086e-05 24.8857C8.01086e-05 38.6297 24.8858 69 24.8858 69C24.8858 69 49.7715 38.6297 49.7715 24.8857C49.7715 11.1417 38.6298 0 24.8858 0C11.1418 0 8.01086e-05 11.1417 8.01086e-05 24.8857Z" fill="#77875F"/>
<g clip-path="url(#clip0)">
<path d="M36.2676 16.7109H25.9648C25.5649 16.7109 25.1899 16.8189 24.8665 17.0064C24.1096 15.1183 22.2608 13.7812 20.1055 13.7812H15.6621C15.2576 13.7812 14.9297 14.1092 14.9297 14.5137V16.7109H12.7324C12.3279 16.7109 12 17.0389 12 17.4434V35.0215C12 35.426 12.3279 35.7539 12.7324 35.7539H23.0352C23.439 35.7539 23.7676 36.0825 23.7676 36.4863C23.7676 36.8908 24.0955 37.2188 24.5 37.2188C24.9045 37.2188 25.2324 36.8908 25.2324 36.4863C25.2324 36.0825 25.561 35.7539 25.9648 35.7539H36.2676C36.6721 35.7539 37 35.426 37 35.0215V17.4434C37 17.0389 36.6721 16.7109 36.2676 16.7109ZM16.3945 15.2461H20.1055C22.1248 15.2461 23.7676 16.8889 23.7676 18.9082V32.9021C22.8363 31.9508 21.5388 31.3594 20.1055 31.3594H16.3945V15.2461ZM13.4648 18.1758H14.9297V32.0918C14.9297 32.4963 15.2576 32.8242 15.6621 32.8242H20.1055C21.301 32.8242 22.3644 33.4002 23.0332 34.2891H13.4648V18.1758ZM35.5352 34.2891H25.9648C25.7081 34.2891 25.4617 34.3337 25.2324 34.415V18.9082C25.2324 18.5043 25.561 18.1758 25.9648 18.1758H35.5352V34.2891Z" fill="white"/>
<path d="M36.2676 16.7109H25.9648C25.5649 16.7109 25.1899 16.8189 24.8665 17.0064C24.1096 15.1183 22.2608 13.7812 20.1055 13.7812H15.6621C15.2576 13.7812 14.9297 14.1092 14.9297 14.5137V16.7109H12.7324C12.3279 16.7109 12 17.0389 12 17.4434V35.0215C12 35.426 12.3279 35.7539 12.7324 35.7539H23.0352C23.439 35.7539 23.7676 36.0825 23.7676 36.4863C23.7676 36.8908 24.0955 37.2188 24.5 37.2188C24.9045 37.2188 25.2324 36.8908 25.2324 36.4863C25.2324 36.0825 25.561 35.7539 25.9648 35.7539H36.2676C36.6721 35.7539 37 35.426 37 35.0215V17.4434C37 17.0389 36.6721 16.7109 36.2676 16.7109ZM16.3945 15.2461H20.1055C22.1248 15.2461 23.7676 16.8889 23.7676 18.9082V32.9021C22.8363 31.9508 21.5388 31.3594 20.1055 31.3594H16.3945V15.2461ZM13.4648 18.1758H14.9297V32.0918C14.9297 32.4963 15.2576 32.8242 15.6621 32.8242H20.1055C21.301 32.8242 22.3644 33.4002 23.0332 34.2891H13.4648V18.1758ZM35.5352 34.2891H25.9648C25.7081 34.2891 25.4617 34.3337 25.2324 34.415V18.9082C25.2324 18.5043 25.561 18.1758 25.9648 18.1758H35.5352V34.2891Z" fill="url(#paint0_linear)"/>
<path d="M27.4297 24.0352H33.3379C33.7424 24.0352 34.0703 23.7072 34.0703 23.3027C34.0703 22.8982 33.7424 22.5703 33.3379 22.5703H27.4297C27.0252 22.5703 26.6973 22.8982 26.6973 23.3027C26.6973 23.7072 27.0252 24.0352 27.4297 24.0352Z" fill="white"/>
<path d="M27.4297 24.0352H33.3379C33.7424 24.0352 34.0703 23.7072 34.0703 23.3027C34.0703 22.8982 33.7424 22.5703 33.3379 22.5703H27.4297C27.0252 22.5703 26.6973 22.8982 26.6973 23.3027C26.6973 23.7072 27.0252 24.0352 27.4297 24.0352Z" fill="url(#paint1_linear)"/>
<path d="M27.4297 21.1055H33.3379C33.7424 21.1055 34.0703 20.7775 34.0703 20.373C34.0703 19.9686 33.7424 19.6406 33.3379 19.6406H27.4297C27.0252 19.6406 26.6973 19.9686 26.6973 20.373C26.6973 20.7775 27.0252 21.1055 27.4297 21.1055Z" fill="white"/>
<path d="M27.4297 21.1055H33.3379C33.7424 21.1055 34.0703 20.7775 34.0703 20.373C34.0703 19.9686 33.7424 19.6406 33.3379 19.6406H27.4297C27.0252 19.6406 26.6973 19.9686 26.6973 20.373C26.6973 20.7775 27.0252 21.1055 27.4297 21.1055Z" fill="url(#paint2_linear)"/>
<path d="M27.4297 26.9648H33.3379C33.7424 26.9648 34.0703 26.6369 34.0703 26.2324C34.0703 25.8279 33.7424 25.5 33.3379 25.5H27.4297C27.0252 25.5 26.6973 25.8279 26.6973 26.2324C26.6973 26.6369 27.0252 26.9648 27.4297 26.9648Z" fill="white"/>
<path d="M27.4297 26.9648H33.3379C33.7424 26.9648 34.0703 26.6369 34.0703 26.2324C34.0703 25.8279 33.7424 25.5 33.3379 25.5H27.4297C27.0252 25.5 26.6973 25.8279 26.6973 26.2324C26.6973 26.6369 27.0252 26.9648 27.4297 26.9648Z" fill="url(#paint3_linear)"/>
<path d="M27.4297 29.8945H33.3379C33.7424 29.8945 34.0703 29.5666 34.0703 29.1621C34.0703 28.7576 33.7424 28.4297 33.3379 28.4297H27.4297C27.0252 28.4297 26.6973 28.7576 26.6973 29.1621C26.6973 29.5666 27.0252 29.8945 27.4297 29.8945Z" fill="white"/>
<path d="M27.4297 29.8945H33.3379C33.7424 29.8945 34.0703 29.5666 34.0703 29.1621C34.0703 28.7576 33.7424 28.4297 33.3379 28.4297H27.4297C27.0252 28.4297 26.6973 28.7576 26.6973 29.1621C26.6973 29.5666 27.0252 29.8945 27.4297 29.8945Z" fill="url(#paint4_linear)"/>
<path d="M27.4297 32.8242H33.3379C33.7424 32.8242 34.0703 32.4963 34.0703 32.0918C34.0703 31.6873 33.7424 31.3594 33.3379 31.3594H27.4297C27.0252 31.3594 26.6973 31.6873 26.6973 32.0918C26.6973 32.4963 27.0252 32.8242 27.4297 32.8242Z" fill="white"/>
<path d="M27.4297 32.8242H33.3379C33.7424 32.8242 34.0703 32.4963 34.0703 32.0918C34.0703 31.6873 33.7424 31.3594 33.3379 31.3594H27.4297C27.0252 31.3594 26.6973 31.6873 26.6973 32.0918C26.6973 32.4963 27.0252 32.8242 27.4297 32.8242Z" fill="url(#paint5_linear)"/>
</g>
<defs>
<linearGradient id="paint0_linear" x1="24.5" y1="13.7812" x2="24.5" y2="37.2188" gradientUnits="userSpaceOnUse">
<stop stop-color="white"/>
<stop offset="1" stop-color="white" stop-opacity="0"/>
</linearGradient>
<linearGradient id="paint1_linear" x1="30.3838" y1="22.5703" x2="30.3838" y2="24.0352" gradientUnits="userSpaceOnUse">
<stop stop-color="white"/>
<stop offset="1" stop-color="white" stop-opacity="0"/>
</linearGradient>
<linearGradient id="paint2_linear" x1="30.3838" y1="19.6406" x2="30.3838" y2="21.1055" gradientUnits="userSpaceOnUse">
<stop stop-color="white"/>
<stop offset="1" stop-color="white" stop-opacity="0"/>
</linearGradient>
<linearGradient id="paint3_linear" x1="30.3838" y1="25.5" x2="30.3838" y2="26.9648" gradientUnits="userSpaceOnUse">
<stop stop-color="white"/>
<stop offset="1" stop-color="white" stop-opacity="0"/>
</linearGradient>
<linearGradient id="paint4_linear" x1="30.3838" y1="28.4297" x2="30.3838" y2="29.8945" gradientUnits="userSpaceOnUse">
<stop stop-color="white"/>
<stop offset="1" stop-color="white" stop-opacity="0"/>
</linearGradient>
<linearGradient id="paint5_linear" x1="30.3838" y1="31.3594" x2="30.3838" y2="32.8242" gradientUnits="userSpaceOnUse">
<stop stop-color="white"/>
<stop offset="1" stop-color="white" stop-opacity="0"/>
</linearGradient>
<clipPath id="clip0">
<rect width="25" height="25" fill="white" transform="translate(12 13)"/>
</clipPath>
</defs>
</svg>
