<svg width="92" height="13" viewBox="0 0 92 13" fill="none" xmlns="http://www.w3.org/2000/svg">
<path d="M13.3626 4.93644C13.3165 4.79188 13.1938 4.68653 13.0462 4.66471L8.89775 4.05079L7.04246 0.222545C6.97644 0.0862656 6.84014 0 6.69093 0C6.54169 0 6.40542 0.0862656 6.33937 0.222545L4.48401 4.05079L0.335665 4.66471C0.188021 4.68653 0.0653111 4.79188 0.0192067 4.93641C-0.0269238 5.08097 0.0115488 5.23963 0.11842 5.3457L3.12012 8.32558L2.41162 12.5333C2.38637 12.6831 2.44685 12.8344 2.56757 12.9238C2.63586 12.9743 2.71676 13 2.79804 13C2.86045 13 2.92308 12.9849 2.98042 12.9541L6.69091 10.9675L10.4012 12.9541C10.5334 13.0248 10.6934 13.0131 10.8141 12.9237C10.9348 12.8344 10.9953 12.683 10.9701 12.5332L10.2614 8.32558L13.2634 5.34567C13.3703 5.23963 13.4088 5.08097 13.3626 4.93644Z" fill="#D8D8D8"/>
<path d="M32.599 4.93644C32.5529 4.79188 32.4302 4.68653 32.2825 4.66471L28.1341 4.05079L26.2788 0.222545C26.2128 0.0862656 26.0765 0 25.9273 0C25.7781 0 25.6418 0.0862656 25.5757 0.222545L23.7204 4.05079L19.572 4.66471C19.4244 4.68653 19.3017 4.79188 19.2556 4.93641C19.2094 5.08097 19.2479 5.23963 19.3548 5.3457L22.3565 8.32558L21.648 12.5333C21.6227 12.6831 21.6832 12.8344 21.8039 12.9238C21.8722 12.9743 21.9531 13 22.0344 13C22.0968 13 22.1594 12.9849 22.2168 12.9541L25.9273 10.9675L29.6376 12.9541C29.7697 13.0248 29.9297 13.0131 30.0505 12.9237C30.1712 12.8344 30.2317 12.683 30.2065 12.5332L29.4977 8.32558L32.4998 5.34567C32.6066 5.23963 32.6451 5.08097 32.599 4.93644Z" fill="#D8D8D8"/>
<path d="M52.6717 4.93644C52.6256 4.79188 52.5029 4.68653 52.3553 4.66471L48.2068 4.05079L46.3516 0.222545C46.2855 0.0862656 46.1492 0 46 0C45.8508 0 45.7145 0.0862656 45.6485 0.222545L43.7931 4.05079L39.6447 4.66471C39.4971 4.68653 39.3744 4.79188 39.3283 4.93641C39.2822 5.08097 39.3206 5.23963 39.4275 5.3457L42.4292 8.32558L41.7207 12.5333C41.6955 12.6831 41.7559 12.8344 41.8767 12.9238C41.945 12.9743 42.0258 13 42.1071 13C42.1695 13 42.2322 12.9849 42.2895 12.9541L46 10.9675L49.7103 12.9541C49.8424 13.0248 50.0025 13.0131 50.1232 12.9237C50.2439 12.8344 50.3044 12.683 50.2792 12.5332L49.5705 8.32558L52.5725 5.34567C52.6793 5.23963 52.7178 5.08097 52.6717 4.93644Z" fill="#D8D8D8"/>
<path d="M71.9081 4.93644C71.8619 4.79188 71.7393 4.68653 71.5916 4.66471L67.4432 4.05079L65.5879 0.222545C65.5219 0.0862656 65.3856 0 65.2364 0C65.0871 0 64.9509 0.0862656 64.8848 0.222545L63.0295 4.05079L58.8811 4.66471C58.7335 4.68653 58.6108 4.79188 58.5647 4.93641C58.5185 5.08097 58.557 5.23963 58.6639 5.3457L61.6656 8.32558L60.9571 12.5333C60.9318 12.6831 60.9923 12.8344 61.113 12.9238C61.1813 12.9743 61.2622 13 61.3435 13C61.4059 13 61.4685 12.9849 61.5259 12.9541L65.2364 10.9675L68.9467 12.9541C69.0788 13.0248 69.2388 13.0131 69.3596 12.9237C69.4803 12.8344 69.5408 12.683 69.5156 12.5332L68.8068 8.32558L71.8089 5.34567C71.9157 5.23963 71.9542 5.08097 71.9081 4.93644Z" fill="#D8D8D8"/>
<path d="M91.9808 4.93644C91.9347 4.79188 91.812 4.68653 91.6643 4.66471L87.5159 4.05079L85.6606 0.222545C85.5946 0.0862656 85.4583 0 85.3091 0C85.1599 0 85.0236 0.0862656 84.9575 0.222545L83.1022 4.05079L78.9538 4.66471C78.8062 4.68653 78.6835 4.79188 78.6374 4.93641C78.5912 5.08097 78.6297 5.23963 78.7366 5.3457L81.7383 8.32558L81.0298 12.5333C81.0045 12.6831 81.065 12.8344 81.1857 12.9238C81.254 12.9743 81.3349 13 81.4162 13C81.4786 13 81.5413 12.9849 81.5986 12.9541L85.3091 10.9675L89.0194 12.9541C89.1515 13.0248 89.3116 13.0131 89.4323 12.9237C89.553 12.8344 89.6135 12.683 89.5883 12.5332L88.8796 8.32558L91.8816 5.34567C91.9884 5.23963 92.0269 5.08097 91.9808 4.93644Z" fill="#D8D8D8"/>
</svg>
