<?xml version="1.0" encoding="utf-8"?><svg width="63" height="63" fill="none" xmlns="http://www.w3.org/2000/svg" viewBox="0 0 63 63"><path fill-rule="evenodd" clip-rule="evenodd" d="M51.588 48.807l-8.408-4.854a3.437 3.437 0 00-4.684 1.255l-.332.575c-.84 1.457-2.132 2.386-3.78 2.723-1.64.337-3.206-.015-4.545-1.02a72.908 72.908 0 01-7.778-6.772 72.846 72.846 0 01-6.77-7.777c-1.006-1.34-1.359-2.905-1.023-4.546.338-1.647 1.269-2.938 2.725-3.778l.575-.332a3.393 3.393 0 001.594-2.085 3.397 3.397 0 00-.339-2.6L13.97 11.19c-.862-1.493-2.64-2.085-4.24-1.471l-.105.04c-1.65.633-6.195 2.293-7.417 3.515C-1.405 16.886.141 23.42 1.752 27.58c2.823 7.284 8.177 14.294 13.664 19.78 5.486 5.486 12.496 10.842 19.779 13.664 2.527.98 5.37 1.752 8.098 1.752 2.283 0 4.556-.553 6.21-2.207 1.165-1.165 2.892-5.853 3.525-7.445l.04-.102c.632-1.59-.004-3.363-1.48-4.215zm-2.59-32.98a2 2 0 011.325 1.882v9.573h.373a2.001 2.001 0 010 4.001h-.373v2.214a2 2 0 01-4 0v-2.214h-7.525a2.001 2.001 0 01-1.545-3.27l9.525-11.575a2.002 2.002 0 012.22-.612zm-2.675 11.456h-3.288l3.288-3.996v3.996zm-13.556-3.95c.367-1.346.151-2.348-.646-2.979-.926-.732-2.469-.862-3.513-.294-.75.41-1.069 1.1-.973 2.11a2 2 0 11-3.981.384c-.253-2.628.855-4.818 3.04-6.008 2.463-1.34 5.716-1.065 7.91.672 2.08 1.645 2.816 4.259 2.022 7.169-.542 1.983-2.415 3.443-4.396 4.99-.845.66-1.744 1.361-2.559 2.12h5.812a2 2 0 010 4H25.6a2 2 0 01-1.8-2.872c1.362-2.804 3.917-4.799 5.97-6.401 1.25-.976 2.806-2.19 2.998-2.89zM63 26.274c0 6.958-2.71 13.499-7.63 18.42a1.998 1.998 0 01-2.829 0 2 2 0 010-2.83A21.906 21.906 0 0059 26.274c0-12.159-9.892-22.05-22.05-22.05a21.906 21.906 0 00-15.591 6.458 2 2 0 11-2.83-2.83C23.45 2.935 29.992.224 36.95.224 51.313.223 63 11.91 63 26.274z" fill="#BF3232"/></svg>