<?xml version="1.0" encoding="utf-8"?><svg width="25" height="25" fill="none" xmlns="http://www.w3.org/2000/svg" viewBox="0 0 25 25"><path fill-rule="evenodd" clip-rule="evenodd" d="M20.471 19.368l-3.336-1.926a1.364 1.364 0 00-1.859.497l-.131.229a2.182 2.182 0 01-1.5 1.08 2.19 2.19 0 01-1.804-.405 28.932 28.932 0 01-3.087-2.687 28.9 28.9 0 01-2.686-3.086 2.192 2.192 0 01-.406-1.804 2.183 2.183 0 011.081-1.5l.228-.13c.317-.183.538-.475.633-.828a1.348 1.348 0 00-.134-1.032L5.543 4.44a1.36 1.36 0 00-1.683-.584l-.041.016c-.654.251-2.458.91-2.943 1.395-1.434 1.434-.82 4.027-.18 5.677 1.12 2.89 3.244 5.673 5.421 7.85 2.177 2.177 4.96 4.302 7.85 5.422 1.002.388 2.13.695 3.213.695.906 0 1.808-.22 2.464-.876.462-.462 1.148-2.322 1.399-2.954l.016-.04a1.348 1.348 0 00-.588-1.673zM19.444 6.28a.794.794 0 01.526.747v3.8h.147a.794.794 0 010 1.587h-.148v.879a.794.794 0 01-1.587 0v-.88h-2.986a.794.794 0 01-.613-1.297l3.78-4.593a.795.795 0 01.88-.243zm-1.062 4.546h-1.305l1.305-1.585v1.585zm-5.38-1.567c.146-.534.06-.932-.255-1.182-.368-.29-.98-.342-1.394-.117-.299.163-.425.437-.387.838a.793.793 0 11-1.58.152c-.1-1.043.34-1.912 1.207-2.384.977-.532 2.268-.423 3.139.267.825.652 1.117 1.69.802 2.844-.215.787-.958 1.367-1.744 1.98-.336.262-.692.54-1.016.842h2.307a.794.794 0 010 1.587h-3.923a.794.794 0 01-.714-1.14c.54-1.112 1.554-1.904 2.369-2.54.496-.387 1.114-.869 1.19-1.147zM25 10.426a10.27 10.27 0 01-3.028 7.31.793.793 0 11-1.122-1.123 8.693 8.693 0 002.563-6.187c0-4.825-3.926-8.75-8.75-8.75-2.338 0-4.535.91-6.187 2.563a.794.794 0 11-1.123-1.123A10.27 10.27 0 0114.663.09C20.362.089 25 4.726 25 10.426z" fill="#fff"/></svg>