<?xml version="1.0" encoding="utf-8"?><svg width="24" height="24" fill="none" xmlns="http://www.w3.org/2000/svg" viewBox="0 0 24 24"><path d="M23.312 11.7c-.382 0-.687.33-.687.742v6.75c0 1.835-1.386 3.324-3.082 3.324H4.457c-1.701 0-3.082-1.495-3.082-3.325v-6.859c0-.412-.305-.742-.687-.742-.382 0-.688.33-.688.742v6.86C0 21.845 2.002 24 4.457 24h15.086C22.003 24 24 21.84 24 19.191v-6.749c0-.407-.306-.742-.688-.742z" fill="#fff"/><path d="M11.516 18.109c.132.143.31.22.484.22a.647.647 0 00.484-.22l4.37-4.716a.782.782 0 000-1.05.65.65 0 00-.973 0l-3.194 3.452V.742C12.687.33 12.382 0 12 0c-.382 0-.688.33-.688.742v15.053l-3.198-3.451a.65.65 0 00-.973 0 .782.782 0 000 1.05l4.375 4.715z" fill="#fff"/></svg>