<?xml version="1.0" encoding="utf-8"?><svg width="32" height="32" fill="none" xmlns="http://www.w3.org/2000/svg" viewBox="0 0 32 32"><g clip-path="url(#aeclip0)" fill="#77875F"><path d="M29.218 0H11.13c-.577 0-1.044.467-1.044 1.044v3.13h-3.13c-.577 0-1.044.467-1.044 1.043v3.13h-3.13c-.576 0-1.044.468-1.044 1.044v21.566c0 .576.467 1.043 1.044 1.043H20.87c.576 0 1.043-.467 1.043-1.043v-3.13h3.13c.577 0 1.044-.468 1.044-1.044v-3.13h3.13c.577 0 1.044-.468 1.044-1.044V1.043C30.261.468 29.794 0 29.218 0zm-9.392 29.913h-16V10.435h16v19.478zM24 25.74h-2.087V9.391c0-.576-.467-1.043-1.043-1.043H8V6.26h16v19.478zm4.174-4.174h-2.087V5.217c0-.576-.467-1.043-1.043-1.043h-12.87V2.087h16v19.478z"/><path d="M16.696 13.217h-9.74a1.044 1.044 0 000 2.087h9.74a1.044 1.044 0 000-2.087zM16.696 17.391h-2.61a1.043 1.043 0 100 2.087h2.61a1.044 1.044 0 000-2.087zM9.912 17.391H6.957a1.043 1.043 0 100 2.087h2.955a1.044 1.044 0 000-2.087zM16.696 21.565h-9.74a1.044 1.044 0 000 2.087h9.74a1.044 1.044 0 000-2.087zM16.696 25.739h-4.87a1.044 1.044 0 000 2.087h4.87a1.044 1.044 0 000-2.087z"/></g><defs><clipPath id="aeclip0"><path fill="#fff" d="M0 0h32v32H0z"/></clipPath></defs></svg>