<?xml version="1.0" encoding="utf-8"?><svg width="32" height="32" fill="none" xmlns="http://www.w3.org/2000/svg" viewBox="0 0 32 32"><g clip-path="url(#akclip0)" fill="#77875F"><path d="M14.957 24.348a1.043 1.043 0 100-2.087 1.043 1.043 0 000 2.087z"/><path d="M31.694 15.958l-3.172-3.173V5.913c0-.576-.467-1.044-1.044-1.044h-4.174c-.576 0-1.043.468-1.043 1.044v.611l-5.523-5.523a1.044 1.044 0 00-1.476 0L.306 15.958a1.044 1.044 0 001.475 1.475l1.697-1.697v14.525c0 .576.467 1.043 1.044 1.043h22.956c.576 0 1.044-.467 1.044-1.043V15.736l1.697 1.697a1.043 1.043 0 101.475-1.475zm-11.52 13.26h-8.348v-7.653A4.179 4.179 0 0116 17.391a4.179 4.179 0 014.174 4.174v7.652zm6.26 0h-4.173v-7.653A6.268 6.268 0 0016 15.305a6.268 6.268 0 00-6.26 6.26v7.652H5.564V13.65L16 3.214l10.435 10.434v15.568zm0-18.52l-2.086-2.087V6.956h2.087v3.742z"/></g><defs><clipPath id="akclip0"><path fill="#fff" d="M0 0h32v32H0z"/></clipPath></defs></svg>