<?xml version="1.0" encoding="utf-8"?><svg width="32" height="31" fill="none" xmlns="http://www.w3.org/2000/svg" viewBox="0 0 32 31"><g clip-path="url(#alclip0)" fill="#77875F"><path d="M31.737 12.69c-.104-.55-.648-.914-1.215-.814-.567.1-.943.628-.84 1.177.827 4.373-.609 8.852-3.84 11.982-2.624 2.542-6.12 3.942-9.842 3.942-3.371 0-6.556-1.148-9.077-3.254l1.45-1.403c.584-.567.287-1.535-.517-1.704l-5.66-1.192c-.742-.156-1.403.485-1.241 1.204l1.23 5.482c.175.782 1.176 1.064 1.758.5l1.5-1.454C8.362 29.642 12.07 31 16 31c4.28 0 8.3-1.61 11.319-4.535 3.715-3.6 5.367-8.75 4.418-13.776zM3.819 25.87l-.48-2.135 2.205.464-1.725 1.671zM31.046 8.373l-1.23-5.482c-.175-.78-1.175-1.066-1.759-.5l-1.5 1.454C23.639 1.358 19.93 0 16 0c-4.28 0-8.3 1.61-11.319 4.535-3.716 3.6-5.368 8.75-4.418 13.776.104.55.648.913 1.215.812.567-.1.942-.627.839-1.176-.826-4.373.61-8.852 3.84-11.982 2.625-2.542 6.12-3.943 9.843-3.943 3.37 0 6.556 1.149 9.076 3.254l-1.449 1.404c-.584.566-.287 1.534.517 1.703l5.659 1.192c.745.157 1.402-.487 1.242-1.203zm-4.59-1.571l1.726-1.671.479 2.135-2.204-.464z"/><path d="M24.97 12.662l-8.35-6.068a1.071 1.071 0 00-1.254 0L7.015 12.66c-.8.581-.375 1.82.626 1.82h1.044v7.08c0 .558.468 1.011 1.044 1.011h12.527c.577 0 1.044-.453 1.044-1.011v-7.08h1.044c1 0 1.428-1.237.627-1.82zm-3.758 7.888H10.773v-6.068h10.44v6.068zm-10.439-8.09l5.22-3.793 5.22 3.792h-10.44z"/></g><defs><clipPath id="alclip0"><path fill="#fff" d="M0 0h32v31H0z"/></clipPath></defs></svg>