<?xml version="1.0" encoding="utf-8"?><svg width="30" height="30" fill="none" xmlns="http://www.w3.org/2000/svg" viewBox="0 0 30 30"><g clip-path="url(#anclip0)" fill="#9C938C"><path d="M21.816 30c-.21 0-.425-.026-.637-.082L1.849 24.74A2.523 2.523 0 01.083 21.68l2.44-9.09a.625.625 0 011.208.322L1.29 22a1.269 1.269 0 00.888 1.536l19.32 5.174a1.244 1.244 0 001.522-.88l.976-3.618a.626.626 0 011.207.325l-.974 3.613A2.497 2.497 0 0121.816 30z"/><path d="M27.5 22.5h-20A2.503 2.503 0 015 20V5c0-1.379 1.121-2.5 2.5-2.5h20C28.879 2.5 30 3.621 30 5v15c0 1.379-1.121 2.5-2.5 2.5zM7.5 3.75c-.689 0-1.25.561-1.25 1.25v15c0 .689.561 1.25 1.25 1.25h20c.689 0 1.25-.561 1.25-1.25V5c0-.689-.561-1.25-1.25-1.25h-20z"/><path d="M11.25 11.25a2.503 2.503 0 01-2.5-2.5c0-1.379 1.121-2.5 2.5-2.5s2.5 1.121 2.5 2.5-1.121 2.5-2.5 2.5zm0-3.75c-.689 0-1.25.561-1.25 1.25S10.561 10 11.25 10s1.25-.561 1.25-1.25-.561-1.25-1.25-1.25zM5.713 21.163a.625.625 0 01-.443-1.066l5.904-5.905c.708-.707 1.944-.707 2.651 0l1.758 1.758 4.865-5.837c.354-.424.873-.67 1.427-.675h.014c.547 0 1.066.237 1.424.653l6.537 7.628a.624.624 0 11-.949.813l-6.537-7.627a.619.619 0 00-.475-.217c-.13-.012-.359.078-.48.224l-5.304 6.364a.623.623 0 01-.452.224.602.602 0 01-.47-.183l-2.242-2.24a.642.642 0 00-.883 0L6.154 20.98a.623.623 0 01-.441.183z"/></g><defs><clipPath id="anclip0"><path fill="#fff" d="M0 0h30v30H0z"/></clipPath></defs></svg>