<?xml version="1.0" encoding="utf-8"?><svg width="2000" height="1693.11" fill="none" xmlns="http://www.w3.org/2000/svg" viewBox="0 0 2118 1793"><path d="M279 2c0 1.6-.7 2-3.2 2-6.9 0-10.8 1.2-10.8 3.1 0 1.7-.8 1.9-7 1.9s-7 .2-7 1.9c0 2-3.4 3.1-9.6 3.1-2.7 0-3.4.4-3.4 2 0 1.7-.8 1.9-6.7 2.2-6.2.3-6.8.5-7.1 2.5-.3 2-.9 2.3-4.8 2.3-3.7 0-4.4.3-4.4 2 0 1.6-.7 2-3.4 2-5.8 0-9.4 1.1-9.9 3.1-.4 1.5-1.4 1.9-5.1 1.9-3.9 0-4.6.3-4.6 1.9 0 1.6-.9 2.1-4.5 2.7-3.5.5-4.5 1-4.5 2.5 0 1.6-.8 1.9-4.5 1.9-4.1 0-4.5.2-4.5 2.5s-.4 2.5-4.5 2.5c-3.8 0-4.5.3-4.5 2 0 1.5-.7 2-2.5 2-2 0-2.5.5-2.5 2.5 0 2.3-.4 2.5-4.5 2.5-3.8 0-4.5.3-4.5 1.9 0 1.3-.8 2.1-2.2 2.3-1.5.2-2.4 1.1-2.6 2.5-.3 1.9-1 2.3-4.2 2.3s-3.9.4-4.2 2.2c-.2 1.5-1.1 2.4-2.5 2.6-1.5.2-2.3 1-2.3 2.3 0 1.4-.7 1.9-2.5 1.9s-2.5.5-2.5 1.9c0 1.6-.9 2.1-4.5 2.7-3.5.5-4.5 1-4.5 2.5 0 1.2-.7 1.9-1.9 1.9-1.3 0-2.1.8-2.3 2.2-.2 1.5-1.1 2.4-2.5 2.6-1.5.2-2.3 1-2.3 2.2 0 1.2-.8 2-2.2 2.2-1.5.2-2.4 1.1-2.6 2.5-.2 1.5-1 2.3-2.3 2.3-1.2 0-1.9.7-1.9 1.9 0 1.3-.8 2.1-2.2 2.3-1.5.2-2.4 1.1-2.6 2.5-.2 1.4-1.1 2.3-2.5 2.5-1.4.2-2.3 1.1-2.5 2.5-.2 1.5-1 2.3-2.3 2.3-1.2 0-1.9.7-1.9 1.9 0 1.3-.8 2.1-2.2 2.3-1.5.2-2.4 1.1-2.6 2.5-.2 1.5-1 2.3-2.3 2.3-1.4 0-1.9.7-1.9 2.5s-.5 2.5-1.9 2.5c-1.5 0-2.1 1-2.6 3.9-.5 3.1-1.2 4.1-2.8 4.3-1.4.2-2.3 1.1-2.5 2.5-.2 1.5-1 2.3-2.3 2.3-1.4 0-1.9.7-1.9 2.5s-.5 2.5-1.9 2.5c-1.6 0-2.1.9-2.7 4.5-.5 3.5-1 4.5-2.5 4.5-1.3 0-1.9.7-1.9 2.1 0 1.2-.8 2.3-1.9 2.6-1.3.3-2.2 1.7-2.6 4.4-.5 2.9-1.1 3.9-2.6 3.9-1.4 0-1.9.7-1.9 2.6 0 1.7-.6 2.8-2 3.1-1.4.4-2.2 1.7-2.6 4.4-.5 2.8-1.1 3.9-2.4 3.9-1.4 0-2 1.1-2.5 5-.6 4-1.1 5-2.6 5-1.6 0-1.9.7-1.9 4.5s-.3 4.5-1.9 4.5c-1.6 0-2.1.9-2.7 4.5-.5 3.5-1 4.5-2.5 4.5-1.7 0-1.9.8-1.9 6.4 0 5.9-.2 6.5-2.2 6.8-2.1.3-2.3.9-2.6 7-.3 5.9-.5 6.8-2.2 6.8-1.7 0-1.9.9-2.2 6.7-.3 6.2-.5 6.8-2.6 7.1-2.1.3-2.2.7-2.2 11.3 0 10-.2 10.9-1.9 10.9s-1.9 1.3-2.6 18.5c-.7 17.2-.8 18.5-2.6 18.5C0 306 0 317.9 0 892c0 569 .1 586 1.8 586s2 1.3 2.5 12.7c.4 7.1.7 16.1.7 20 0 6.6.2 7.3 2 7.3s2 .7 2 8.4c0 10.8.7 14.3 3.1 14.9 1.6.4 1.9 1.5 1.9 7.6 0 6.4.2 7.1 2 7.1s2 .7 2 5.4c0 8.1.9 11.6 3.1 11.6 1.6 0 1.9.8 1.9 5s.3 5 1.9 5c1.9 0 3.1 3.9 3.1 10.2 0 2.1.5 2.8 2 2.8 1.7 0 2 .7 2 4.4 0 3.9.3 4.5 2.3 4.8 1.8.2 2.3 1 2.5 4.5.3 3.5.7 4.3 2.3 4.3 1.4 0 1.9.7 1.9 3s.5 3 1.9 3c1.6 0 2.1.9 2.7 4.5.5 3.4 1.1 4.5 2.4 4.5 1.3 0 2 1.1 2.5 3.9.4 2.7 1.3 4.1 2.6 4.4 1.1.3 1.9 1.4 1.9 2.6 0 1.4.6 2.1 1.9 2.1 1.5 0 2 1 2.5 4.5.6 3.6 1.1 4.5 2.7 4.5 1.4 0 1.9.7 1.9 2.5 0 2 .5 2.5 2.5 2.5s2.5.5 2.5 2.5c0 1.8.5 2.5 2 2.5 1.3 0 2 .7 2 2s.7 2 1.9 2c1.6 0 2.1.9 2.6 4.4.6 3.6 1.2 4.6 2.9 4.8 1.3.2 2.2 1.1 2.4 2.5.2 1.5 1 2.3 2.3 2.3 1.2 0 1.9.7 1.9 1.9 0 1.3.8 2.1 2.3 2.3 1.4.2 2.3 1.1 2.5 2.5.2 1.5 1 2.3 2.3 2.3 1.2 0 1.9.7 1.9 1.9 0 1.3.8 2.1 2.3 2.3 1.4.2 2.3 1.1 2.5 2.5.2 1.5 1 2.3 2.3 2.3 1.2 0 1.9.7 1.9 1.9 0 1.3.8 2.1 2.3 2.3 1.4.2 2.3 1.1 2.5 2.4.2 1.7 1.2 2.3 4.8 2.9 3.5.5 4.4 1 4.4 2.6 0 1.2.7 1.9 2 1.9s2 .7 2 2c0 1.5.7 2 2.5 2 2 0 2.5.5 2.5 2.5s.5 2.5 2.5 2.5c1.8 0 2.5.5 2.5 1.9 0 1.5 1 2.1 4 2.6s4 1.1 4 2.6c0 1.3.7 1.9 2.4 1.9 1.8 0 2.5.6 2.8 2.2.2 1.9 1 2.4 4.6 2.6 3.4.3 4.2.7 4.2 2.3 0 1.4.7 1.9 2.5 1.9 2 0 2.5.5 2.5 2.5 0 2.3.4 2.5 4.5 2.5 3.7 0 4.5.3 4.5 1.9 0 1.5 1 2 4.5 2.5 3.6.6 4.5 1.1 4.5 2.7 0 1.4.7 1.9 2.5 1.9s2.5.5 2.5 1.9c0 1.5 1 2 5 2.6 4 .6 5 1.1 5 2.6s.7 1.9 3.4 1.9c6.2 0 9.6 1.1 9.6 3.1 0 1.6.8 1.9 4.5 1.9 3.8 0 4.5.3 4.5 2 0 1.6.7 2 3.4 2 5.8 0 9.4 1.1 9.9 3.1.4 1.5 1.4 1.9 5.1 1.9 3.9 0 4.6.3 4.6 2s.7 2 5.3 2c8.7 0 12.7 1 12.7 3.1 0 1.7.8 1.9 7 1.9s7 .2 7 1.9c0 1.5 1.1 1.9 6.8 2.4 3.7.4 8.8.7 11.5.7 4 0 4.7.3 4.7 2 0 2 .7 2 38.5 2s38.5 0 38.5-2c0-1.5-.7-2-2.7-2-6.4 0-10.3-1.2-10.3-3.1 0-1.7-.8-1.9-7-1.9-6.3 0-7-.2-7-1.9 0-1.6-.9-2.1-4.5-2.7-3.5-.5-4.5-1-4.5-2.5s-.7-1.9-3.4-1.9c-5.8 0-9.4-1.1-9.9-3.1-.4-1.5-1.4-1.9-4.6-1.9-3.4 0-4.1-.3-4.1-2 0-1.5-.7-2-2.6-2-1.7 0-2.8-.6-3.1-2-.4-1.4-1.7-2.1-4.9-2.6-3.4-.5-4.4-1.1-4.4-2.5 0-1.3-1.1-1.9-4.5-2.5-3.5-.5-4.5-1-4.5-2.5 0-1.4-.7-1.9-2.5-1.9s-2.5-.5-2.5-1.9c0-1.5-1-2.1-4-2.6s-4-1.1-4-2.6c0-1.4-.7-1.9-2.5-1.9-2 0-2.5-.5-2.5-2.5s-.5-2.5-2.5-2.5c-1.8 0-2.5-.5-2.5-1.9 0-1.6-.9-2.1-4.5-2.7-3.5-.5-4.5-1-4.5-2.5 0-1.2-.7-1.9-1.9-1.9-1.3 0-2.1-.8-2.3-2.3-.2-1.4-1.1-2.3-2.5-2.5-1.5-.2-2.3-1-2.3-2.3 0-1.2-.7-1.9-1.9-1.9-1.3 0-2.1-.8-2.3-2.3-.2-1.4-1.1-2.3-2.5-2.5-1.5-.2-2.3-1-2.3-2.2 0-1.2-.8-2-2.2-2.2-1.5-.2-2.4-1.1-2.6-2.6-.2-1.4-1-2.2-2.3-2.2-1.4 0-1.9-.7-1.9-2.5s-.5-2.5-1.9-2.5c-1.5 0-2.1-1-2.6-4s-1.1-4-2.6-4c-1.4 0-1.9-.7-1.9-2.5 0-2-.5-2.5-2.5-2.5s-2.5-.5-2.5-2.5c0-1.8-.5-2.5-1.9-2.5-1.6 0-2.1-.9-2.7-4.5-.5-3.5-1-4.5-2.5-4.5-1.4 0-1.9-.7-1.9-2.5s-.5-2.5-1.9-2.5c-1.6 0-2.1-.9-2.7-4.5-.5-3.4-1.1-4.5-2.4-4.5-1.3 0-1.9-1.1-2.4-4.5-.6-3.6-1.1-4.5-2.7-4.5s-1.9-.7-1.9-4.5-.3-4.5-1.9-4.5c-1.6 0-2.1-.9-2.7-4.5-.5-3.5-1-4.5-2.5-4.5-1.6 0-1.9-.8-1.9-4.5s-.3-4.5-1.9-4.5c-2 0-3.1-3.4-3.1-9.6 0-2.7-.4-3.4-2-3.4-1.7 0-2-.7-2-5 0-4.2-.3-5-1.9-5-2.2 0-3.1-3.5-3.1-12.1 0-5.2-.2-5.9-2-5.9-1.7 0-2-.7-2-3.9 0-5.7-1.1-10.1-2.5-10.1-1.7 0-2.5-4.7-2.5-14.6 0-7.5-.2-8.4-1.8-8.4-1.7 0-2-1.2-2.5-10.7-.4-5.8-.7-13-.7-16 0-4.6-.2-5.3-2-5.3-2 0-2-.7-2-612.5 0-598.6 0-612.5 1.9-612.5 1.7 0 1.9-1.3 2.6-18.5.7-17.2.8-18.5 2.6-18.5 1.7 0 1.9-.9 1.9-10.9 0-12.3.7-17.1 2.5-17.1 1.4 0 2.5-5.3 2.5-12.8 0-4.5.3-5.2 2-5.2 1.8 0 2-.7 2-5.9 0-8.6.9-12.1 3.1-12.1 1.7 0 1.9-.8 1.9-7s.2-7 1.9-7c1.5 0 2-1 2.5-4.5.6-3.6 1.1-4.5 2.7-4.5s1.9-.7 1.9-5 .3-5 1.9-5c1.6 0 2.1-.9 2.7-4.5.5-3.5 1-4.5 2.5-4.5 1.6 0 1.9-.8 1.9-4.5 0-4.1.2-4.5 2.5-4.5s2.5-.4 2.5-4.5c0-3.8.3-4.5 2-4.5 1.5 0 2-.7 2-2.5s.5-2.5 1.9-2.5c1.6 0 2.1-.9 2.7-4.5.5-3.4 1.1-4.5 2.4-4.5 1.2 0 2-.9 2.2-2.3.2-1.4 1.1-2.3 2.6-2.5 1.8-.3 2.2-1 2.2-4.2s.4-3.9 2.3-4.2c1.4-.2 2.3-1.1 2.5-2.6.2-1.4 1-2.2 2.3-2.2 1.4 0 1.9-.7 1.9-2.5 0-2 .5-2.5 2.5-2.5 1.8 0 2.5-.5 2.5-2 0-1.3.7-2 2-2 1.5 0 2-.7 2-2.5 0-2 .5-2.5 2.5-2.5s2.5-.5 2.5-2.5c0-1.8.5-2.5 2-2.5 1.3 0 2-.7 2-2 0-1.5.7-2 2.5-2 2 0 2.5-.5 2.5-2.5 0-1.8.5-2.5 2-2.5 1.3 0 2-.7 2-2 0-1.5.7-2 2.5-2 2 0 2.5-.5 2.5-2.5s.5-2.5 2.5-2.5c1.8 0 2.5-.5 2.5-1.9 0-1.3.8-2.1 2.3-2.3 1.4-.2 2.3-1.1 2.5-2.6.3-1.8 1-2.2 4.2-2.2s3.9-.4 4.2-2.3c.2-1.4 1.1-2.3 2.6-2.5 1.4-.2 2.2-1 2.2-2.3 0-1.4.7-1.9 2.5-1.9s2.5-.5 2.5-1.9c0-1.6.9-2.1 4.5-2.7 3.4-.5 4.5-1.1 4.5-2.4 0-1.3 1.1-1.9 3.9-2.4 2.7-.4 4-1.2 4.4-2.6.3-1.4 1.4-2 3.1-2 1.9 0 2.6-.5 2.6-2 0-1.7.7-2 4.1-2 3.2 0 4.2-.4 4.6-2 .4-1.4 1.7-2.1 4.9-2.6 3.4-.5 4.4-1.1 4.4-2.5 0-1.6.8-1.9 4.5-1.9 4.1 0 4.5-.2 4.5-2.5 0-2.4.2-2.5 6.5-2.5 5.7 0 6.5-.2 6.5-1.9 0-1.5 1-2 5-2.6 4-.6 5-1.1 5-2.6 0-1.8-1.3-1.9-39-1.9-38.3 0-39 0-39 2zM1756 1.9c0 1.9 3.9 3.1 10.8 3.1 2.5 0 3.2.4 3.2 2 0 1.7.7 2 5 2 4.2 0 5 .3 5 1.9 0 2 3.4 3.1 9.6 3.1 2.7 0 3.4.4 3.4 1.9s1 2 4.5 2.5c3.6.6 4.5 1.1 4.5 2.7s.7 1.9 4.5 1.9 4.5.3 4.5 2c0 1.5.7 2 2.6 2 1.7 0 2.8.6 3.1 2 .4 1.4 1.7 2.2 4.4 2.6 2.8.5 3.9 1.1 3.9 2.4 0 1.3 1.1 1.9 4.5 2.4 3.6.6 4.5 1.1 4.5 2.7 0 1.4.7 1.9 2.5 1.9s2.5.5 2.5 1.9c0 1.6.9 2.1 4.5 2.7 3.4.5 4.5 1.1 4.5 2.4 0 1.2.9 2 2.3 2.2 1.4.2 2.3 1.1 2.5 2.5.2 1.5 1 2.3 2.3 2.3 1.2 0 1.9.7 1.9 2 0 1.5.7 2 2.5 2 2 0 2.5.5 2.5 2.5s.5 2.5 2.5 2.5c1.8 0 2.5.5 2.5 2 0 1.3.7 2 2 2 1.5 0 2 .7 2 2.5 0 2 .5 2.5 2.5 2.5 1.8 0 2.5.5 2.5 1.9 0 1.3.8 2.1 2.3 2.3 1.4.2 2.3 1.1 2.5 2.5.2 1.5 1 2.3 2.3 2.3 1.2 0 1.9.7 1.9 2s.7 2 2 2c1.5 0 2 .7 2 2.5 0 2 .5 2.5 2.5 2.5s2.5.5 2.5 2.5c0 1.8.5 2.5 1.9 2.5 1.3 0 2.1.8 2.3 2.2.2 1.5 1.1 2.4 2.6 2.6 1.8.3 2.2 1 2.2 4.2s.4 3.9 2.3 4.2c1.4.2 2.3 1.1 2.5 2.5.2 1.5 1 2.3 2.3 2.3 1.6 0 1.9.7 1.9 4.5 0 4.1.2 4.5 2.5 4.5 2 0 2.5.5 2.5 2.5 0 1.8.5 2.5 2 2.5 1.7 0 2 .7 2 4.5 0 4.1.2 4.5 2.5 4.5s2.5.4 2.5 4.5c0 3.7.3 4.5 1.9 4.5 1.5 0 2 1 2.5 4.5.6 3.6 1.1 4.5 2.7 4.5s1.9.7 1.9 5c0 4.2.3 5 1.9 5 2 0 3.1 3.4 3.1 9.6 0 2.7.4 3.4 2 3.4 1.7 0 2 .7 2 5 0 4.2.3 5 1.9 5 2.2 0 3.1 3.5 3.1 12.1 0 5.2.2 5.9 2 5.9 1.7 0 2 .7 2 5.2 0 7.5 1.1 12.8 2.5 12.8 1.8 0 2.5 4.8 2.5 17.1 0 9.9.2 10.9 1.8 10.9 1.7 0 2 1.3 2.5 13.7.4 7.5.7 18.7.7 25 0 10.6.1 11.3 2 11.3 2 0 2 .7 2 103v103h-2.5c-1.8 0-2.5.5-2.5 2 0 2-.7 2-578.5 2H805v769h636v-151H956V659h1011v423c0 412.7 0 423-1.9 423-1.7 0-1.9 1.3-2.6 18-.7 16.8-.8 18-2.6 18s-1.9.9-1.9 11.6c0 10.5-.2 11.6-1.9 12.1-1.9.5-3.1 7-3.1 17.4 0 4.2-.3 4.9-2 4.9-1.8 0-2 .7-2 7 0 6.2-.2 7-1.9 7-2 0-3.1 3.4-3.1 10.1 0 3.2-.3 3.9-2 3.9-1.6 0-2 .7-2 3.4 0 6.2-1.1 9.6-3.1 9.6-1.6 0-1.9.8-1.9 5 0 4.3-.3 5-1.9 5-1.6 0-2.1.9-2.7 4.5-.5 3.5-1 4.5-2.5 4.5-1.6 0-1.9.8-1.9 4.5 0 4.1-.2 4.5-2.5 4.5-2 0-2.5.5-2.5 2.5 0 1.8-.5 2.5-1.9 2.5-1.6 0-2 .8-2.3 4.2-.2 3.6-.7 4.4-2.5 4.6-1.9.3-2.3 1-2.3 4.3 0 3.2-.3 3.9-2 3.9-1.5 0-2 .7-2 2.5 0 2-.5 2.5-2.5 2.5s-2.5.5-2.5 2.5c0 1.8-.5 2.5-1.9 2.5-1.6 0-2.1.9-2.7 4.5-.5 3.4-1.1 4.5-2.4 4.5-1.2 0-2 .9-2.2 2.2-.2 1.5-1.1 2.4-2.5 2.6-1.5.2-2.3 1-2.3 2.3 0 1.2-.7 1.9-2 1.9-1.5 0-2 .7-2 2.5 0 2-.5 2.5-2.5 2.5-1.8 0-2.5.5-2.5 2 0 1.3-.7 2-2 2-1.5 0-2 .7-2 2.5 0 2-.5 2.5-2.5 2.5s-2.5.5-2.5 2.5-.5 2.5-2.5 2.5c-1.8 0-2.5.5-2.5 2 0 1.3-.7 2-1.9 2-1.3 0-2.1.8-2.3 2.2-.2 1.5-1.1 2.4-2.5 2.6-1.4.2-2.3 1-2.3 2.1 0 1.4-1 2-3.9 2.5-2.7.4-4 1.2-4.4 2.6-.3 1.2-1.4 2-2.6 2-1.4 0-2.1.6-2.1 2 0 1.5-.7 2-2.5 2-2 0-2.5.5-2.5 2.5 0 2.3-.4 2.5-4.5 2.5-3.8 0-4.5.3-4.5 1.9 0 1.3-.8 2.1-2.2 2.3-1.5.2-2.4 1.1-2.6 2.6-.3 1.9-.9 2.2-4.8 2.2-3.7 0-4.4.3-4.4 1.9 0 1.6-.9 2.1-4.5 2.7-3.5.5-4.5 1-4.5 2.5 0 1.6-.8 1.9-4.4 1.9-3.9 0-4.5.3-4.8 2.2-.3 2-1 2.3-5 2.6-4 .3-4.8.6-4.8 2.3 0 1.5-.7 1.9-3.4 1.9-6.2 0-9.6 1.1-9.6 3.1 0 1.7-.8 1.9-6.5 1.9-5.8 0-6.5.2-6.5 1.9s-1 2.1-7 2.7c-5.9.6-7 .9-7 2.5 0 1.8 1.7 1.9 43 1.9s43-.1 43-1.9c0-1.9 3.9-3.1 10.8-3.1 2.5 0 3.2-.4 3.2-2 0-1.9.7-2 9-2 8.1 0 9-.2 9-1.9 0-1.9 3.9-3.1 10.8-3.1 2.5 0 3.2-.4 3.2-2 0-1.7.7-2 4.6-2 3.7 0 4.7-.4 5.1-1.9.5-2 4.1-3.1 9.9-3.1 2.7 0 3.4-.4 3.4-1.9s1-2 4.5-2.5c3.6-.6 4.5-1.1 4.5-2.7s.7-1.9 5-1.9 5-.3 5-1.9c0-1.6.9-2.1 4.5-2.7 3.5-.5 4.5-1 4.5-2.5 0-1.6.8-1.9 4.5-1.9 3.8 0 4.5-.3 4.5-1.9 0-1.6.9-2.1 4.5-2.7 3.4-.5 4.5-1.1 4.5-2.4 0-1.3 1.1-1.9 4.5-2.4 3.6-.6 4.5-1.1 4.5-2.7 0-1.4.7-1.9 2.5-1.9s2.5-.5 2.5-1.9c0-1.5 1-2.1 4-2.6s4-1.1 4-2.6c0-1.4.7-1.9 2.5-1.9s2.5-.5 2.5-1.9c0-1.5 1-2 4.5-2.5 3.6-.6 4.5-1.1 4.5-2.7 0-1.4.7-1.9 2.5-1.9 2 0 2.5-.5 2.5-2.5s.5-2.5 2.5-2.5c1.8 0 2.5-.5 2.5-2 0-1.4.7-2 2.1-2 1.2 0 2.3-.8 2.6-2 .4-1.4 1.7-2.2 4.4-2.6 2.9-.5 3.9-1.2 4.1-2.8.2-1.3 1.1-2.2 2.6-2.4 1.4-.2 2.2-1 2.2-2.3 0-1.2.7-1.9 1.9-1.9 1.3 0 2.1-.8 2.3-2.2.2-1.5 1.1-2.4 2.6-2.6 1.4-.2 2.2-1 2.2-2.3 0-1.2.7-1.9 1.9-1.9 1.3 0 2.1-.8 2.3-2.3.2-1.4 1.1-2.3 2.6-2.5 1.4-.2 2.2-1 2.2-2.4 0-1.1.8-2.2 2-2.5 1.1-.3 2-1.4 2-2.4 0-1.3.7-1.9 2.4-1.9 2 0 2.5-.6 3-4.5.6-3.6 1.1-4.5 2.7-4.5 1.2 0 1.9-.7 1.9-2s.7-2 2-2c1.5 0 2-.7 2-2.5 0-2 .5-2.5 2.5-2.5s2.5-.5 2.5-2.5c0-1.8.5-2.5 1.9-2.5 1.6 0 2.1-.9 2.7-4.5.5-3.5 1-4.5 2.5-4.5 1.4 0 1.9-.7 1.9-2.5s.5-2.5 1.9-2.5c1.5 0 2.1-1 2.6-4s1.1-4 2.6-4c1.4 0 1.9-.7 1.9-2.6 0-1.7.6-2.8 2-3.1 1.4-.4 2.2-1.7 2.6-4.4.5-2.9 1.1-3.9 2.5-3.9s1.9-.9 2.1-4.7c.3-4.1.6-4.8 2.6-5.1 1.9-.3 2.2-.9 2.2-4.8 0-3.7.3-4.4 1.9-4.4 1.6 0 2.1-.9 2.7-4.5.5-3.5 1-4.5 2.5-4.5 1.7 0 1.9-.8 1.9-6.4 0-5.9.2-6.5 2.3-6.8 2-.3 2.2-.9 2.5-7.1.3-5.9.5-6.7 2.2-6.7 1.6 0 2-.7 2-3.9 0-6.7 1.1-10.1 3.1-10.1 1.7 0 1.9-.9 1.9-9 0-8.3.1-9 2-9 1.8 0 2-.7 2-6.3 0-3.4.3-10.6.7-16 .5-8.5.8-9.7 2.5-9.7s1.8-17 1.8-599.5c0-583.3-.1-599.5-1.9-599.5-1.5 0-1.9-1.1-2.4-6.8-.4-3.7-.7-10-.7-14 0-6.5-.2-7.2-2-7.2-1.9 0-2-.7-2-9 0-8.1-.2-9-1.9-9-2.2 0-3.1-3.5-3.1-12.1 0-5.2-.2-5.9-2-5.9-1.6 0-2-.7-2-3.4 0-5.8-1.1-9.4-3.1-9.9-1.5-.4-1.9-1.4-1.9-5.1 0-3.9-.3-4.6-2-4.6-1.6 0-2-.7-2-3.4 0-6.2-1.1-9.6-3.1-9.6-1.6 0-1.9-.8-1.9-4.5 0-3.8-.3-4.5-1.9-4.5-1.5 0-2-1-2.6-5-.6-4-1.1-5-2.6-5-1.6 0-1.9-.7-1.9-4.5 0-4.1-.2-4.5-2.5-4.5-2 0-2.5-.5-2.5-2.5 0-1.8-.5-2.5-1.9-2.5-1.6 0-2-.8-2.3-4.3-.2-3.5-.7-4.3-2.5-4.5-1.9-.3-2.3-1-2.3-4.2s-.4-3.9-2.2-4.2c-1.5-.2-2.4-1.1-2.6-2.6-.2-1.4-1-2.2-2.3-2.2-1.4 0-1.9-.7-1.9-2.5s-.5-2.5-1.9-2.5c-1.6 0-2.1-.9-2.7-4.5-.5-3.4-1.1-4.5-2.4-4.5-1.2 0-2-.9-2.2-2.3-.2-1.4-1.1-2.3-2.5-2.5-1.5-.2-2.3-1-2.3-2.3 0-1.2-.7-1.9-2-1.9-1.5 0-2-.7-2-2.5 0-2-.5-2.5-2.5-2.5s-2.5-.5-2.5-2.5c0-1.8-.5-2.5-2-2.5-1.3 0-2-.7-2-2 0-1.5-.7-2-2.5-2-2 0-2.5-.5-2.5-2.5s-.5-2.5-2.5-2.5c-1.8 0-2.5-.5-2.5-2 0-1.3-.7-2-1.9-2-1.3 0-2.1-.8-2.3-2.3-.2-1.4-1.1-2.3-2.5-2.5-1.5-.2-2.3-1-2.3-2.2 0-1.2-.8-2-2.2-2.2-1.5-.2-2.4-1.1-2.6-2.6-.2-1.4-1-2.2-2.3-2.2-1.2 0-1.9-.7-1.9-1.9 0-1.5-1-2-4.5-2.5-3.6-.6-4.5-1.1-4.5-2.7 0-1.4-.7-1.9-2.5-1.9s-2.5-.5-2.5-1.9c0-1.3-.8-2.1-2.2-2.3-1.5-.2-2.4-1.1-2.6-2.6-.3-1.8-1-2.2-4.2-2.2s-3.9-.4-4.2-2.3c-.2-1.4-1.1-2.3-2.5-2.5-1.5-.2-2.3-1-2.3-2.3 0-1.6-.7-1.9-4.5-1.9-4.1 0-4.5-.2-4.5-2.5s-.4-2.5-4.5-2.5c-3.8 0-4.5-.3-4.5-2 0-1.5-.7-2-2.5-2-2 0-2.5-.5-2.5-2.5 0-2.3-.4-2.5-4.5-2.5-3.7 0-4.5-.3-4.5-1.9 0-1.5-1-2-4.5-2.5-3.6-.6-4.5-1.1-4.5-2.7s-.7-1.9-4.5-1.9-4.5-.3-4.5-1.9c0-1.5-1-2-5-2.6-4-.6-5-1.1-5-2.6s-.7-1.9-3.4-1.9c-6.2 0-9.6-1.1-9.6-3.1 0-1.6-.8-1.9-5-1.9-4.3 0-5-.3-5-2 0-1.6-.7-2-3.4-2-6.2 0-9.6-1.1-9.6-3.1 0-1.7-.8-1.9-7-1.9s-7-.2-7-1.9-1.1-2-9-2.6c-7.9-.6-9-.9-9-2.6 0-1.8-1.4-1.9-41.5-1.9-39.9 0-41.5.1-41.5 1.9z" fill="#fff"/></svg>