<?xml version="1.0" encoding="utf-8"?><svg width="25" height="25" fill="#77875F" xmlns="http://www.w3.org/2000/svg" viewBox="0 0 25 25"><g clip-path="url(#arclip0)"><path d="M24.185 23.37H22.01a2.457 2.457 0 01-1.957-.979l-2.934-3.913a4.052 4.052 0 00-.816-.813v-1.632a2.448 2.448 0 00-2.445-2.446h-.816V6.522h.816c.78 0 1.114-.998.489-1.468L7.826.163a.815.815 0 00-.978 0L.326 5.054c-.624.468-.293 1.468.49 1.468h.814v16.847H.815a.815.815 0 000 1.631h3.261a.815.815 0 000-1.63h-.815v-4.892h8.152v4.892h-.815a.815.815 0 000 1.63h3.26a.815.815 0 000-1.63h-.815v-4.892h.816c.765 0 1.497.366 1.956.978l2.935 3.914A4.096 4.096 0 0022.01 25h2.175a.815.815 0 000-1.63zM4.89 16.848h-1.63v-4.891h1.63v4.89zm3.261 0h-1.63v-4.891h1.63v4.89zm3.261 0h-1.63v-4.891h1.63v4.89zm0-6.522H3.261V6.522h8.152v3.804zM3.261 4.891l4.076-3.057 4.076 3.057H3.261zm11.413 12.04a4.038 4.038 0 00-.815-.083h-.816v-1.63h.816c.45 0 .815.365.815.815v.898z"/></g><defs><clipPath id="arclip0"><path fill="#fff" d="M0 0h25v25H0z"/></clipPath></defs></svg>