<?xml version="1.0" encoding="utf-8"?><svg width="25" height="25" fill="#77875F" xmlns="http://www.w3.org/2000/svg" viewBox="0 0 25 25"><g clip-path="url(#asclip0)"><path d="M22.27 12.506h-.202c-1.106-4.125-4.807-7.197-9.234-7.344-.866-.248-1.466-1.11-1.466-2.118 0-.871.707-1.58 1.575-1.58.614 0 1.114.502 1.114 1.117a.732.732 0 101.464 0A2.583 2.583 0 0012.943 0a3.045 3.045 0 00-3.04 3.044c0 .859.276 1.656.747 2.286-3.739.71-6.74 3.532-7.718 7.176H2.73A2.733 2.733 0 000 15.235a2.733 2.733 0 002.73 2.728h.291C4.258 22.032 8.04 25 12.5 25c4.46 0 8.242-2.968 9.479-7.037h.29A2.733 2.733 0 0025 15.234a2.733 2.733 0 00-2.73-2.728zM1.464 15.235c0-.672.527-1.223 1.19-1.262a9.998 9.998 0 00.04 2.525 1.266 1.266 0 01-1.23-1.264zm11.035 8.3c-4.655 0-8.442-3.794-8.442-8.457 0-4.664 3.787-8.458 8.442-8.458s8.442 3.794 8.442 8.458c0 4.663-3.787 8.457-8.442 8.457zm9.805-7.037a9.985 9.985 0 00.04-2.525c.663.04 1.19.59 1.19 1.261 0 .686-.549 1.245-1.23 1.264z"/><path d="M10.658 15.07c.002-.651-.254-1.228-.72-1.624a2.316 2.316 0 00-1.497-.531h-.007c-.56 0-1.09.185-1.491.522-.47.394-.728.97-.73 1.62a.732.732 0 001.464.004c0-.114.039-.681.756-.681h.004c.722.002.757.571.756.685a.732.732 0 00.73.735h.003a.733.733 0 00.732-.73zM17.759 13.229a2.416 2.416 0 00-2.378-.007c-.658.377-1.037 1.046-1.04 1.835a.733.733 0 00.731.734h.002a.732.732 0 00.733-.73c0-.266.1-.452.303-.568a.967.967 0 01.913.002c.202.118.3.304.3.57a.732.732 0 00.73.735h.002a.732.732 0 00.732-.73c.003-.79-.372-1.46-1.028-1.841zM14.113 19.04a.732.732 0 00-.732.733.88.88 0 01-1.761 0 .733.733 0 00-1.465 0 2.347 2.347 0 002.345 2.344 2.347 2.347 0 002.346-2.344.733.733 0 00-.733-.732z"/></g><defs><clipPath id="asclip0"><path fill="#fff" d="M0 0h25v25H0z"/></clipPath></defs></svg>