<?xml version="1.0" encoding="utf-8"?><svg width="25" height="25" fill="#77875F" xmlns="http://www.w3.org/2000/svg" viewBox="0 0 25 25"><g clip-path="url(#auclip0)"><path d="M11.982 23.468l-9.88-9.88c-2.803-2.802-2.803-7.363 0-10.166a7.14 7.14 0 015.082-2.105c2.723 0 4.355 1.374 5.318 2.33.973-.958 2.617-2.33 5.312-2.33 1.922 0 3.727.747 5.084 2.105 2.802 2.803 2.802 7.364 0 10.166l-9.88 9.88a.733.733 0 01-1.036 0zM7.184 2.782a5.685 5.685 0 00-4.046 1.676 5.73 5.73 0 000 8.094l9.362 9.362 9.362-9.362a5.73 5.73 0 000-8.094 5.686 5.686 0 00-4.048-1.676c-2.606 0-3.93 1.56-4.796 2.427a.733.733 0 01-1.037 0c-.784-.787-2.147-2.427-4.797-2.427z"/><path d="M13.965 16.947h-2.93a.733.733 0 01-.733-.733v-2.08h-2.08a.733.733 0 01-.732-.733v-2.93c0-.405.328-.733.732-.733h2.08v-2.08c0-.404.328-.732.732-.732h2.93c.405 0 .733.328.733.733v2.08h2.08c.405 0 .733.327.733.732v2.93a.733.733 0 01-.733.733h-2.08v2.08a.733.733 0 01-.732.733zm-2.198-1.465h1.465v-2.08c0-.405.328-.733.733-.733h2.08v-1.466h-2.08a.733.733 0 01-.733-.732V8.39h-1.465v2.08a.733.733 0 01-.733.732h-2.08v1.466h2.08c.405 0 .733.328.733.732v2.08z"/></g><defs><clipPath id="auclip0"><path fill="#fff" d="M0 0h25v25H0z"/></clipPath></defs></svg>