<?xml version="1.0" encoding="utf-8"?><svg width="25" height="25" fill="#77875F" xmlns="http://www.w3.org/2000/svg" viewBox="0 0 25 25"><g clip-path="url(#avclip0)"><path d="M.732 13.965h.845l.955 5.729a3.65 3.65 0 003.612 3.06h12.663c1.797 0 3.37-1.316 3.661-3.06l.955-5.729h.845a.732.732 0 00.732-.732v-2.93a.732.732 0 00-.732-.733h-5.494l-4.181-6.968a.732.732 0 10-1.256.754l3.729 6.214H7.934l3.73-6.215a.732.732 0 10-1.257-.753L6.226 9.57H.732a.732.732 0 00-.732.733v2.93c0 .404.328.732.732.732zm20.291 5.488c-.174 1.047-1.127 1.836-2.216 1.836H6.144a2.19 2.19 0 01-2.167-1.836l-.915-5.488h18.876l-.915 5.488zM1.465 11.035h22.07V12.5H1.465v-1.465z"/><path d="M7.131 19.153a.732.732 0 101.46-.122l-.244-2.93a.732.732 0 10-1.46.122l.244 2.93zM17.078 19.822a.732.732 0 00.79-.67l.245-2.929a.732.732 0 00-1.46-.122l-.244 2.93a.732.732 0 00.669.79zM12.5 19.824a.732.732 0 00.732-.732v-2.93a.732.732 0 10-1.464 0v2.93c0 .404.327.732.732.732z"/></g><defs><clipPath id="avclip0"><path fill="#fff" d="M0 0h25v25H0z"/></clipPath></defs></svg>