<?xml version="1.0" encoding="utf-8"?><svg width="24" height="24" fill="#77875F" xmlns="http://www.w3.org/2000/svg" viewBox="0 0 24 24"><path d="M8.502 7.013l2.763 4.222a.88.88 0 001.47 0L15.5 7.013a.89.89 0 00.05-.086 3.954 3.954 0 00-.167-3.878A3.947 3.947 0 0012 1.16a3.947 3.947 0 00-3.382 1.89 3.954 3.954 0 00-.166 3.878c.015.03.031.058.05.086zM12 2.917c.774 0 1.48.394 1.886 1.054.4.649.44 1.44.113 2.124L12 9.149l-1.998-3.054a2.208 2.208 0 01.113-2.124A2.201 2.201 0 0112 2.917zM12.879 17.069V13.4a.879.879 0 10-1.758 0v3.669a2.757 2.757 0 00-1.872 2.608 2.755 2.755 0 002.75 2.753 2.755 2.755 0 002.752-2.753c0-1.21-.785-2.24-1.872-2.608zm-.88 3.604a.996.996 0 010-1.991.995.995 0 010 1.99zM10.266 12.992a.879.879 0 00-.829-1.55l-3.23 1.726a2.735 2.735 0 00-1.086-.629 2.732 2.732 0 00-2.096.206 2.758 2.758 0 00-1.131 3.725c.346.649.924 1.124 1.628 1.338a2.74 2.74 0 002.095-.206 2.759 2.759 0 001.417-2.882l3.232-1.728zm-5.478 3.06a.985.985 0 01-.755.074.998.998 0 01.287-1.949.998.998 0 01.877.527.997.997 0 01-.409 1.348zM20.975 12.745a2.73 2.73 0 00-2.096-.206 2.737 2.737 0 00-1.087.63l-3.229-1.727a.879.879 0 10-.829 1.55l3.232 1.728a2.759 2.759 0 002.71 3.208 2.758 2.758 0 002.43-1.458 2.758 2.758 0 00-1.13-3.725zm-.42 2.898a.987.987 0 01-.588.483.985.985 0 01-.755-.074.998.998 0 01.468-1.875.998.998 0 01.875 1.465z"/></svg>