<?xml version="1.0" encoding="utf-8"?><svg width="25" height="25" fill="#77875F" xmlns="http://www.w3.org/2000/svg" viewBox="0 0 25 25"><g clip-path="url(#atclip0)"><path d="M24.268 3.71H13.965c-.4 0-.775.109-1.098.296A5.135 5.135 0 008.105.781H3.662a.732.732 0 00-.732.733V3.71H.732A.732.732 0 000 4.443v17.578c0 .405.328.733.732.733h10.303c.404 0 .733.328.733.732a.732.732 0 101.464 0c0-.404.329-.732.733-.732h10.303A.732.732 0 0025 22.02V4.444a.732.732 0 00-.732-.732zM4.395 2.247h3.71a3.666 3.666 0 013.663 3.662v13.994a5.112 5.112 0 00-3.663-1.543h-3.71V2.246zm-2.93 2.93H2.93v13.916c0 .404.328.732.732.732h4.443c1.196 0 2.26.576 2.928 1.465H1.465V5.176zm22.07 16.113h-9.57c-.257 0-.503.045-.733.126V5.908c0-.404.329-.732.733-.732h9.57v16.113z"/><path d="M15.43 11.035h5.908a.732.732 0 000-1.465H15.43a.732.732 0 000 1.465zM15.43 8.105h5.908a.732.732 0 000-1.464H15.43a.732.732 0 000 1.464zM15.43 13.965h5.908a.732.732 0 100-1.465H15.43a.732.732 0 100 1.465zM15.43 16.895h5.908a.732.732 0 100-1.465H15.43a.732.732 0 100 1.465zM15.43 19.824h5.908a.732.732 0 100-1.465H15.43a.732.732 0 100 1.465z"/></g><defs><clipPath id="atclip0"><path fill="#fff" d="M0 0h25v25H0z"/></clipPath></defs></svg>