<?xml version="1.0" encoding="utf-8"?><svg width="50" height="69" fill="none" xmlns="http://www.w3.org/2000/svg" viewBox="0 0 50 69"><path d="M0 24.886C0 38.63 24.886 69 24.886 69s24.886-30.37 24.886-44.114C49.772 11.142 38.63 0 24.886 0S0 11.142 0 24.886z" fill="#77875F"/><g clip-path="url(#beclip0)" fill="#F6F6F6"><path d="M12.732 28.965h.845l.955 5.729a3.65 3.65 0 003.612 3.06h12.663c1.797 0 3.37-1.316 3.661-3.06l.955-5.729h.845a.732.732 0 00.732-.732v-2.93a.732.732 0 00-.732-.733h-5.494l-4.181-6.968a.732.732 0 10-1.256.753l3.729 6.215h-9.132l3.73-6.215a.732.732 0 10-1.257-.753l-4.181 6.968h-5.494a.732.732 0 00-.732.733v2.93c0 .404.328.732.732.732zm20.291 5.488c-.174 1.047-1.127 1.836-2.216 1.836H18.144a2.19 2.19 0 01-2.167-1.836l-.915-5.488h18.876l-.915 5.488zm-19.558-8.418h22.07V27.5h-22.07v-1.465z"/><path d="M19.131 34.153a.733.733 0 001.46-.122l-.244-2.93a.732.732 0 10-1.46.122l.244 2.93zM29.078 34.822a.732.732 0 00.79-.67l.245-2.929a.732.732 0 00-1.46-.122l-.244 2.93a.732.732 0 00.669.79zM24.5 34.824a.732.732 0 00.732-.732v-2.93a.732.732 0 10-1.464 0v2.93c0 .404.328.732.732.732z"/></g><defs><clipPath id="beclip0"><path fill="#fff" transform="translate(12 15)" d="M0 0h25v25H0z"/></clipPath></defs></svg>