<?xml version="1.0" encoding="utf-8"?><svg width="50" height="69" fill="none" xmlns="http://www.w3.org/2000/svg" viewBox="0 0 50 69"><path d="M0 24.886C0 38.63 24.886 69 24.886 69s24.886-30.37 24.886-44.114C49.772 11.142 38.63 0 24.886 0S0 11.142 0 24.886z" fill="#77875F"/><g clip-path="url(#bdclip0)"><path d="M23.982 40.468l-9.88-9.88c-2.803-2.803-2.803-7.363 0-10.166a7.14 7.14 0 015.082-2.105c2.723 0 4.355 1.374 5.318 2.33.973-.958 2.617-2.33 5.312-2.33a7.142 7.142 0 015.084 2.105c2.802 2.803 2.802 7.363 0 10.166l-9.88 9.88a.733.733 0 01-1.036 0zm-4.798-20.686c-1.53 0-2.966.595-4.047 1.676a5.73 5.73 0 000 8.094l9.363 9.362 9.362-9.362a5.73 5.73 0 000-8.094 5.686 5.686 0 00-4.048-1.676c-2.606 0-3.93 1.56-4.796 2.427a.733.733 0 01-1.037 0c-.784-.787-2.147-2.427-4.797-2.427z" fill="#fff"/><path d="M23.982 40.468l-9.88-9.88c-2.803-2.803-2.803-7.363 0-10.166a7.14 7.14 0 015.082-2.105c2.723 0 4.355 1.374 5.318 2.33.973-.958 2.617-2.33 5.312-2.33a7.142 7.142 0 015.084 2.105c2.802 2.803 2.802 7.363 0 10.166l-9.88 9.88a.733.733 0 01-1.036 0zm-4.798-20.686c-1.53 0-2.966.595-4.047 1.676a5.73 5.73 0 000 8.094l9.363 9.362 9.362-9.362a5.73 5.73 0 000-8.094 5.686 5.686 0 00-4.048-1.676c-2.606 0-3.93 1.56-4.796 2.427a.733.733 0 01-1.037 0c-.784-.787-2.147-2.427-4.797-2.427z" fill="url(#bdpaint0_linear)"/><path d="M25.965 33.947h-2.93a.733.733 0 01-.733-.733v-2.08h-2.08a.733.733 0 01-.733-.733v-2.93c0-.405.328-.733.733-.733h2.08v-2.08c0-.404.328-.732.732-.732h2.93c.405 0 .734.328.734.733v2.08h2.08c.404 0 .732.327.732.732v2.93a.733.733 0 01-.733.733h-2.08v2.08a.733.733 0 01-.732.733zm-2.198-1.466h1.465v-2.08c0-.404.328-.732.733-.732h2.08v-1.466h-2.08a.733.733 0 01-.733-.732v-2.08h-1.465v2.08a.733.733 0 01-.733.732h-2.08v1.466h2.08c.405 0 .733.328.733.732v2.08z" fill="#fff"/><path d="M25.965 33.947h-2.93a.733.733 0 01-.733-.733v-2.08h-2.08a.733.733 0 01-.733-.733v-2.93c0-.405.328-.733.733-.733h2.08v-2.08c0-.404.328-.732.732-.732h2.93c.405 0 .734.328.734.733v2.08h2.08c.404 0 .732.327.732.732v2.93a.733.733 0 01-.733.733h-2.08v2.08a.733.733 0 01-.732.733zm-2.198-1.466h1.465v-2.08c0-.404.328-.732.733-.732h2.08v-1.466h-2.08a.733.733 0 01-.733-.732v-2.08h-1.465v2.08a.733.733 0 01-.733.732h-2.08v1.466h2.08c.405 0 .733.328.733.732v2.08z" fill="url(#bdpaint1_linear)"/></g><defs><linearGradient id="bdpaint0_linear" x1="24.5" y1="18.317" x2="24.5" y2="40.683" gradientUnits="userSpaceOnUse"><stop stop-color="#fff"/><stop offset="1" stop-color="#fff" stop-opacity="0"/></linearGradient><linearGradient id="bdpaint1_linear" x1="24.5" y1="23.926" x2="24.5" y2="33.947" gradientUnits="userSpaceOnUse"><stop stop-color="#fff"/><stop offset="1" stop-color="#fff" stop-opacity="0"/></linearGradient><clipPath id="bdclip0"><path fill="#fff" transform="translate(12 17)" d="M0 0h25v25H0z"/></clipPath></defs></svg>