<?xml version="1.0" encoding="utf-8"?><svg width="14" height="14" fill="none" xmlns="http://www.w3.org/2000/svg" viewBox="0 0 14 14"><path d="M3.911 10.608l9.597-3.536a.359.359 0 00.23-.373.355.355 0 00-.303-.316l-5.038-.72-.72-5.037A.356.356 0 006.99.552L3.453 10.15a.357.357 0 00.458.459z" fill="#fff"/><path d="M3.911 10.608l9.597-3.536a.359.359 0 00.23-.373.355.355 0 00-.303-.316l-5.038-.72-.72-5.037A.356.356 0 006.99.552L3.453 10.15a.357.357 0 00.458.459z" fill="url(#bhpaint0_linear)"/><defs><linearGradient id="bhpaint0_linear" x1="10.354" y1="10.272" x2="3.788" y2="3.706" gradientUnits="userSpaceOnUse"><stop stop-color="#fff"/><stop offset="1" stop-color="#fff" stop-opacity="0"/></linearGradient></defs></svg>