<?xml version="1.0" encoding="utf-8"?><svg width="50" height="69" fill="none" xmlns="http://www.w3.org/2000/svg" viewBox="0 0 50 69"><path d="M0 24.886C0 38.63 24.886 69 24.886 69s24.886-30.37 24.886-44.114C49.772 11.142 38.63 0 24.886 0S0 11.142 0 24.886z" fill="#77875F"/><g clip-path="url(#bcclip0)"><path d="M36.268 16.71H25.965c-.4 0-.775.109-1.099.296a5.135 5.135 0 00-4.76-3.225h-4.444a.732.732 0 00-.732.733v2.197h-2.198a.732.732 0 00-.732.732v17.579c0 .404.328.732.732.732h10.303c.404 0 .733.329.733.732a.732.732 0 101.464 0c0-.403.329-.732.733-.732h10.303a.732.732 0 00.732-.732V17.443a.732.732 0 00-.732-.732zm-19.873-1.464h3.71a3.666 3.666 0 013.663 3.662v13.994a5.112 5.112 0 00-3.663-1.543h-3.71V15.246zm-2.93 2.93h1.465v13.916c0 .404.328.732.732.732h4.443c1.196 0 2.26.576 2.928 1.465h-9.568V18.176zm22.07 16.113h-9.57c-.257 0-.503.045-.733.126V18.908c0-.404.329-.732.733-.732h9.57v16.113z" fill="#fff"/><path d="M36.268 16.71H25.965c-.4 0-.775.109-1.099.296a5.135 5.135 0 00-4.76-3.225h-4.444a.732.732 0 00-.732.733v2.197h-2.198a.732.732 0 00-.732.732v17.579c0 .404.328.732.732.732h10.303c.404 0 .733.329.733.732a.732.732 0 101.464 0c0-.403.329-.732.733-.732h10.303a.732.732 0 00.732-.732V17.443a.732.732 0 00-.732-.732zm-19.873-1.464h3.71a3.666 3.666 0 013.663 3.662v13.994a5.112 5.112 0 00-3.663-1.543h-3.71V15.246zm-2.93 2.93h1.465v13.916c0 .404.328.732.732.732h4.443c1.196 0 2.26.576 2.928 1.465h-9.568V18.176zm22.07 16.113h-9.57c-.257 0-.503.045-.733.126V18.908c0-.404.329-.732.733-.732h9.57v16.113z" fill="url(#bcpaint0_linear)"/><path d="M27.43 24.035h5.908a.732.732 0 000-1.465H27.43a.732.732 0 100 1.465z" fill="#fff"/><path d="M27.43 24.035h5.908a.732.732 0 000-1.465H27.43a.732.732 0 100 1.465z" fill="url(#bcpaint1_linear)"/><path d="M27.43 21.105h5.908a.732.732 0 000-1.464H27.43a.732.732 0 000 1.465z" fill="#fff"/><path d="M27.43 21.105h5.908a.732.732 0 000-1.464H27.43a.732.732 0 000 1.465z" fill="url(#bcpaint2_linear)"/><path d="M27.43 26.965h5.908a.732.732 0 100-1.465H27.43a.732.732 0 100 1.465z" fill="#fff"/><path d="M27.43 26.965h5.908a.732.732 0 100-1.465H27.43a.732.732 0 100 1.465z" fill="url(#bcpaint3_linear)"/><path d="M27.43 29.895h5.908a.732.732 0 100-1.465H27.43a.732.732 0 100 1.465z" fill="#fff"/><path d="M27.43 29.895h5.908a.732.732 0 100-1.465H27.43a.732.732 0 100 1.465z" fill="url(#bcpaint4_linear)"/><path d="M27.43 32.824h5.908a.732.732 0 100-1.465H27.43a.732.732 0 100 1.465z" fill="#fff"/><path d="M27.43 32.824h5.908a.732.732 0 100-1.465H27.43a.732.732 0 100 1.465z" fill="url(#bcpaint5_linear)"/></g><defs><linearGradient id="bcpaint0_linear" x1="24.5" y1="13.781" x2="24.5" y2="37.219" gradientUnits="userSpaceOnUse"><stop stop-color="#fff"/><stop offset="1" stop-color="#fff" stop-opacity="0"/></linearGradient><linearGradient id="bcpaint1_linear" x1="30.384" y1="22.57" x2="30.384" y2="24.035" gradientUnits="userSpaceOnUse"><stop stop-color="#fff"/><stop offset="1" stop-color="#fff" stop-opacity="0"/></linearGradient><linearGradient id="bcpaint2_linear" x1="30.384" y1="19.641" x2="30.384" y2="21.105" gradientUnits="userSpaceOnUse"><stop stop-color="#fff"/><stop offset="1" stop-color="#fff" stop-opacity="0"/></linearGradient><linearGradient id="bcpaint3_linear" x1="30.384" y1="25.5" x2="30.384" y2="26.965" gradientUnits="userSpaceOnUse"><stop stop-color="#fff"/><stop offset="1" stop-color="#fff" stop-opacity="0"/></linearGradient><linearGradient id="bcpaint4_linear" x1="30.384" y1="28.43" x2="30.384" y2="29.895" gradientUnits="userSpaceOnUse"><stop stop-color="#fff"/><stop offset="1" stop-color="#fff" stop-opacity="0"/></linearGradient><linearGradient id="bcpaint5_linear" x1="30.384" y1="31.359" x2="30.384" y2="32.824" gradientUnits="userSpaceOnUse"><stop stop-color="#fff"/><stop offset="1" stop-color="#fff" stop-opacity="0"/></linearGradient><clipPath id="bcclip0"><path fill="#fff" transform="translate(12 13)" d="M0 0h25v25H0z"/></clipPath></defs></svg>