<?xml version="1.0" encoding="utf-8"?><svg width="30" height="30" fill="none" xmlns="http://www.w3.org/2000/svg" viewBox="0 0 30 30"><path d="M27.363.059h-2.93a.879.879 0 00-.878.878v2.637H7.617V.938a.879.879 0 00-.879-.88H.878A.879.879 0 000 .939v28.125c0 .485.394.878.879.878h5.86a.879.879 0 00.878-.878v-2.637h19.746A2.64 2.64 0 0030 23.789V2.695A2.64 2.64 0 0027.363.06zM5.86 3.574H4.395a.879.879 0 000 1.758h1.464V7.09H4.98a.879.879 0 000 1.758h.88v1.757H4.394a.879.879 0 000 1.758h1.464v1.758H4.98a.879.879 0 000 1.758h.88v1.758H4.394a.879.879 0 000 1.758h1.464v1.757H4.98a.879.879 0 000 1.758h.88v1.758H4.394a.879.879 0 000 1.758h1.464v1.758H1.758V1.816h4.101v1.758zM28.242 23.79a.88.88 0 01-.879.879H7.617V5.332h19.746c.308 0 .604-.054.88-.151v18.608zm-.879-20.215h-2.05V1.816h2.05a.88.88 0 010 1.758z" fill="#9C938C"/><path d="M25.605 7.09H10.254a.879.879 0 00-.879.879V22.03c0 .486.394.88.879.88h4.805a.879.879 0 00.879-.88V18.96a2.641 2.641 0 011.757 2.486v.586c0 .486.394.88.88.88h7.03a.879.879 0 00.88-.88V7.97a.879.879 0 00-.88-.88zm-.878 3.515H22.09a.879.879 0 000 1.758h2.637v8.79h-5.284a4.4 4.4 0 00-4.384-4.102.879.879 0 00-.88.879v3.222h-3.046V15.88h3.926a.879.879 0 00.879-.879v-3.516a.879.879 0 00-1.758 0v2.637h-3.047V8.848h6.562V15c0 .485.394.879.88.879h2.929a.879.879 0 000-1.758h-2.05V8.848h5.273v1.757z" fill="#9C938C"/></svg>