<?xml version="1.0" encoding="utf-8"?><svg width="30" height="30" fill="none" xmlns="http://www.w3.org/2000/svg" viewBox="0 0 30 30"><g clip-path="url(#bkclip0)" fill="#9C938C"><path d="M14.837 23.848h-4.688a.879.879 0 100 1.758h4.688a.879.879 0 000-1.758zM14.837 20.332h-4.688a.879.879 0 100 1.758h4.688a.879.879 0 000-1.758z"/><path d="M28.675 17.304l-2.9-2.9a.88.88 0 00-1.243 0l-.613.613V3.516a.879.879 0 00-.879-.88h-5.273V.88a.879.879 0 00-.88-.879H8.1a.879.879 0 00-.88.879v1.758H1.947a.879.879 0 00-.879.879V29.12c0 .486.394.879.88.879H23.04a.879.879 0 00.879-.879v-5.818l4.756-4.756a.879.879 0 000-1.243zM16.009 1.758v3.515H8.978V1.758h7.03zm6.152 26.484H2.825V4.395H7.22v1.757c0 .486.393.88.879.88h8.789a.879.879 0 00.879-.88V4.395h4.394v12.38l-4.43 4.43a.88.88 0 00-.257.621v2.9c0 .486.393.88.878.88h2.9a.878.878 0 00.622-.258l.287-.287v3.181zm-1.272-4.394H19.23V22.19l5.922-5.921 1.658 1.657-5.922 5.922z"/><path d="M17.966 12.698a.879.879 0 00-.393-1.18l-4.687-2.343a.879.879 0 00-.786 0l-4.688 2.344a.879.879 0 00.686 1.614v4.152c0 .486.394.88.88.88h7.03a.879.879 0 00.88-.88v-4.152a.878.878 0 001.078-.435zm-4.594 3.708v-.879a.879.879 0 00-1.758 0v.88H9.856v-4.145l2.637-1.318 2.637 1.318v4.144h-1.758z"/></g><defs><clipPath id="bkclip0"><path fill="#fff" d="M0 0h30v30H0z"/></clipPath></defs></svg>