<?xml version="1.0" encoding="utf-8"?><svg width="50" height="69" fill="none" xmlns="http://www.w3.org/2000/svg" viewBox="0 0 50 69"><path d="M0 24.886C0 38.63 24.886 69 24.886 69s24.886-30.37 24.886-44.114C49.772 11.142 38.63 0 24.886 0S0 11.142 0 24.886z" fill="#77875F"/><g clip-path="url(#bbclip0)"><path d="M34.27 22.506h-.202c-1.106-4.125-4.807-7.197-9.234-7.344-.866-.248-1.466-1.11-1.466-2.118 0-.871.707-1.58 1.575-1.58.614 0 1.114.502 1.114 1.117a.732.732 0 101.464 0A2.583 2.583 0 0024.943 10a3.045 3.045 0 00-3.04 3.044c0 .859.276 1.656.748 2.286-3.74.71-6.742 3.532-7.72 7.176h-.2A2.733 2.733 0 0012 25.235a2.733 2.733 0 002.73 2.728h.291C16.258 32.032 20.04 35 24.5 35c4.46 0 8.242-2.968 9.479-7.037h.29A2.733 2.733 0 0037 25.234a2.733 2.733 0 00-2.73-2.728zm-20.805 2.729c0-.672.527-1.223 1.19-1.262a10.005 10.005 0 00.04 2.525 1.266 1.266 0 01-1.23-1.264zm11.035 8.3c-4.655 0-8.442-3.794-8.442-8.457 0-4.664 3.787-8.457 8.442-8.457s8.442 3.793 8.442 8.457c0 4.663-3.787 8.457-8.442 8.457zm9.805-7.037a9.985 9.985 0 00.04-2.525c.663.04 1.19.59 1.19 1.262 0 .685-.549 1.244-1.23 1.263z" fill="#fff"/><path d="M34.27 22.506h-.202c-1.106-4.125-4.807-7.197-9.234-7.344-.866-.248-1.466-1.11-1.466-2.118 0-.871.707-1.58 1.575-1.58.614 0 1.114.502 1.114 1.117a.732.732 0 101.464 0A2.583 2.583 0 0024.943 10a3.045 3.045 0 00-3.04 3.044c0 .859.276 1.656.748 2.286-3.74.71-6.742 3.532-7.72 7.176h-.2A2.733 2.733 0 0012 25.235a2.733 2.733 0 002.73 2.728h.291C16.258 32.032 20.04 35 24.5 35c4.46 0 8.242-2.968 9.479-7.037h.29A2.733 2.733 0 0037 25.234a2.733 2.733 0 00-2.73-2.728zm-20.805 2.729c0-.672.527-1.223 1.19-1.262a10.005 10.005 0 00.04 2.525 1.266 1.266 0 01-1.23-1.264zm11.035 8.3c-4.655 0-8.442-3.794-8.442-8.457 0-4.664 3.787-8.457 8.442-8.457s8.442 3.793 8.442 8.457c0 4.663-3.787 8.457-8.442 8.457zm9.805-7.037a9.985 9.985 0 00.04-2.525c.663.04 1.19.59 1.19 1.262 0 .685-.549 1.244-1.23 1.263z" fill="url(#bbpaint0_linear)"/><path d="M22.658 25.07c.002-.651-.254-1.228-.72-1.624a2.316 2.316 0 00-1.496-.531h-.008c-.56 0-1.09.185-1.491.522-.47.394-.729.97-.73 1.62a.733.733 0 001.464.004c0-.114.039-.681.756-.681h.004c.722.002.757.571.756.685a.732.732 0 00.73.735h.003a.733.733 0 00.732-.73z" fill="#fff"/><path d="M22.658 25.07c.002-.651-.254-1.228-.72-1.624a2.316 2.316 0 00-1.496-.531h-.008c-.56 0-1.09.185-1.491.522-.47.394-.729.97-.73 1.62a.733.733 0 001.464.004c0-.114.039-.681.756-.681h.004c.722.002.757.571.756.685a.732.732 0 00.73.735h.003a.733.733 0 00.732-.73z" fill="url(#bbpaint1_linear)"/><path d="M29.759 23.229a2.416 2.416 0 00-2.378-.007c-.658.377-1.037 1.046-1.04 1.835a.733.733 0 00.731.734h.002a.732.732 0 00.733-.73c0-.266.1-.452.303-.568a.967.967 0 01.913.002c.202.118.3.304.3.57a.732.732 0 00.73.735h.002a.732.732 0 00.732-.73c.003-.79-.372-1.46-1.028-1.841z" fill="#fff"/><path d="M29.759 23.229a2.416 2.416 0 00-2.378-.007c-.658.377-1.037 1.046-1.04 1.835a.733.733 0 00.731.734h.002a.732.732 0 00.733-.73c0-.266.1-.452.303-.568a.967.967 0 01.913.002c.202.118.3.304.3.57a.732.732 0 00.73.735h.002a.732.732 0 00.732-.73c.003-.79-.372-1.46-1.028-1.841z" fill="url(#bbpaint2_linear)"/><path d="M26.113 29.04a.732.732 0 00-.732.733.88.88 0 01-1.761 0 .733.733 0 00-1.465 0 2.347 2.347 0 002.345 2.344 2.347 2.347 0 002.346-2.344.733.733 0 00-.733-.732z" fill="#fff"/><path d="M26.113 29.04a.732.732 0 00-.732.733.88.88 0 01-1.761 0 .733.733 0 00-1.465 0 2.347 2.347 0 002.345 2.344 2.347 2.347 0 002.346-2.344.733.733 0 00-.733-.732z" fill="url(#bbpaint3_linear)"/></g><defs><linearGradient id="bbpaint0_linear" x1="24.5" y1="10" x2="24.5" y2="35" gradientUnits="userSpaceOnUse"><stop stop-color="#fff"/><stop offset="1" stop-color="#fff" stop-opacity="0"/></linearGradient><linearGradient id="bbpaint1_linear" x1="20.435" y1="22.915" x2="20.435" y2="25.8" gradientUnits="userSpaceOnUse"><stop stop-color="#fff"/><stop offset="1" stop-color="#fff" stop-opacity="0"/></linearGradient><linearGradient id="bbpaint2_linear" x1="28.564" y1="22.913" x2="28.564" y2="25.8" gradientUnits="userSpaceOnUse"><stop stop-color="#fff"/><stop offset="1" stop-color="#fff" stop-opacity="0"/></linearGradient><linearGradient id="bbpaint3_linear" x1="24.5" y1="29.041" x2="24.5" y2="32.117" gradientUnits="userSpaceOnUse"><stop stop-color="#fff"/><stop offset="1" stop-color="#fff" stop-opacity="0"/></linearGradient><clipPath id="bbclip0"><path fill="#fff" transform="translate(12 10)" d="M0 0h25v25H0z"/></clipPath></defs></svg>