<?xml version="1.0" encoding="utf-8"?><svg width="50" height="69" fill="none" xmlns="http://www.w3.org/2000/svg" viewBox="0 0 50 69"><path d="M0 24.886C0 38.63 24.886 69 24.886 69s24.886-30.37 24.886-44.114C49.772 11.142 38.63 0 24.886 0S0 11.142 0 24.886z" fill="#77875F"/><g clip-path="url(#azclip0)"><path d="M38.185 34.37H36.01a2.457 2.457 0 01-1.957-.979l-2.935-3.913a4.052 4.052 0 00-.815-.813v-1.632a2.448 2.448 0 00-2.445-2.446h-.816v-7.065h.816c.78 0 1.114-.998.489-1.468l-6.522-4.891a.816.816 0 00-.978 0l-6.522 4.891c-.624.468-.293 1.468.49 1.468h.814V34.37h-.815a.815.815 0 000 1.63h3.261a.815.815 0 000-1.63h-.815v-4.892h8.152v4.892h-.815a.815.815 0 000 1.63h3.26a.815.815 0 000-1.63h-.814v-4.892h.815c.765 0 1.497.366 1.956.978l2.935 3.914A4.096 4.096 0 0036.01 36h2.175a.815.815 0 000-1.63zM18.89 27.848h-1.63v-4.892h1.63v4.892zm3.261 0h-1.63v-4.892h1.63v4.892zm3.261 0h-1.63v-4.892h1.63v4.892zm0-6.522h-8.152v-3.804h8.152v3.804zm-8.152-5.435l4.076-3.057 4.076 3.057h-8.152zm11.413 12.04a4.038 4.038 0 00-.815-.083h-.816v-1.63h.816c.45 0 .815.365.815.815v.898z" fill="#fff"/><path d="M38.185 34.37H36.01a2.457 2.457 0 01-1.957-.979l-2.935-3.913a4.052 4.052 0 00-.815-.813v-1.632a2.448 2.448 0 00-2.445-2.446h-.816v-7.065h.816c.78 0 1.114-.998.489-1.468l-6.522-4.891a.816.816 0 00-.978 0l-6.522 4.891c-.624.468-.293 1.468.49 1.468h.814V34.37h-.815a.815.815 0 000 1.63h3.261a.815.815 0 000-1.63h-.815v-4.892h8.152v4.892h-.815a.815.815 0 000 1.63h3.26a.815.815 0 000-1.63h-.814v-4.892h.815c.765 0 1.497.366 1.956.978l2.935 3.914A4.096 4.096 0 0036.01 36h2.175a.815.815 0 000-1.63zM18.89 27.848h-1.63v-4.892h1.63v4.892zm3.261 0h-1.63v-4.892h1.63v4.892zm3.261 0h-1.63v-4.892h1.63v4.892zm0-6.522h-8.152v-3.804h8.152v3.804zm-8.152-5.435l4.076-3.057 4.076 3.057h-8.152zm11.413 12.04a4.038 4.038 0 00-.815-.083h-.816v-1.63h.816c.45 0 .815.365.815.815v.898z" fill="url(#azpaint0_linear)"/></g><defs><linearGradient id="azpaint0_linear" x1="26.5" y1="11" x2="26.5" y2="36" gradientUnits="userSpaceOnUse"><stop stop-color="#fff"/><stop offset="1" stop-color="#fff" stop-opacity="0"/></linearGradient><clipPath id="azclip0"><path fill="#fff" transform="translate(14 11)" d="M0 0h25v25H0z"/></clipPath></defs></svg>