<?xml version="1.0" encoding="utf-8"?><svg width="92" height="13" fill="none" xmlns="http://www.w3.org/2000/svg" viewBox="0 0 92 13"><path d="M13.363 4.936a.394.394 0 00-.317-.271L8.898 4.05 7.042.223A.391.391 0 006.691 0a.391.391 0 00-.352.223L4.484 4.05l-4.148.614a.394.394 0 00-.317.271.404.404 0 00.1.41l3.001 2.98-.708 4.207a.403.403 0 00.156.39.387.387 0 00.412.031l3.71-1.987 3.711 1.987c.132.07.292.06.413-.03.12-.09.181-.241.156-.39l-.709-4.208 3.002-2.98a.404.404 0 00.1-.41zM32.599 4.936a.394.394 0 00-.316-.271l-4.149-.614L26.28.223A.391.391 0 0025.927 0a.392.392 0 00-.351.223L23.72 4.05l-4.148.614a.394.394 0 00-.316.271.404.404 0 00.099.41l3.002 2.98-.709 4.207a.403.403 0 00.156.39.387.387 0 00.413.031l3.71-1.987 3.71 1.987c.133.07.293.06.413-.03.121-.09.182-.241.156-.39l-.708-4.208 3.002-2.98a.404.404 0 00.099-.41zM52.672 4.936a.394.394 0 00-.317-.271l-4.148-.614L46.352.223A.392.392 0 0046 0a.391.391 0 00-.352.223L43.794 4.05l-4.148.614a.394.394 0 00-.317.271.404.404 0 00.1.41l3.001 2.98-.708 4.207a.403.403 0 00.156.39.387.387 0 00.412.031L46 10.967l3.71 1.987c.132.07.292.06.413-.03.12-.09.181-.241.156-.39l-.709-4.208 3.002-2.98a.404.404 0 00.1-.41zM71.908 4.936a.394.394 0 00-.316-.271l-4.149-.614L65.588.223A.391.391 0 0065.236 0a.391.391 0 00-.351.223L63.029 4.05l-4.148.614a.394.394 0 00-.316.271.404.404 0 00.099.41l3.002 2.98-.709 4.207a.403.403 0 00.156.39.387.387 0 00.413.031l3.71-1.987 3.71 1.987c.133.07.293.06.414-.03.12-.09.18-.241.156-.39l-.71-4.208 3.003-2.98a.404.404 0 00.1-.41zM91.98 4.936a.394.394 0 00-.316-.271l-4.148-.614L85.66.223A.391.391 0 0085.309 0a.392.392 0 00-.352.223L83.102 4.05l-4.148.614a.394.394 0 00-.317.271.404.404 0 00.1.41l3.001 2.98-.708 4.207a.403.403 0 00.156.39.387.387 0 00.413.031l3.71-1.987 3.71 1.987c.132.07.293.06.413-.03.121-.09.181-.241.156-.39l-.708-4.208 3.002-2.98a.404.404 0 00.099-.41z" fill="#BF3232"/></svg>