<?xml version="1.0" encoding="utf-8"?><svg viewBox="0 0 2000 1693.11" xmlns="http://www.w3.org/2000/svg" xmlns:xlink="http://www.w3.org/1999/xlink"><style>:root>svg{display:none}:root>svg:target{display:block}</style><svg fill="none" viewBox="0 0 8 6" id="Vector" xmlns="http://www.w3.org/2000/svg"><path d="M4 .72a.559.559 0 00-.396.164l-3.44 3.44a.56.56 0 10.792.792L4 2.072l3.044 3.044a.56.56 0 00.792-.792L4.396.884A.559.559 0 004 .72z" fill="#222B32"/></svg><svg fill="none" viewBox="0 0 6 10" id="ic_arr-right" xmlns="http://www.w3.org/2000/svg"><path d="M5.214 5c0 .18-.063.358-.188.495l-3.933 4.3a.603.603 0 01-.905 0 .747.747 0 010-.99L3.668 5 .188 1.195a.747.747 0 010-.99.602.602 0 01.906 0l3.933 4.3A.733.733 0 015.214 5z" fill="#222B32"/></svg><svg fill="none" viewBox="0 0 18 18" id="ic_cross" xmlns="http://www.w3.org/2000/svg"><path d="M13.5 4.5l-9 9m0-9l9 9" stroke="silver"/></svg><svg fill="none" viewBox="0 0 24 24" id="ic_dl" xmlns="http://www.w3.org/2000/svg"><path d="M23.312 11.7c-.382 0-.687.33-.687.742v6.75c0 1.835-1.386 3.324-3.082 3.324H4.457c-1.701 0-3.082-1.495-3.082-3.325v-6.859c0-.412-.305-.742-.687-.742-.382 0-.688.33-.688.742v6.86C0 21.845 2.002 24 4.457 24h15.086C22.003 24 24 21.84 24 19.191v-6.749c0-.407-.306-.742-.688-.742z" fill="#fff"/><path d="M11.516 18.109c.132.143.31.22.484.22a.647.647 0 00.484-.22l4.37-4.716a.782.782 0 000-1.05.65.65 0 00-.973 0l-3.194 3.452V.742C12.687.33 12.382 0 12 0c-.382 0-.688.33-.688.742v15.053l-3.198-3.451a.65.65 0 00-.973 0 .782.782 0 000 1.05l4.375 4.715z" fill="#fff"/></svg><svg fill="none" viewBox="0 0 32 32" id="ic_docs" xmlns="http://www.w3.org/2000/svg"><g clip-path="url(#aeclip0)" fill="#77875F"><path d="M29.218 0H11.13c-.577 0-1.044.467-1.044 1.044v3.13h-3.13c-.577 0-1.044.467-1.044 1.043v3.13h-3.13c-.576 0-1.044.468-1.044 1.044v21.566c0 .576.467 1.043 1.044 1.043H20.87c.576 0 1.043-.467 1.043-1.043v-3.13h3.13c.577 0 1.044-.468 1.044-1.044v-3.13h3.13c.577 0 1.044-.468 1.044-1.044V1.043C30.261.468 29.794 0 29.218 0zm-9.392 29.913h-16V10.435h16v19.478zM24 25.74h-2.087V9.391c0-.576-.467-1.043-1.043-1.043H8V6.26h16v19.478zm4.174-4.174h-2.087V5.217c0-.576-.467-1.043-1.043-1.043h-12.87V2.087h16v19.478z"/><path d="M16.696 13.217h-9.74a1.044 1.044 0 000 2.087h9.74a1.044 1.044 0 000-2.087zM16.696 17.391h-2.61a1.043 1.043 0 100 2.087h2.61a1.044 1.044 0 000-2.087zM9.912 17.391H6.957a1.043 1.043 0 100 2.087h2.955a1.044 1.044 0 000-2.087zM16.696 21.565h-9.74a1.044 1.044 0 000 2.087h9.74a1.044 1.044 0 000-2.087zM16.696 25.739h-4.87a1.044 1.044 0 000 2.087h4.87a1.044 1.044 0 000-2.087z"/></g><defs><clipPath id="aeclip0"><path fill="#fff" d="M0 0h32v32H0z"/></clipPath></defs></svg><svg viewBox="0 0 9 17" id="ic_fb" xmlns="http://www.w3.org/2000/svg"><path d="M8.216 0H7.198c-2.83 0-5.134 2.015-5.134 4.492v1.896H.324c-.179 0-.324.127-.324.284v2.272c0 .156.145.284.324.284h1.74v6.956c0 .157.146.284.325.284h2.595c.18 0 .325-.127.325-.284V9.228H7.89c.179 0 .324-.128.324-.284V6.672c0-.157-.145-.284-.324-.284H5.309V4.492c0-.911.847-1.653 1.889-1.653h1.018c.18 0 .325-.127.325-.284V.284C8.54.127 8.395 0 8.216 0z"/></svg><svg fill="none" viewBox="0 0 19 18" id="ic_filter" xmlns="http://www.w3.org/2000/svg"><path fill="#9C938C" d="M1.9 2h15.2v2H1.9zM4.75 6H17.1v2H4.75zM7.6 10h9.5v2H7.6zM10.45 14h6.65v2h-6.65z"/></svg><svg viewBox="0 0 18 17" id="ic_gps" xmlns="http://www.w3.org/2000/svg"><path d="M9.347 5.41a3.09 3.09 0 100 6.18 3.09 3.09 0 100-6.18zm6.908 2.317a6.95 6.95 0 00-6.136-6.135V0H8.574v1.592a6.95 6.95 0 00-6.135 6.135H.847v1.546h1.592a6.95 6.95 0 006.135 6.135V17h1.545v-1.592a6.95 6.95 0 006.136-6.135h1.592V7.727h-1.592zM9.347 13.91a5.41 5.41 0 010-10.818 5.41 5.41 0 010 10.818z"/></svg><svg viewBox="0 0 30 26" id="ic_heart" xmlns="http://www.w3.org/2000/svg"><path d="M21.494.582a8.43 8.43 0 00-6.494 3 8.316 8.316 0 00-6.494-3A8.506 8.506 0 000 9.088C0 17.138 14.05 25 14.62 25.303c.23.154.53.154.76 0C15.95 25 30 17.253 30 9.088A8.506 8.506 0 0021.494.582zM15 23.784C12.797 22.494 1.519 15.62 1.519 9.088a6.987 6.987 0 016.987-6.987 6.835 6.835 0 015.848 3.152.798.798 0 001.292 0A6.987 6.987 0 0128.48 9.088c0 6.608-11.279 13.443-13.481 14.696z"/></svg><svg viewBox="0 0 24 24" id="ic_heart-solid" xmlns="http://www.w3.org/2000/svg"><path d="M17.192 2.565h.003A6.305 6.305 0 0123.5 8.87c0 1.49-.643 3.002-1.672 4.46-1.027 1.455-2.41 2.818-3.826 4.001-2.83 2.366-5.721 3.957-5.933 4.07l-.022.012-.02.014a.047.047 0 01-.053 0l-.02-.014-.023-.012c-.21-.111-3.1-1.726-5.932-4.103-1.416-1.189-2.8-2.555-3.827-4.007C1.142 11.836.5 10.336.5 8.871a6.305 6.305 0 016.305-6.306h.006a6.153 6.153 0 014.804 2.22l.383.46.384-.458a6.244 6.244 0 014.81-2.222z"/></svg><svg fill="none" viewBox="0 0 32 32" id="ic_home" xmlns="http://www.w3.org/2000/svg"><g clip-path="url(#akclip0)" fill="#77875F"><path d="M14.957 24.348a1.043 1.043 0 100-2.087 1.043 1.043 0 000 2.087z"/><path d="M31.694 15.958l-3.172-3.173V5.913c0-.576-.467-1.044-1.044-1.044h-4.174c-.576 0-1.043.468-1.043 1.044v.611l-5.523-5.523a1.044 1.044 0 00-1.476 0L.306 15.958a1.044 1.044 0 001.475 1.475l1.697-1.697v14.525c0 .576.467 1.043 1.044 1.043h22.956c.576 0 1.044-.467 1.044-1.043V15.736l1.697 1.697a1.043 1.043 0 101.475-1.475zm-11.52 13.26h-8.348v-7.653A4.179 4.179 0 0116 17.391a4.179 4.179 0 014.174 4.174v7.652zm6.26 0h-4.173v-7.653A6.268 6.268 0 0016 15.305a6.268 6.268 0 00-6.26 6.26v7.652H5.564V13.65L16 3.214l10.435 10.434v15.568zm0-18.52l-2.086-2.087V6.956h2.087v3.742z"/></g><defs><clipPath id="akclip0"><path fill="#fff" d="M0 0h32v32H0z"/></clipPath></defs></svg><svg fill="none" viewBox="0 0 32 31" id="ic_house" xmlns="http://www.w3.org/2000/svg"><g clip-path="url(#alclip0)" fill="#77875F"><path d="M31.737 12.69c-.104-.55-.648-.914-1.215-.814-.567.1-.943.628-.84 1.177.827 4.373-.609 8.852-3.84 11.982-2.624 2.542-6.12 3.942-9.842 3.942-3.371 0-6.556-1.148-9.077-3.254l1.45-1.403c.584-.567.287-1.535-.517-1.704l-5.66-1.192c-.742-.156-1.403.485-1.241 1.204l1.23 5.482c.175.782 1.176 1.064 1.758.5l1.5-1.454C8.362 29.642 12.07 31 16 31c4.28 0 8.3-1.61 11.319-4.535 3.715-3.6 5.367-8.75 4.418-13.776zM3.819 25.87l-.48-2.135 2.205.464-1.725 1.671zM31.046 8.373l-1.23-5.482c-.175-.78-1.175-1.066-1.759-.5l-1.5 1.454C23.639 1.358 19.93 0 16 0c-4.28 0-8.3 1.61-11.319 4.535-3.716 3.6-5.368 8.75-4.418 13.776.104.55.648.913 1.215.812.567-.1.942-.627.839-1.176-.826-4.373.61-8.852 3.84-11.982 2.625-2.542 6.12-3.943 9.843-3.943 3.37 0 6.556 1.149 9.076 3.254l-1.449 1.404c-.584.566-.287 1.534.517 1.703l5.659 1.192c.745.157 1.402-.487 1.242-1.203zm-4.59-1.571l1.726-1.671.479 2.135-2.204-.464z"/><path d="M24.97 12.662l-8.35-6.068a1.071 1.071 0 00-1.254 0L7.015 12.66c-.8.581-.375 1.82.626 1.82h1.044v7.08c0 .558.468 1.011 1.044 1.011h12.527c.577 0 1.044-.453 1.044-1.011v-7.08h1.044c1 0 1.428-1.237.627-1.82zm-3.758 7.888H10.773v-6.068h10.44v6.068zm-10.439-8.09l5.22-3.793 5.22 3.792h-10.44z"/></g><defs><clipPath id="alclip0"><path fill="#fff" d="M0 0h32v31H0z"/></clipPath></defs></svg><svg viewBox="0 0 20 21" id="ic_ig" xmlns="http://www.w3.org/2000/svg"><path d="M10.004 5.295a5.122 5.122 0 00-5.13 5.13 5.122 5.122 0 005.13 5.129c2.84 0 5.13-2.29 5.13-5.13 0-2.839-2.29-5.13-5.13-5.13zm0 8.464a3.34 3.34 0 01-3.334-3.335 3.338 3.338 0 013.334-3.335 3.338 3.338 0 013.335 3.335 3.34 3.34 0 01-3.335 3.335zm6.536-8.674c0 .665-.536 1.196-1.196 1.196a1.197 1.197 0 111.196-1.196zm3.397 1.214c-.076-1.602-.442-3.022-1.616-4.192C17.151.937 15.732.572 14.13.491c-1.651-.094-6.602-.094-8.254 0-1.598.076-3.018.442-4.192 1.612C.509 3.273.147 4.693.067 6.295c-.094 1.652-.094 6.603 0 8.254.076 1.603.442 3.023 1.616 4.192 1.174 1.17 2.59 1.536 4.192 1.616 1.652.094 6.603.094 8.254 0 1.603-.076 3.023-.442 4.192-1.616 1.17-1.17 1.536-2.59 1.616-4.192.094-1.651.094-6.598 0-8.25zm-2.134 10.023a3.376 3.376 0 01-1.901 1.901c-1.317.523-4.442.402-5.898.402-1.455 0-4.584.116-5.897-.402a3.377 3.377 0 01-1.902-1.901c-.522-1.317-.401-4.442-.401-5.898 0-1.455-.117-4.585.401-5.897a3.376 3.376 0 011.902-1.902c1.317-.522 4.442-.402 5.897-.402 1.456 0 4.585-.116 5.898.402a3.376 3.376 0 011.902 1.902c.522 1.317.401 4.442.401 5.897 0 1.456.12 4.585-.401 5.898z"/></svg><svg fill="none" viewBox="0 0 30 30" id="ic_image" xmlns="http://www.w3.org/2000/svg"><g clip-path="url(#anclip0)" fill="#9C938C"><path d="M21.816 30c-.21 0-.425-.026-.637-.082L1.849 24.74A2.523 2.523 0 01.083 21.68l2.44-9.09a.625.625 0 011.208.322L1.29 22a1.269 1.269 0 00.888 1.536l19.32 5.174a1.244 1.244 0 001.522-.88l.976-3.618a.626.626 0 011.207.325l-.974 3.613A2.497 2.497 0 0121.816 30z"/><path d="M27.5 22.5h-20A2.503 2.503 0 015 20V5c0-1.379 1.121-2.5 2.5-2.5h20C28.879 2.5 30 3.621 30 5v15c0 1.379-1.121 2.5-2.5 2.5zM7.5 3.75c-.689 0-1.25.561-1.25 1.25v15c0 .689.561 1.25 1.25 1.25h20c.689 0 1.25-.561 1.25-1.25V5c0-.689-.561-1.25-1.25-1.25h-20z"/><path d="M11.25 11.25a2.503 2.503 0 01-2.5-2.5c0-1.379 1.121-2.5 2.5-2.5s2.5 1.121 2.5 2.5-1.121 2.5-2.5 2.5zm0-3.75c-.689 0-1.25.561-1.25 1.25S10.561 10 11.25 10s1.25-.561 1.25-1.25-.561-1.25-1.25-1.25zM5.713 21.163a.625.625 0 01-.443-1.066l5.904-5.905c.708-.707 1.944-.707 2.651 0l1.758 1.758 4.865-5.837c.354-.424.873-.67 1.427-.675h.014c.547 0 1.066.237 1.424.653l6.537 7.628a.624.624 0 11-.949.813l-6.537-7.627a.619.619 0 00-.475-.217c-.13-.012-.359.078-.48.224l-5.304 6.364a.623.623 0 01-.452.224.602.602 0 01-.47-.183l-2.242-2.24a.642.642 0 00-.883 0L6.154 20.98a.623.623 0 01-.441.183z"/></g><defs><clipPath id="anclip0"><path fill="#fff" d="M0 0h30v30H0z"/></clipPath></defs></svg><svg fill="none" viewBox="0 0 2118 1793" id="ic_logo-white" xmlns="http://www.w3.org/2000/svg"><path d="M279 2c0 1.6-.7 2-3.2 2-6.9 0-10.8 1.2-10.8 3.1 0 1.7-.8 1.9-7 1.9s-7 .2-7 1.9c0 2-3.4 3.1-9.6 3.1-2.7 0-3.4.4-3.4 2 0 1.7-.8 1.9-6.7 2.2-6.2.3-6.8.5-7.1 2.5-.3 2-.9 2.3-4.8 2.3-3.7 0-4.4.3-4.4 2 0 1.6-.7 2-3.4 2-5.8 0-9.4 1.1-9.9 3.1-.4 1.5-1.4 1.9-5.1 1.9-3.9 0-4.6.3-4.6 1.9 0 1.6-.9 2.1-4.5 2.7-3.5.5-4.5 1-4.5 2.5 0 1.6-.8 1.9-4.5 1.9-4.1 0-4.5.2-4.5 2.5s-.4 2.5-4.5 2.5c-3.8 0-4.5.3-4.5 2 0 1.5-.7 2-2.5 2-2 0-2.5.5-2.5 2.5 0 2.3-.4 2.5-4.5 2.5-3.8 0-4.5.3-4.5 1.9 0 1.3-.8 2.1-2.2 2.3-1.5.2-2.4 1.1-2.6 2.5-.3 1.9-1 2.3-4.2 2.3s-3.9.4-4.2 2.2c-.2 1.5-1.1 2.4-2.5 2.6-1.5.2-2.3 1-2.3 2.3 0 1.4-.7 1.9-2.5 1.9s-2.5.5-2.5 1.9c0 1.6-.9 2.1-4.5 2.7-3.5.5-4.5 1-4.5 2.5 0 1.2-.7 1.9-1.9 1.9-1.3 0-2.1.8-2.3 2.2-.2 1.5-1.1 2.4-2.5 2.6-1.5.2-2.3 1-2.3 2.2 0 1.2-.8 2-2.2 2.2-1.5.2-2.4 1.1-2.6 2.5-.2 1.5-1 2.3-2.3 2.3-1.2 0-1.9.7-1.9 1.9 0 1.3-.8 2.1-2.2 2.3-1.5.2-2.4 1.1-2.6 2.5-.2 1.4-1.1 2.3-2.5 2.5-1.4.2-2.3 1.1-2.5 2.5-.2 1.5-1 2.3-2.3 2.3-1.2 0-1.9.7-1.9 1.9 0 1.3-.8 2.1-2.2 2.3-1.5.2-2.4 1.1-2.6 2.5-.2 1.5-1 2.3-2.3 2.3-1.4 0-1.9.7-1.9 2.5s-.5 2.5-1.9 2.5c-1.5 0-2.1 1-2.6 3.9-.5 3.1-1.2 4.1-2.8 4.3-1.4.2-2.3 1.1-2.5 2.5-.2 1.5-1 2.3-2.3 2.3-1.4 0-1.9.7-1.9 2.5s-.5 2.5-1.9 2.5c-1.6 0-2.1.9-2.7 4.5-.5 3.5-1 4.5-2.5 4.5-1.3 0-1.9.7-1.9 2.1 0 1.2-.8 2.3-1.9 2.6-1.3.3-2.2 1.7-2.6 4.4-.5 2.9-1.1 3.9-2.6 3.9-1.4 0-1.9.7-1.9 2.6 0 1.7-.6 2.8-2 3.1-1.4.4-2.2 1.7-2.6 4.4-.5 2.8-1.1 3.9-2.4 3.9-1.4 0-2 1.1-2.5 5-.6 4-1.1 5-2.6 5-1.6 0-1.9.7-1.9 4.5s-.3 4.5-1.9 4.5c-1.6 0-2.1.9-2.7 4.5-.5 3.5-1 4.5-2.5 4.5-1.7 0-1.9.8-1.9 6.4 0 5.9-.2 6.5-2.2 6.8-2.1.3-2.3.9-2.6 7-.3 5.9-.5 6.8-2.2 6.8-1.7 0-1.9.9-2.2 6.7-.3 6.2-.5 6.8-2.6 7.1-2.1.3-2.2.7-2.2 11.3 0 10-.2 10.9-1.9 10.9s-1.9 1.3-2.6 18.5c-.7 17.2-.8 18.5-2.6 18.5C0 306 0 317.9 0 892c0 569 .1 586 1.8 586s2 1.3 2.5 12.7c.4 7.1.7 16.1.7 20 0 6.6.2 7.3 2 7.3s2 .7 2 8.4c0 10.8.7 14.3 3.1 14.9 1.6.4 1.9 1.5 1.9 7.6 0 6.4.2 7.1 2 7.1s2 .7 2 5.4c0 8.1.9 11.6 3.1 11.6 1.6 0 1.9.8 1.9 5s.3 5 1.9 5c1.9 0 3.1 3.9 3.1 10.2 0 2.1.5 2.8 2 2.8 1.7 0 2 .7 2 4.4 0 3.9.3 4.5 2.3 4.8 1.8.2 2.3 1 2.5 4.5.3 3.5.7 4.3 2.3 4.3 1.4 0 1.9.7 1.9 3s.5 3 1.9 3c1.6 0 2.1.9 2.7 4.5.5 3.4 1.1 4.5 2.4 4.5 1.3 0 2 1.1 2.5 3.9.4 2.7 1.3 4.1 2.6 4.4 1.1.3 1.9 1.4 1.9 2.6 0 1.4.6 2.1 1.9 2.1 1.5 0 2 1 2.5 4.5.6 3.6 1.1 4.5 2.7 4.5 1.4 0 1.9.7 1.9 2.5 0 2 .5 2.5 2.5 2.5s2.5.5 2.5 2.5c0 1.8.5 2.5 2 2.5 1.3 0 2 .7 2 2s.7 2 1.9 2c1.6 0 2.1.9 2.6 4.4.6 3.6 1.2 4.6 2.9 4.8 1.3.2 2.2 1.1 2.4 2.5.2 1.5 1 2.3 2.3 2.3 1.2 0 1.9.7 1.9 1.9 0 1.3.8 2.1 2.3 2.3 1.4.2 2.3 1.1 2.5 2.5.2 1.5 1 2.3 2.3 2.3 1.2 0 1.9.7 1.9 1.9 0 1.3.8 2.1 2.3 2.3 1.4.2 2.3 1.1 2.5 2.5.2 1.5 1 2.3 2.3 2.3 1.2 0 1.9.7 1.9 1.9 0 1.3.8 2.1 2.3 2.3 1.4.2 2.3 1.1 2.5 2.4.2 1.7 1.2 2.3 4.8 2.9 3.5.5 4.4 1 4.4 2.6 0 1.2.7 1.9 2 1.9s2 .7 2 2c0 1.5.7 2 2.5 2 2 0 2.5.5 2.5 2.5s.5 2.5 2.5 2.5c1.8 0 2.5.5 2.5 1.9 0 1.5 1 2.1 4 2.6s4 1.1 4 2.6c0 1.3.7 1.9 2.4 1.9 1.8 0 2.5.6 2.8 2.2.2 1.9 1 2.4 4.6 2.6 3.4.3 4.2.7 4.2 2.3 0 1.4.7 1.9 2.5 1.9 2 0 2.5.5 2.5 2.5 0 2.3.4 2.5 4.5 2.5 3.7 0 4.5.3 4.5 1.9 0 1.5 1 2 4.5 2.5 3.6.6 4.5 1.1 4.5 2.7 0 1.4.7 1.9 2.5 1.9s2.5.5 2.5 1.9c0 1.5 1 2 5 2.6 4 .6 5 1.1 5 2.6s.7 1.9 3.4 1.9c6.2 0 9.6 1.1 9.6 3.1 0 1.6.8 1.9 4.5 1.9 3.8 0 4.5.3 4.5 2 0 1.6.7 2 3.4 2 5.8 0 9.4 1.1 9.9 3.1.4 1.5 1.4 1.9 5.1 1.9 3.9 0 4.6.3 4.6 2s.7 2 5.3 2c8.7 0 12.7 1 12.7 3.1 0 1.7.8 1.9 7 1.9s7 .2 7 1.9c0 1.5 1.1 1.9 6.8 2.4 3.7.4 8.8.7 11.5.7 4 0 4.7.3 4.7 2 0 2 .7 2 38.5 2s38.5 0 38.5-2c0-1.5-.7-2-2.7-2-6.4 0-10.3-1.2-10.3-3.1 0-1.7-.8-1.9-7-1.9-6.3 0-7-.2-7-1.9 0-1.6-.9-2.1-4.5-2.7-3.5-.5-4.5-1-4.5-2.5s-.7-1.9-3.4-1.9c-5.8 0-9.4-1.1-9.9-3.1-.4-1.5-1.4-1.9-4.6-1.9-3.4 0-4.1-.3-4.1-2 0-1.5-.7-2-2.6-2-1.7 0-2.8-.6-3.1-2-.4-1.4-1.7-2.1-4.9-2.6-3.4-.5-4.4-1.1-4.4-2.5 0-1.3-1.1-1.9-4.5-2.5-3.5-.5-4.5-1-4.5-2.5 0-1.4-.7-1.9-2.5-1.9s-2.5-.5-2.5-1.9c0-1.5-1-2.1-4-2.6s-4-1.1-4-2.6c0-1.4-.7-1.9-2.5-1.9-2 0-2.5-.5-2.5-2.5s-.5-2.5-2.5-2.5c-1.8 0-2.5-.5-2.5-1.9 0-1.6-.9-2.1-4.5-2.7-3.5-.5-4.5-1-4.5-2.5 0-1.2-.7-1.9-1.9-1.9-1.3 0-2.1-.8-2.3-2.3-.2-1.4-1.1-2.3-2.5-2.5-1.5-.2-2.3-1-2.3-2.3 0-1.2-.7-1.9-1.9-1.9-1.3 0-2.1-.8-2.3-2.3-.2-1.4-1.1-2.3-2.5-2.5-1.5-.2-2.3-1-2.3-2.2 0-1.2-.8-2-2.2-2.2-1.5-.2-2.4-1.1-2.6-2.6-.2-1.4-1-2.2-2.3-2.2-1.4 0-1.9-.7-1.9-2.5s-.5-2.5-1.9-2.5c-1.5 0-2.1-1-2.6-4s-1.1-4-2.6-4c-1.4 0-1.9-.7-1.9-2.5 0-2-.5-2.5-2.5-2.5s-2.5-.5-2.5-2.5c0-1.8-.5-2.5-1.9-2.5-1.6 0-2.1-.9-2.7-4.5-.5-3.5-1-4.5-2.5-4.5-1.4 0-1.9-.7-1.9-2.5s-.5-2.5-1.9-2.5c-1.6 0-2.1-.9-2.7-4.5-.5-3.4-1.1-4.5-2.4-4.5-1.3 0-1.9-1.1-2.4-4.5-.6-3.6-1.1-4.5-2.7-4.5s-1.9-.7-1.9-4.5-.3-4.5-1.9-4.5c-1.6 0-2.1-.9-2.7-4.5-.5-3.5-1-4.5-2.5-4.5-1.6 0-1.9-.8-1.9-4.5s-.3-4.5-1.9-4.5c-2 0-3.1-3.4-3.1-9.6 0-2.7-.4-3.4-2-3.4-1.7 0-2-.7-2-5 0-4.2-.3-5-1.9-5-2.2 0-3.1-3.5-3.1-12.1 0-5.2-.2-5.9-2-5.9-1.7 0-2-.7-2-3.9 0-5.7-1.1-10.1-2.5-10.1-1.7 0-2.5-4.7-2.5-14.6 0-7.5-.2-8.4-1.8-8.4-1.7 0-2-1.2-2.5-10.7-.4-5.8-.7-13-.7-16 0-4.6-.2-5.3-2-5.3-2 0-2-.7-2-612.5 0-598.6 0-612.5 1.9-612.5 1.7 0 1.9-1.3 2.6-18.5.7-17.2.8-18.5 2.6-18.5 1.7 0 1.9-.9 1.9-10.9 0-12.3.7-17.1 2.5-17.1 1.4 0 2.5-5.3 2.5-12.8 0-4.5.3-5.2 2-5.2 1.8 0 2-.7 2-5.9 0-8.6.9-12.1 3.1-12.1 1.7 0 1.9-.8 1.9-7s.2-7 1.9-7c1.5 0 2-1 2.5-4.5.6-3.6 1.1-4.5 2.7-4.5s1.9-.7 1.9-5 .3-5 1.9-5c1.6 0 2.1-.9 2.7-4.5.5-3.5 1-4.5 2.5-4.5 1.6 0 1.9-.8 1.9-4.5 0-4.1.2-4.5 2.5-4.5s2.5-.4 2.5-4.5c0-3.8.3-4.5 2-4.5 1.5 0 2-.7 2-2.5s.5-2.5 1.9-2.5c1.6 0 2.1-.9 2.7-4.5.5-3.4 1.1-4.5 2.4-4.5 1.2 0 2-.9 2.2-2.3.2-1.4 1.1-2.3 2.6-2.5 1.8-.3 2.2-1 2.2-4.2s.4-3.9 2.3-4.2c1.4-.2 2.3-1.1 2.5-2.6.2-1.4 1-2.2 2.3-2.2 1.4 0 1.9-.7 1.9-2.5 0-2 .5-2.5 2.5-2.5 1.8 0 2.5-.5 2.5-2 0-1.3.7-2 2-2 1.5 0 2-.7 2-2.5 0-2 .5-2.5 2.5-2.5s2.5-.5 2.5-2.5c0-1.8.5-2.5 2-2.5 1.3 0 2-.7 2-2 0-1.5.7-2 2.5-2 2 0 2.5-.5 2.5-2.5 0-1.8.5-2.5 2-2.5 1.3 0 2-.7 2-2 0-1.5.7-2 2.5-2 2 0 2.5-.5 2.5-2.5s.5-2.5 2.5-2.5c1.8 0 2.5-.5 2.5-1.9 0-1.3.8-2.1 2.3-2.3 1.4-.2 2.3-1.1 2.5-2.6.3-1.8 1-2.2 4.2-2.2s3.9-.4 4.2-2.3c.2-1.4 1.1-2.3 2.6-2.5 1.4-.2 2.2-1 2.2-2.3 0-1.4.7-1.9 2.5-1.9s2.5-.5 2.5-1.9c0-1.6.9-2.1 4.5-2.7 3.4-.5 4.5-1.1 4.5-2.4 0-1.3 1.1-1.9 3.9-2.4 2.7-.4 4-1.2 4.4-2.6.3-1.4 1.4-2 3.1-2 1.9 0 2.6-.5 2.6-2 0-1.7.7-2 4.1-2 3.2 0 4.2-.4 4.6-2 .4-1.4 1.7-2.1 4.9-2.6 3.4-.5 4.4-1.1 4.4-2.5 0-1.6.8-1.9 4.5-1.9 4.1 0 4.5-.2 4.5-2.5 0-2.4.2-2.5 6.5-2.5 5.7 0 6.5-.2 6.5-1.9 0-1.5 1-2 5-2.6 4-.6 5-1.1 5-2.6 0-1.8-1.3-1.9-39-1.9-38.3 0-39 0-39 2zM1756 1.9c0 1.9 3.9 3.1 10.8 3.1 2.5 0 3.2.4 3.2 2 0 1.7.7 2 5 2 4.2 0 5 .3 5 1.9 0 2 3.4 3.1 9.6 3.1 2.7 0 3.4.4 3.4 1.9s1 2 4.5 2.5c3.6.6 4.5 1.1 4.5 2.7s.7 1.9 4.5 1.9 4.5.3 4.5 2c0 1.5.7 2 2.6 2 1.7 0 2.8.6 3.1 2 .4 1.4 1.7 2.2 4.4 2.6 2.8.5 3.9 1.1 3.9 2.4 0 1.3 1.1 1.9 4.5 2.4 3.6.6 4.5 1.1 4.5 2.7 0 1.4.7 1.9 2.5 1.9s2.5.5 2.5 1.9c0 1.6.9 2.1 4.5 2.7 3.4.5 4.5 1.1 4.5 2.4 0 1.2.9 2 2.3 2.2 1.4.2 2.3 1.1 2.5 2.5.2 1.5 1 2.3 2.3 2.3 1.2 0 1.9.7 1.9 2 0 1.5.7 2 2.5 2 2 0 2.5.5 2.5 2.5s.5 2.5 2.5 2.5c1.8 0 2.5.5 2.5 2 0 1.3.7 2 2 2 1.5 0 2 .7 2 2.5 0 2 .5 2.5 2.5 2.5 1.8 0 2.5.5 2.5 1.9 0 1.3.8 2.1 2.3 2.3 1.4.2 2.3 1.1 2.5 2.5.2 1.5 1 2.3 2.3 2.3 1.2 0 1.9.7 1.9 2s.7 2 2 2c1.5 0 2 .7 2 2.5 0 2 .5 2.5 2.5 2.5s2.5.5 2.5 2.5c0 1.8.5 2.5 1.9 2.5 1.3 0 2.1.8 2.3 2.2.2 1.5 1.1 2.4 2.6 2.6 1.8.3 2.2 1 2.2 4.2s.4 3.9 2.3 4.2c1.4.2 2.3 1.1 2.5 2.5.2 1.5 1 2.3 2.3 2.3 1.6 0 1.9.7 1.9 4.5 0 4.1.2 4.5 2.5 4.5 2 0 2.5.5 2.5 2.5 0 1.8.5 2.5 2 2.5 1.7 0 2 .7 2 4.5 0 4.1.2 4.5 2.5 4.5s2.5.4 2.5 4.5c0 3.7.3 4.5 1.9 4.5 1.5 0 2 1 2.5 4.5.6 3.6 1.1 4.5 2.7 4.5s1.9.7 1.9 5c0 4.2.3 5 1.9 5 2 0 3.1 3.4 3.1 9.6 0 2.7.4 3.4 2 3.4 1.7 0 2 .7 2 5 0 4.2.3 5 1.9 5 2.2 0 3.1 3.5 3.1 12.1 0 5.2.2 5.9 2 5.9 1.7 0 2 .7 2 5.2 0 7.5 1.1 12.8 2.5 12.8 1.8 0 2.5 4.8 2.5 17.1 0 9.9.2 10.9 1.8 10.9 1.7 0 2 1.3 2.5 13.7.4 7.5.7 18.7.7 25 0 10.6.1 11.3 2 11.3 2 0 2 .7 2 103v103h-2.5c-1.8 0-2.5.5-2.5 2 0 2-.7 2-578.5 2H805v769h636v-151H956V659h1011v423c0 412.7 0 423-1.9 423-1.7 0-1.9 1.3-2.6 18-.7 16.8-.8 18-2.6 18s-1.9.9-1.9 11.6c0 10.5-.2 11.6-1.9 12.1-1.9.5-3.1 7-3.1 17.4 0 4.2-.3 4.9-2 4.9-1.8 0-2 .7-2 7 0 6.2-.2 7-1.9 7-2 0-3.1 3.4-3.1 10.1 0 3.2-.3 3.9-2 3.9-1.6 0-2 .7-2 3.4 0 6.2-1.1 9.6-3.1 9.6-1.6 0-1.9.8-1.9 5 0 4.3-.3 5-1.9 5-1.6 0-2.1.9-2.7 4.5-.5 3.5-1 4.5-2.5 4.5-1.6 0-1.9.8-1.9 4.5 0 4.1-.2 4.5-2.5 4.5-2 0-2.5.5-2.5 2.5 0 1.8-.5 2.5-1.9 2.5-1.6 0-2 .8-2.3 4.2-.2 3.6-.7 4.4-2.5 4.6-1.9.3-2.3 1-2.3 4.3 0 3.2-.3 3.9-2 3.9-1.5 0-2 .7-2 2.5 0 2-.5 2.5-2.5 2.5s-2.5.5-2.5 2.5c0 1.8-.5 2.5-1.9 2.5-1.6 0-2.1.9-2.7 4.5-.5 3.4-1.1 4.5-2.4 4.5-1.2 0-2 .9-2.2 2.2-.2 1.5-1.1 2.4-2.5 2.6-1.5.2-2.3 1-2.3 2.3 0 1.2-.7 1.9-2 1.9-1.5 0-2 .7-2 2.5 0 2-.5 2.5-2.5 2.5-1.8 0-2.5.5-2.5 2 0 1.3-.7 2-2 2-1.5 0-2 .7-2 2.5 0 2-.5 2.5-2.5 2.5s-2.5.5-2.5 2.5-.5 2.5-2.5 2.5c-1.8 0-2.5.5-2.5 2 0 1.3-.7 2-1.9 2-1.3 0-2.1.8-2.3 2.2-.2 1.5-1.1 2.4-2.5 2.6-1.4.2-2.3 1-2.3 2.1 0 1.4-1 2-3.9 2.5-2.7.4-4 1.2-4.4 2.6-.3 1.2-1.4 2-2.6 2-1.4 0-2.1.6-2.1 2 0 1.5-.7 2-2.5 2-2 0-2.5.5-2.5 2.5 0 2.3-.4 2.5-4.5 2.5-3.8 0-4.5.3-4.5 1.9 0 1.3-.8 2.1-2.2 2.3-1.5.2-2.4 1.1-2.6 2.6-.3 1.9-.9 2.2-4.8 2.2-3.7 0-4.4.3-4.4 1.9 0 1.6-.9 2.1-4.5 2.7-3.5.5-4.5 1-4.5 2.5 0 1.6-.8 1.9-4.4 1.9-3.9 0-4.5.3-4.8 2.2-.3 2-1 2.3-5 2.6-4 .3-4.8.6-4.8 2.3 0 1.5-.7 1.9-3.4 1.9-6.2 0-9.6 1.1-9.6 3.1 0 1.7-.8 1.9-6.5 1.9-5.8 0-6.5.2-6.5 1.9s-1 2.1-7 2.7c-5.9.6-7 .9-7 2.5 0 1.8 1.7 1.9 43 1.9s43-.1 43-1.9c0-1.9 3.9-3.1 10.8-3.1 2.5 0 3.2-.4 3.2-2 0-1.9.7-2 9-2 8.1 0 9-.2 9-1.9 0-1.9 3.9-3.1 10.8-3.1 2.5 0 3.2-.4 3.2-2 0-1.7.7-2 4.6-2 3.7 0 4.7-.4 5.1-1.9.5-2 4.1-3.1 9.9-3.1 2.7 0 3.4-.4 3.4-1.9s1-2 4.5-2.5c3.6-.6 4.5-1.1 4.5-2.7s.7-1.9 5-1.9 5-.3 5-1.9c0-1.6.9-2.1 4.5-2.7 3.5-.5 4.5-1 4.5-2.5 0-1.6.8-1.9 4.5-1.9 3.8 0 4.5-.3 4.5-1.9 0-1.6.9-2.1 4.5-2.7 3.4-.5 4.5-1.1 4.5-2.4 0-1.3 1.1-1.9 4.5-2.4 3.6-.6 4.5-1.1 4.5-2.7 0-1.4.7-1.9 2.5-1.9s2.5-.5 2.5-1.9c0-1.5 1-2.1 4-2.6s4-1.1 4-2.6c0-1.4.7-1.9 2.5-1.9s2.5-.5 2.5-1.9c0-1.5 1-2 4.5-2.5 3.6-.6 4.5-1.1 4.5-2.7 0-1.4.7-1.9 2.5-1.9 2 0 2.5-.5 2.5-2.5s.5-2.5 2.5-2.5c1.8 0 2.5-.5 2.5-2 0-1.4.7-2 2.1-2 1.2 0 2.3-.8 2.6-2 .4-1.4 1.7-2.2 4.4-2.6 2.9-.5 3.9-1.2 4.1-2.8.2-1.3 1.1-2.2 2.6-2.4 1.4-.2 2.2-1 2.2-2.3 0-1.2.7-1.9 1.9-1.9 1.3 0 2.1-.8 2.3-2.2.2-1.5 1.1-2.4 2.6-2.6 1.4-.2 2.2-1 2.2-2.3 0-1.2.7-1.9 1.9-1.9 1.3 0 2.1-.8 2.3-2.3.2-1.4 1.1-2.3 2.6-2.5 1.4-.2 2.2-1 2.2-2.4 0-1.1.8-2.2 2-2.5 1.1-.3 2-1.4 2-2.4 0-1.3.7-1.9 2.4-1.9 2 0 2.5-.6 3-4.5.6-3.6 1.1-4.5 2.7-4.5 1.2 0 1.9-.7 1.9-2s.7-2 2-2c1.5 0 2-.7 2-2.5 0-2 .5-2.5 2.5-2.5s2.5-.5 2.5-2.5c0-1.8.5-2.5 1.9-2.5 1.6 0 2.1-.9 2.7-4.5.5-3.5 1-4.5 2.5-4.5 1.4 0 1.9-.7 1.9-2.5s.5-2.5 1.9-2.5c1.5 0 2.1-1 2.6-4s1.1-4 2.6-4c1.4 0 1.9-.7 1.9-2.6 0-1.7.6-2.8 2-3.1 1.4-.4 2.2-1.7 2.6-4.4.5-2.9 1.1-3.9 2.5-3.9s1.9-.9 2.1-4.7c.3-4.1.6-4.8 2.6-5.1 1.9-.3 2.2-.9 2.2-4.8 0-3.7.3-4.4 1.9-4.4 1.6 0 2.1-.9 2.7-4.5.5-3.5 1-4.5 2.5-4.5 1.7 0 1.9-.8 1.9-6.4 0-5.9.2-6.5 2.3-6.8 2-.3 2.2-.9 2.5-7.1.3-5.9.5-6.7 2.2-6.7 1.6 0 2-.7 2-3.9 0-6.7 1.1-10.1 3.1-10.1 1.7 0 1.9-.9 1.9-9 0-8.3.1-9 2-9 1.8 0 2-.7 2-6.3 0-3.4.3-10.6.7-16 .5-8.5.8-9.7 2.5-9.7s1.8-17 1.8-599.5c0-583.3-.1-599.5-1.9-599.5-1.5 0-1.9-1.1-2.4-6.8-.4-3.7-.7-10-.7-14 0-6.5-.2-7.2-2-7.2-1.9 0-2-.7-2-9 0-8.1-.2-9-1.9-9-2.2 0-3.1-3.5-3.1-12.1 0-5.2-.2-5.9-2-5.9-1.6 0-2-.7-2-3.4 0-5.8-1.1-9.4-3.1-9.9-1.5-.4-1.9-1.4-1.9-5.1 0-3.9-.3-4.6-2-4.6-1.6 0-2-.7-2-3.4 0-6.2-1.1-9.6-3.1-9.6-1.6 0-1.9-.8-1.9-4.5 0-3.8-.3-4.5-1.9-4.5-1.5 0-2-1-2.6-5-.6-4-1.1-5-2.6-5-1.6 0-1.9-.7-1.9-4.5 0-4.1-.2-4.5-2.5-4.5-2 0-2.5-.5-2.5-2.5 0-1.8-.5-2.5-1.9-2.5-1.6 0-2-.8-2.3-4.3-.2-3.5-.7-4.3-2.5-4.5-1.9-.3-2.3-1-2.3-4.2s-.4-3.9-2.2-4.2c-1.5-.2-2.4-1.1-2.6-2.6-.2-1.4-1-2.2-2.3-2.2-1.4 0-1.9-.7-1.9-2.5s-.5-2.5-1.9-2.5c-1.6 0-2.1-.9-2.7-4.5-.5-3.4-1.1-4.5-2.4-4.5-1.2 0-2-.9-2.2-2.3-.2-1.4-1.1-2.3-2.5-2.5-1.5-.2-2.3-1-2.3-2.3 0-1.2-.7-1.9-2-1.9-1.5 0-2-.7-2-2.5 0-2-.5-2.5-2.5-2.5s-2.5-.5-2.5-2.5c0-1.8-.5-2.5-2-2.5-1.3 0-2-.7-2-2 0-1.5-.7-2-2.5-2-2 0-2.5-.5-2.5-2.5s-.5-2.5-2.5-2.5c-1.8 0-2.5-.5-2.5-2 0-1.3-.7-2-1.9-2-1.3 0-2.1-.8-2.3-2.3-.2-1.4-1.1-2.3-2.5-2.5-1.5-.2-2.3-1-2.3-2.2 0-1.2-.8-2-2.2-2.2-1.5-.2-2.4-1.1-2.6-2.6-.2-1.4-1-2.2-2.3-2.2-1.2 0-1.9-.7-1.9-1.9 0-1.5-1-2-4.5-2.5-3.6-.6-4.5-1.1-4.5-2.7 0-1.4-.7-1.9-2.5-1.9s-2.5-.5-2.5-1.9c0-1.3-.8-2.1-2.2-2.3-1.5-.2-2.4-1.1-2.6-2.6-.3-1.8-1-2.2-4.2-2.2s-3.9-.4-4.2-2.3c-.2-1.4-1.1-2.3-2.5-2.5-1.5-.2-2.3-1-2.3-2.3 0-1.6-.7-1.9-4.5-1.9-4.1 0-4.5-.2-4.5-2.5s-.4-2.5-4.5-2.5c-3.8 0-4.5-.3-4.5-2 0-1.5-.7-2-2.5-2-2 0-2.5-.5-2.5-2.5 0-2.3-.4-2.5-4.5-2.5-3.7 0-4.5-.3-4.5-1.9 0-1.5-1-2-4.5-2.5-3.6-.6-4.5-1.1-4.5-2.7s-.7-1.9-4.5-1.9-4.5-.3-4.5-1.9c0-1.5-1-2-5-2.6-4-.6-5-1.1-5-2.6s-.7-1.9-3.4-1.9c-6.2 0-9.6-1.1-9.6-3.1 0-1.6-.8-1.9-5-1.9-4.3 0-5-.3-5-2 0-1.6-.7-2-3.4-2-6.2 0-9.6-1.1-9.6-3.1 0-1.7-.8-1.9-7-1.9s-7-.2-7-1.9-1.1-2-9-2.6c-7.9-.6-9-.9-9-2.6 0-1.8-1.4-1.9-41.5-1.9-39.9 0-41.5.1-41.5 1.9z" fill="#fff"/></svg><svg viewBox="0 0 30 30" id="ic_loupe" xmlns="http://www.w3.org/2000/svg"><path d="M29.817 28.933l-9.128-9.128a11.813 11.813 0 003.061-7.93C23.75 5.327 18.423 0 11.875 0S0 5.327 0 11.875 5.327 23.75 11.875 23.75c3.05 0 5.825-1.165 7.93-3.061l9.128 9.128a.623.623 0 00.884 0 .625.625 0 000-.884zM11.875 22.5C6.017 22.5 1.25 17.734 1.25 11.875S6.017 1.25 11.875 1.25 22.5 6.016 22.5 11.875 17.733 22.5 11.875 22.5z"/></svg><svg fill="#77875F" viewBox="0 0 24 24" id="ic_mapfilter-all" xmlns="http://www.w3.org/2000/svg"><path d="M8.502 7.013l2.763 4.222a.88.88 0 001.47 0L15.5 7.013a.89.89 0 00.05-.086 3.954 3.954 0 00-.167-3.878A3.947 3.947 0 0012 1.16a3.947 3.947 0 00-3.382 1.89 3.954 3.954 0 00-.166 3.878c.015.03.031.058.05.086zM12 2.917c.774 0 1.48.394 1.886 1.054.4.649.44 1.44.113 2.124L12 9.149l-1.998-3.054a2.208 2.208 0 01.113-2.124A2.201 2.201 0 0112 2.917zM12.879 17.069V13.4a.879.879 0 10-1.758 0v3.669a2.757 2.757 0 00-1.872 2.608 2.755 2.755 0 002.75 2.753 2.755 2.755 0 002.752-2.753c0-1.21-.785-2.24-1.872-2.608zm-.88 3.604a.996.996 0 010-1.991.995.995 0 010 1.99zM10.266 12.992a.879.879 0 00-.829-1.55l-3.23 1.726a2.735 2.735 0 00-1.086-.629 2.732 2.732 0 00-2.096.206 2.758 2.758 0 00-1.131 3.725c.346.649.924 1.124 1.628 1.338a2.74 2.74 0 002.095-.206 2.759 2.759 0 001.417-2.882l3.232-1.728zm-5.478 3.06a.985.985 0 01-.755.074.998.998 0 01.287-1.949.998.998 0 01.877.527.997.997 0 01-.409 1.348zM20.975 12.745a2.73 2.73 0 00-2.096-.206 2.737 2.737 0 00-1.087.63l-3.229-1.727a.879.879 0 10-.829 1.55l3.232 1.728a2.759 2.759 0 002.71 3.208 2.758 2.758 0 002.43-1.458 2.758 2.758 0 00-1.13-3.725zm-.42 2.898a.987.987 0 01-.588.483.985.985 0 01-.755-.074.998.998 0 01.468-1.875.998.998 0 01.875 1.465z"/></svg><svg fill="#77875F" viewBox="0 0 25 25" id="ic_mapfilter-atr" xmlns="http://www.w3.org/2000/svg"><g clip-path="url(#arclip0)"><path d="M24.185 23.37H22.01a2.457 2.457 0 01-1.957-.979l-2.934-3.913a4.052 4.052 0 00-.816-.813v-1.632a2.448 2.448 0 00-2.445-2.446h-.816V6.522h.816c.78 0 1.114-.998.489-1.468L7.826.163a.815.815 0 00-.978 0L.326 5.054c-.624.468-.293 1.468.49 1.468h.814v16.847H.815a.815.815 0 000 1.631h3.261a.815.815 0 000-1.63h-.815v-4.892h8.152v4.892h-.815a.815.815 0 000 1.63h3.26a.815.815 0 000-1.63h-.815v-4.892h.816c.765 0 1.497.366 1.956.978l2.935 3.914A4.096 4.096 0 0022.01 25h2.175a.815.815 0 000-1.63zM4.89 16.848h-1.63v-4.891h1.63v4.89zm3.261 0h-1.63v-4.891h1.63v4.89zm3.261 0h-1.63v-4.891h1.63v4.89zm0-6.522H3.261V6.522h8.152v3.804zM3.261 4.891l4.076-3.057 4.076 3.057H3.261zm11.413 12.04a4.038 4.038 0 00-.815-.083h-.816v-1.63h.816c.45 0 .815.365.815.815v.898z"/></g><defs><clipPath id="arclip0"><path fill="#fff" d="M0 0h25v25H0z"/></clipPath></defs></svg><svg fill="#77875F" viewBox="0 0 25 25" id="ic_mapfilter-kids" xmlns="http://www.w3.org/2000/svg"><g clip-path="url(#asclip0)"><path d="M22.27 12.506h-.202c-1.106-4.125-4.807-7.197-9.234-7.344-.866-.248-1.466-1.11-1.466-2.118 0-.871.707-1.58 1.575-1.58.614 0 1.114.502 1.114 1.117a.732.732 0 101.464 0A2.583 2.583 0 0012.943 0a3.045 3.045 0 00-3.04 3.044c0 .859.276 1.656.747 2.286-3.739.71-6.74 3.532-7.718 7.176H2.73A2.733 2.733 0 000 15.235a2.733 2.733 0 002.73 2.728h.291C4.258 22.032 8.04 25 12.5 25c4.46 0 8.242-2.968 9.479-7.037h.29A2.733 2.733 0 0025 15.234a2.733 2.733 0 00-2.73-2.728zM1.464 15.235c0-.672.527-1.223 1.19-1.262a9.998 9.998 0 00.04 2.525 1.266 1.266 0 01-1.23-1.264zm11.035 8.3c-4.655 0-8.442-3.794-8.442-8.457 0-4.664 3.787-8.458 8.442-8.458s8.442 3.794 8.442 8.458c0 4.663-3.787 8.457-8.442 8.457zm9.805-7.037a9.985 9.985 0 00.04-2.525c.663.04 1.19.59 1.19 1.261 0 .686-.549 1.245-1.23 1.264z"/><path d="M10.658 15.07c.002-.651-.254-1.228-.72-1.624a2.316 2.316 0 00-1.497-.531h-.007c-.56 0-1.09.185-1.491.522-.47.394-.728.97-.73 1.62a.732.732 0 001.464.004c0-.114.039-.681.756-.681h.004c.722.002.757.571.756.685a.732.732 0 00.73.735h.003a.733.733 0 00.732-.73zM17.759 13.229a2.416 2.416 0 00-2.378-.007c-.658.377-1.037 1.046-1.04 1.835a.733.733 0 00.731.734h.002a.732.732 0 00.733-.73c0-.266.1-.452.303-.568a.967.967 0 01.913.002c.202.118.3.304.3.57a.732.732 0 00.73.735h.002a.732.732 0 00.732-.73c.003-.79-.372-1.46-1.028-1.841zM14.113 19.04a.732.732 0 00-.732.733.88.88 0 01-1.761 0 .733.733 0 00-1.465 0 2.347 2.347 0 002.345 2.344 2.347 2.347 0 002.346-2.344.733.733 0 00-.733-.732z"/></g><defs><clipPath id="asclip0"><path fill="#fff" d="M0 0h25v25H0z"/></clipPath></defs></svg><svg fill="#77875F" viewBox="0 0 25 25" id="ic_mapfilter-libray" xmlns="http://www.w3.org/2000/svg"><g clip-path="url(#atclip0)"><path d="M24.268 3.71H13.965c-.4 0-.775.109-1.098.296A5.135 5.135 0 008.105.781H3.662a.732.732 0 00-.732.733V3.71H.732A.732.732 0 000 4.443v17.578c0 .405.328.733.732.733h10.303c.404 0 .733.328.733.732a.732.732 0 101.464 0c0-.404.329-.732.733-.732h10.303A.732.732 0 0025 22.02V4.444a.732.732 0 00-.732-.732zM4.395 2.247h3.71a3.666 3.666 0 013.663 3.662v13.994a5.112 5.112 0 00-3.663-1.543h-3.71V2.246zm-2.93 2.93H2.93v13.916c0 .404.328.732.732.732h4.443c1.196 0 2.26.576 2.928 1.465H1.465V5.176zm22.07 16.113h-9.57c-.257 0-.503.045-.733.126V5.908c0-.404.329-.732.733-.732h9.57v16.113z"/><path d="M15.43 11.035h5.908a.732.732 0 000-1.465H15.43a.732.732 0 000 1.465zM15.43 8.105h5.908a.732.732 0 000-1.464H15.43a.732.732 0 000 1.464zM15.43 13.965h5.908a.732.732 0 100-1.465H15.43a.732.732 0 100 1.465zM15.43 16.895h5.908a.732.732 0 100-1.465H15.43a.732.732 0 100 1.465zM15.43 19.824h5.908a.732.732 0 100-1.465H15.43a.732.732 0 100 1.465z"/></g><defs><clipPath id="atclip0"><path fill="#fff" d="M0 0h25v25H0z"/></clipPath></defs></svg><svg fill="#77875F" viewBox="0 0 25 25" id="ic_mapfilter-med" xmlns="http://www.w3.org/2000/svg"><g clip-path="url(#auclip0)"><path d="M11.982 23.468l-9.88-9.88c-2.803-2.802-2.803-7.363 0-10.166a7.14 7.14 0 015.082-2.105c2.723 0 4.355 1.374 5.318 2.33.973-.958 2.617-2.33 5.312-2.33 1.922 0 3.727.747 5.084 2.105 2.802 2.803 2.802 7.364 0 10.166l-9.88 9.88a.733.733 0 01-1.036 0zM7.184 2.782a5.685 5.685 0 00-4.046 1.676 5.73 5.73 0 000 8.094l9.362 9.362 9.362-9.362a5.73 5.73 0 000-8.094 5.686 5.686 0 00-4.048-1.676c-2.606 0-3.93 1.56-4.796 2.427a.733.733 0 01-1.037 0c-.784-.787-2.147-2.427-4.797-2.427z"/><path d="M13.965 16.947h-2.93a.733.733 0 01-.733-.733v-2.08h-2.08a.733.733 0 01-.732-.733v-2.93c0-.405.328-.733.732-.733h2.08v-2.08c0-.404.328-.732.732-.732h2.93c.405 0 .733.328.733.733v2.08h2.08c.405 0 .733.327.733.732v2.93a.733.733 0 01-.733.733h-2.08v2.08a.733.733 0 01-.732.733zm-2.198-1.465h1.465v-2.08c0-.405.328-.733.733-.733h2.08v-1.466h-2.08a.733.733 0 01-.733-.732V8.39h-1.465v2.08a.733.733 0 01-.733.732h-2.08v1.466h2.08c.405 0 .733.328.733.732v2.08z"/></g><defs><clipPath id="auclip0"><path fill="#fff" d="M0 0h25v25H0z"/></clipPath></defs></svg><svg fill="#77875F" viewBox="0 0 25 25" id="ic_mapfilter-shop" xmlns="http://www.w3.org/2000/svg"><g clip-path="url(#avclip0)"><path d="M.732 13.965h.845l.955 5.729a3.65 3.65 0 003.612 3.06h12.663c1.797 0 3.37-1.316 3.661-3.06l.955-5.729h.845a.732.732 0 00.732-.732v-2.93a.732.732 0 00-.732-.733h-5.494l-4.181-6.968a.732.732 0 10-1.256.754l3.729 6.214H7.934l3.73-6.215a.732.732 0 10-1.257-.753L6.226 9.57H.732a.732.732 0 00-.732.733v2.93c0 .404.328.732.732.732zm20.291 5.488c-.174 1.047-1.127 1.836-2.216 1.836H6.144a2.19 2.19 0 01-2.167-1.836l-.915-5.488h18.876l-.915 5.488zM1.465 11.035h22.07V12.5H1.465v-1.465z"/><path d="M7.131 19.153a.732.732 0 101.46-.122l-.244-2.93a.732.732 0 10-1.46.122l.244 2.93zM17.078 19.822a.732.732 0 00.79-.67l.245-2.929a.732.732 0 00-1.46-.122l-.244 2.93a.732.732 0 00.669.79zM12.5 19.824a.732.732 0 00.732-.732v-2.93a.732.732 0 10-1.464 0v2.93c0 .404.327.732.732.732z"/></g><defs><clipPath id="avclip0"><path fill="#fff" d="M0 0h25v25H0z"/></clipPath></defs></svg><svg fill="none" viewBox="0 0 14 15" id="ic_nouislider" xmlns="http://www.w3.org/2000/svg"><path d="M7 15L.072.75h13.856L7 15z" fill="#77875F"/></svg><svg fill="none" viewBox="0 0 17 15" id="ic_ok" xmlns="http://www.w3.org/2000/svg"><path d="M6 14.166c.215 0 .43-.082.594-.246L16.688 1.435A.84.84 0 0015.5.246L6 12.137 1.434 7.572A.84.84 0 00.246 8.76l5.16 5.16c.164.164.379.246.594.246z" fill="#9C938C"/></svg><svg viewBox="0 0 21 29" id="ic_pen" xmlns="http://www.w3.org/2000/svg"><path d="M20.918 10.46C20.918 16.235 10.46 29 10.46 29S0 16.236 0 10.46C0 4.682 4.683 0 10.46 0c5.776 0 10.458 4.683 10.458 10.46z"/></svg><svg fill="none" viewBox="0 0 50 69" id="ic_pen-atr" xmlns="http://www.w3.org/2000/svg"><path d="M0 24.886C0 38.63 24.886 69 24.886 69s24.886-30.37 24.886-44.114C49.772 11.142 38.63 0 24.886 0S0 11.142 0 24.886z" fill="#77875F"/><g clip-path="url(#azclip0)"><path d="M38.185 34.37H36.01a2.457 2.457 0 01-1.957-.979l-2.935-3.913a4.052 4.052 0 00-.815-.813v-1.632a2.448 2.448 0 00-2.445-2.446h-.816v-7.065h.816c.78 0 1.114-.998.489-1.468l-6.522-4.891a.816.816 0 00-.978 0l-6.522 4.891c-.624.468-.293 1.468.49 1.468h.814V34.37h-.815a.815.815 0 000 1.63h3.261a.815.815 0 000-1.63h-.815v-4.892h8.152v4.892h-.815a.815.815 0 000 1.63h3.26a.815.815 0 000-1.63h-.814v-4.892h.815c.765 0 1.497.366 1.956.978l2.935 3.914A4.096 4.096 0 0036.01 36h2.175a.815.815 0 000-1.63zM18.89 27.848h-1.63v-4.892h1.63v4.892zm3.261 0h-1.63v-4.892h1.63v4.892zm3.261 0h-1.63v-4.892h1.63v4.892zm0-6.522h-8.152v-3.804h8.152v3.804zm-8.152-5.435l4.076-3.057 4.076 3.057h-8.152zm11.413 12.04a4.038 4.038 0 00-.815-.083h-.816v-1.63h.816c.45 0 .815.365.815.815v.898z" fill="#fff"/><path d="M38.185 34.37H36.01a2.457 2.457 0 01-1.957-.979l-2.935-3.913a4.052 4.052 0 00-.815-.813v-1.632a2.448 2.448 0 00-2.445-2.446h-.816v-7.065h.816c.78 0 1.114-.998.489-1.468l-6.522-4.891a.816.816 0 00-.978 0l-6.522 4.891c-.624.468-.293 1.468.49 1.468h.814V34.37h-.815a.815.815 0 000 1.63h3.261a.815.815 0 000-1.63h-.815v-4.892h8.152v4.892h-.815a.815.815 0 000 1.63h3.26a.815.815 0 000-1.63h-.814v-4.892h.815c.765 0 1.497.366 1.956.978l2.935 3.914A4.096 4.096 0 0036.01 36h2.175a.815.815 0 000-1.63zM18.89 27.848h-1.63v-4.892h1.63v4.892zm3.261 0h-1.63v-4.892h1.63v4.892zm3.261 0h-1.63v-4.892h1.63v4.892zm0-6.522h-8.152v-3.804h8.152v3.804zm-8.152-5.435l4.076-3.057 4.076 3.057h-8.152zm11.413 12.04a4.038 4.038 0 00-.815-.083h-.816v-1.63h.816c.45 0 .815.365.815.815v.898z" fill="url(#azpaint0_linear)"/></g><defs><linearGradient id="azpaint0_linear" x1="26.5" y1="11" x2="26.5" y2="36" gradientUnits="userSpaceOnUse"><stop stop-color="#fff"/><stop offset="1" stop-color="#fff" stop-opacity="0"/></linearGradient><clipPath id="azclip0"><path fill="#fff" transform="translate(14 11)" d="M0 0h25v25H0z"/></clipPath></defs></svg><svg fill="none" viewBox="0 0 50 69" id="ic_pen-empty" xmlns="http://www.w3.org/2000/svg"><path d="M0 24.886C0 38.63 24.886 69 24.886 69s24.886-30.37 24.886-44.114C49.772 11.142 38.63 0 24.886 0S0 11.142 0 24.886z" fill="#77875F"/></svg><svg fill="none" viewBox="0 0 50 69" id="ic_pen-kids" xmlns="http://www.w3.org/2000/svg"><path d="M0 24.886C0 38.63 24.886 69 24.886 69s24.886-30.37 24.886-44.114C49.772 11.142 38.63 0 24.886 0S0 11.142 0 24.886z" fill="#77875F"/><g clip-path="url(#bbclip0)"><path d="M34.27 22.506h-.202c-1.106-4.125-4.807-7.197-9.234-7.344-.866-.248-1.466-1.11-1.466-2.118 0-.871.707-1.58 1.575-1.58.614 0 1.114.502 1.114 1.117a.732.732 0 101.464 0A2.583 2.583 0 0024.943 10a3.045 3.045 0 00-3.04 3.044c0 .859.276 1.656.748 2.286-3.74.71-6.742 3.532-7.72 7.176h-.2A2.733 2.733 0 0012 25.235a2.733 2.733 0 002.73 2.728h.291C16.258 32.032 20.04 35 24.5 35c4.46 0 8.242-2.968 9.479-7.037h.29A2.733 2.733 0 0037 25.234a2.733 2.733 0 00-2.73-2.728zm-20.805 2.729c0-.672.527-1.223 1.19-1.262a10.005 10.005 0 00.04 2.525 1.266 1.266 0 01-1.23-1.264zm11.035 8.3c-4.655 0-8.442-3.794-8.442-8.457 0-4.664 3.787-8.457 8.442-8.457s8.442 3.793 8.442 8.457c0 4.663-3.787 8.457-8.442 8.457zm9.805-7.037a9.985 9.985 0 00.04-2.525c.663.04 1.19.59 1.19 1.262 0 .685-.549 1.244-1.23 1.263z" fill="#fff"/><path d="M34.27 22.506h-.202c-1.106-4.125-4.807-7.197-9.234-7.344-.866-.248-1.466-1.11-1.466-2.118 0-.871.707-1.58 1.575-1.58.614 0 1.114.502 1.114 1.117a.732.732 0 101.464 0A2.583 2.583 0 0024.943 10a3.045 3.045 0 00-3.04 3.044c0 .859.276 1.656.748 2.286-3.74.71-6.742 3.532-7.72 7.176h-.2A2.733 2.733 0 0012 25.235a2.733 2.733 0 002.73 2.728h.291C16.258 32.032 20.04 35 24.5 35c4.46 0 8.242-2.968 9.479-7.037h.29A2.733 2.733 0 0037 25.234a2.733 2.733 0 00-2.73-2.728zm-20.805 2.729c0-.672.527-1.223 1.19-1.262a10.005 10.005 0 00.04 2.525 1.266 1.266 0 01-1.23-1.264zm11.035 8.3c-4.655 0-8.442-3.794-8.442-8.457 0-4.664 3.787-8.457 8.442-8.457s8.442 3.793 8.442 8.457c0 4.663-3.787 8.457-8.442 8.457zm9.805-7.037a9.985 9.985 0 00.04-2.525c.663.04 1.19.59 1.19 1.262 0 .685-.549 1.244-1.23 1.263z" fill="url(#bbpaint0_linear)"/><path d="M22.658 25.07c.002-.651-.254-1.228-.72-1.624a2.316 2.316 0 00-1.496-.531h-.008c-.56 0-1.09.185-1.491.522-.47.394-.729.97-.73 1.62a.733.733 0 001.464.004c0-.114.039-.681.756-.681h.004c.722.002.757.571.756.685a.732.732 0 00.73.735h.003a.733.733 0 00.732-.73z" fill="#fff"/><path d="M22.658 25.07c.002-.651-.254-1.228-.72-1.624a2.316 2.316 0 00-1.496-.531h-.008c-.56 0-1.09.185-1.491.522-.47.394-.729.97-.73 1.62a.733.733 0 001.464.004c0-.114.039-.681.756-.681h.004c.722.002.757.571.756.685a.732.732 0 00.73.735h.003a.733.733 0 00.732-.73z" fill="url(#bbpaint1_linear)"/><path d="M29.759 23.229a2.416 2.416 0 00-2.378-.007c-.658.377-1.037 1.046-1.04 1.835a.733.733 0 00.731.734h.002a.732.732 0 00.733-.73c0-.266.1-.452.303-.568a.967.967 0 01.913.002c.202.118.3.304.3.57a.732.732 0 00.73.735h.002a.732.732 0 00.732-.73c.003-.79-.372-1.46-1.028-1.841z" fill="#fff"/><path d="M29.759 23.229a2.416 2.416 0 00-2.378-.007c-.658.377-1.037 1.046-1.04 1.835a.733.733 0 00.731.734h.002a.732.732 0 00.733-.73c0-.266.1-.452.303-.568a.967.967 0 01.913.002c.202.118.3.304.3.57a.732.732 0 00.73.735h.002a.732.732 0 00.732-.73c.003-.79-.372-1.46-1.028-1.841z" fill="url(#bbpaint2_linear)"/><path d="M26.113 29.04a.732.732 0 00-.732.733.88.88 0 01-1.761 0 .733.733 0 00-1.465 0 2.347 2.347 0 002.345 2.344 2.347 2.347 0 002.346-2.344.733.733 0 00-.733-.732z" fill="#fff"/><path d="M26.113 29.04a.732.732 0 00-.732.733.88.88 0 01-1.761 0 .733.733 0 00-1.465 0 2.347 2.347 0 002.345 2.344 2.347 2.347 0 002.346-2.344.733.733 0 00-.733-.732z" fill="url(#bbpaint3_linear)"/></g><defs><linearGradient id="bbpaint0_linear" x1="24.5" y1="10" x2="24.5" y2="35" gradientUnits="userSpaceOnUse"><stop stop-color="#fff"/><stop offset="1" stop-color="#fff" stop-opacity="0"/></linearGradient><linearGradient id="bbpaint1_linear" x1="20.435" y1="22.915" x2="20.435" y2="25.8" gradientUnits="userSpaceOnUse"><stop stop-color="#fff"/><stop offset="1" stop-color="#fff" stop-opacity="0"/></linearGradient><linearGradient id="bbpaint2_linear" x1="28.564" y1="22.913" x2="28.564" y2="25.8" gradientUnits="userSpaceOnUse"><stop stop-color="#fff"/><stop offset="1" stop-color="#fff" stop-opacity="0"/></linearGradient><linearGradient id="bbpaint3_linear" x1="24.5" y1="29.041" x2="24.5" y2="32.117" gradientUnits="userSpaceOnUse"><stop stop-color="#fff"/><stop offset="1" stop-color="#fff" stop-opacity="0"/></linearGradient><clipPath id="bbclip0"><path fill="#fff" transform="translate(12 10)" d="M0 0h25v25H0z"/></clipPath></defs></svg><svg fill="none" viewBox="0 0 50 69" id="ic_pen-libray" xmlns="http://www.w3.org/2000/svg"><path d="M0 24.886C0 38.63 24.886 69 24.886 69s24.886-30.37 24.886-44.114C49.772 11.142 38.63 0 24.886 0S0 11.142 0 24.886z" fill="#77875F"/><g clip-path="url(#bcclip0)"><path d="M36.268 16.71H25.965c-.4 0-.775.109-1.099.296a5.135 5.135 0 00-4.76-3.225h-4.444a.732.732 0 00-.732.733v2.197h-2.198a.732.732 0 00-.732.732v17.579c0 .404.328.732.732.732h10.303c.404 0 .733.329.733.732a.732.732 0 101.464 0c0-.403.329-.732.733-.732h10.303a.732.732 0 00.732-.732V17.443a.732.732 0 00-.732-.732zm-19.873-1.464h3.71a3.666 3.666 0 013.663 3.662v13.994a5.112 5.112 0 00-3.663-1.543h-3.71V15.246zm-2.93 2.93h1.465v13.916c0 .404.328.732.732.732h4.443c1.196 0 2.26.576 2.928 1.465h-9.568V18.176zm22.07 16.113h-9.57c-.257 0-.503.045-.733.126V18.908c0-.404.329-.732.733-.732h9.57v16.113z" fill="#fff"/><path d="M36.268 16.71H25.965c-.4 0-.775.109-1.099.296a5.135 5.135 0 00-4.76-3.225h-4.444a.732.732 0 00-.732.733v2.197h-2.198a.732.732 0 00-.732.732v17.579c0 .404.328.732.732.732h10.303c.404 0 .733.329.733.732a.732.732 0 101.464 0c0-.403.329-.732.733-.732h10.303a.732.732 0 00.732-.732V17.443a.732.732 0 00-.732-.732zm-19.873-1.464h3.71a3.666 3.666 0 013.663 3.662v13.994a5.112 5.112 0 00-3.663-1.543h-3.71V15.246zm-2.93 2.93h1.465v13.916c0 .404.328.732.732.732h4.443c1.196 0 2.26.576 2.928 1.465h-9.568V18.176zm22.07 16.113h-9.57c-.257 0-.503.045-.733.126V18.908c0-.404.329-.732.733-.732h9.57v16.113z" fill="url(#bcpaint0_linear)"/><path d="M27.43 24.035h5.908a.732.732 0 000-1.465H27.43a.732.732 0 100 1.465z" fill="#fff"/><path d="M27.43 24.035h5.908a.732.732 0 000-1.465H27.43a.732.732 0 100 1.465z" fill="url(#bcpaint1_linear)"/><path d="M27.43 21.105h5.908a.732.732 0 000-1.464H27.43a.732.732 0 000 1.465z" fill="#fff"/><path d="M27.43 21.105h5.908a.732.732 0 000-1.464H27.43a.732.732 0 000 1.465z" fill="url(#bcpaint2_linear)"/><path d="M27.43 26.965h5.908a.732.732 0 100-1.465H27.43a.732.732 0 100 1.465z" fill="#fff"/><path d="M27.43 26.965h5.908a.732.732 0 100-1.465H27.43a.732.732 0 100 1.465z" fill="url(#bcpaint3_linear)"/><path d="M27.43 29.895h5.908a.732.732 0 100-1.465H27.43a.732.732 0 100 1.465z" fill="#fff"/><path d="M27.43 29.895h5.908a.732.732 0 100-1.465H27.43a.732.732 0 100 1.465z" fill="url(#bcpaint4_linear)"/><path d="M27.43 32.824h5.908a.732.732 0 100-1.465H27.43a.732.732 0 100 1.465z" fill="#fff"/><path d="M27.43 32.824h5.908a.732.732 0 100-1.465H27.43a.732.732 0 100 1.465z" fill="url(#bcpaint5_linear)"/></g><defs><linearGradient id="bcpaint0_linear" x1="24.5" y1="13.781" x2="24.5" y2="37.219" gradientUnits="userSpaceOnUse"><stop stop-color="#fff"/><stop offset="1" stop-color="#fff" stop-opacity="0"/></linearGradient><linearGradient id="bcpaint1_linear" x1="30.384" y1="22.57" x2="30.384" y2="24.035" gradientUnits="userSpaceOnUse"><stop stop-color="#fff"/><stop offset="1" stop-color="#fff" stop-opacity="0"/></linearGradient><linearGradient id="bcpaint2_linear" x1="30.384" y1="19.641" x2="30.384" y2="21.105" gradientUnits="userSpaceOnUse"><stop stop-color="#fff"/><stop offset="1" stop-color="#fff" stop-opacity="0"/></linearGradient><linearGradient id="bcpaint3_linear" x1="30.384" y1="25.5" x2="30.384" y2="26.965" gradientUnits="userSpaceOnUse"><stop stop-color="#fff"/><stop offset="1" stop-color="#fff" stop-opacity="0"/></linearGradient><linearGradient id="bcpaint4_linear" x1="30.384" y1="28.43" x2="30.384" y2="29.895" gradientUnits="userSpaceOnUse"><stop stop-color="#fff"/><stop offset="1" stop-color="#fff" stop-opacity="0"/></linearGradient><linearGradient id="bcpaint5_linear" x1="30.384" y1="31.359" x2="30.384" y2="32.824" gradientUnits="userSpaceOnUse"><stop stop-color="#fff"/><stop offset="1" stop-color="#fff" stop-opacity="0"/></linearGradient><clipPath id="bcclip0"><path fill="#fff" transform="translate(12 13)" d="M0 0h25v25H0z"/></clipPath></defs></svg><svg fill="none" viewBox="0 0 50 69" id="ic_pen-med" xmlns="http://www.w3.org/2000/svg"><path d="M0 24.886C0 38.63 24.886 69 24.886 69s24.886-30.37 24.886-44.114C49.772 11.142 38.63 0 24.886 0S0 11.142 0 24.886z" fill="#77875F"/><g clip-path="url(#bdclip0)"><path d="M23.982 40.468l-9.88-9.88c-2.803-2.803-2.803-7.363 0-10.166a7.14 7.14 0 015.082-2.105c2.723 0 4.355 1.374 5.318 2.33.973-.958 2.617-2.33 5.312-2.33a7.142 7.142 0 015.084 2.105c2.802 2.803 2.802 7.363 0 10.166l-9.88 9.88a.733.733 0 01-1.036 0zm-4.798-20.686c-1.53 0-2.966.595-4.047 1.676a5.73 5.73 0 000 8.094l9.363 9.362 9.362-9.362a5.73 5.73 0 000-8.094 5.686 5.686 0 00-4.048-1.676c-2.606 0-3.93 1.56-4.796 2.427a.733.733 0 01-1.037 0c-.784-.787-2.147-2.427-4.797-2.427z" fill="#fff"/><path d="M23.982 40.468l-9.88-9.88c-2.803-2.803-2.803-7.363 0-10.166a7.14 7.14 0 015.082-2.105c2.723 0 4.355 1.374 5.318 2.33.973-.958 2.617-2.33 5.312-2.33a7.142 7.142 0 015.084 2.105c2.802 2.803 2.802 7.363 0 10.166l-9.88 9.88a.733.733 0 01-1.036 0zm-4.798-20.686c-1.53 0-2.966.595-4.047 1.676a5.73 5.73 0 000 8.094l9.363 9.362 9.362-9.362a5.73 5.73 0 000-8.094 5.686 5.686 0 00-4.048-1.676c-2.606 0-3.93 1.56-4.796 2.427a.733.733 0 01-1.037 0c-.784-.787-2.147-2.427-4.797-2.427z" fill="url(#bdpaint0_linear)"/><path d="M25.965 33.947h-2.93a.733.733 0 01-.733-.733v-2.08h-2.08a.733.733 0 01-.733-.733v-2.93c0-.405.328-.733.733-.733h2.08v-2.08c0-.404.328-.732.732-.732h2.93c.405 0 .734.328.734.733v2.08h2.08c.404 0 .732.327.732.732v2.93a.733.733 0 01-.733.733h-2.08v2.08a.733.733 0 01-.732.733zm-2.198-1.466h1.465v-2.08c0-.404.328-.732.733-.732h2.08v-1.466h-2.08a.733.733 0 01-.733-.732v-2.08h-1.465v2.08a.733.733 0 01-.733.732h-2.08v1.466h2.08c.405 0 .733.328.733.732v2.08z" fill="#fff"/><path d="M25.965 33.947h-2.93a.733.733 0 01-.733-.733v-2.08h-2.08a.733.733 0 01-.733-.733v-2.93c0-.405.328-.733.733-.733h2.08v-2.08c0-.404.328-.732.732-.732h2.93c.405 0 .734.328.734.733v2.08h2.08c.404 0 .732.327.732.732v2.93a.733.733 0 01-.733.733h-2.08v2.08a.733.733 0 01-.732.733zm-2.198-1.466h1.465v-2.08c0-.404.328-.732.733-.732h2.08v-1.466h-2.08a.733.733 0 01-.733-.732v-2.08h-1.465v2.08a.733.733 0 01-.733.732h-2.08v1.466h2.08c.405 0 .733.328.733.732v2.08z" fill="url(#bdpaint1_linear)"/></g><defs><linearGradient id="bdpaint0_linear" x1="24.5" y1="18.317" x2="24.5" y2="40.683" gradientUnits="userSpaceOnUse"><stop stop-color="#fff"/><stop offset="1" stop-color="#fff" stop-opacity="0"/></linearGradient><linearGradient id="bdpaint1_linear" x1="24.5" y1="23.926" x2="24.5" y2="33.947" gradientUnits="userSpaceOnUse"><stop stop-color="#fff"/><stop offset="1" stop-color="#fff" stop-opacity="0"/></linearGradient><clipPath id="bdclip0"><path fill="#fff" transform="translate(12 17)" d="M0 0h25v25H0z"/></clipPath></defs></svg><svg fill="none" viewBox="0 0 50 69" id="ic_pen-shop" xmlns="http://www.w3.org/2000/svg"><path d="M0 24.886C0 38.63 24.886 69 24.886 69s24.886-30.37 24.886-44.114C49.772 11.142 38.63 0 24.886 0S0 11.142 0 24.886z" fill="#77875F"/><g clip-path="url(#beclip0)" fill="#F6F6F6"><path d="M12.732 28.965h.845l.955 5.729a3.65 3.65 0 003.612 3.06h12.663c1.797 0 3.37-1.316 3.661-3.06l.955-5.729h.845a.732.732 0 00.732-.732v-2.93a.732.732 0 00-.732-.733h-5.494l-4.181-6.968a.732.732 0 10-1.256.753l3.729 6.215h-9.132l3.73-6.215a.732.732 0 10-1.257-.753l-4.181 6.968h-5.494a.732.732 0 00-.732.733v2.93c0 .404.328.732.732.732zm20.291 5.488c-.174 1.047-1.127 1.836-2.216 1.836H18.144a2.19 2.19 0 01-2.167-1.836l-.915-5.488h18.876l-.915 5.488zm-19.558-8.418h22.07V27.5h-22.07v-1.465z"/><path d="M19.131 34.153a.733.733 0 001.46-.122l-.244-2.93a.732.732 0 10-1.46.122l.244 2.93zM29.078 34.822a.732.732 0 00.79-.67l.245-2.929a.732.732 0 00-1.46-.122l-.244 2.93a.732.732 0 00.669.79zM24.5 34.824a.732.732 0 00.732-.732v-2.93a.732.732 0 10-1.464 0v2.93c0 .404.328.732.732.732z"/></g><defs><clipPath id="beclip0"><path fill="#fff" transform="translate(12 15)" d="M0 0h25v25H0z"/></clipPath></defs></svg><svg viewBox="0 0 24 24" id="ic_phone" xmlns="http://www.w3.org/2000/svg"><g clip-path="url(#bfclip0)"><path d="M4.89 15.954c2.368 2.83 5.217 5.057 8.47 6.634 1.238.586 2.894 1.283 4.739 1.402.114.005.224.01.338.01 1.238 0 2.233-.428 3.044-1.308a.108.108 0 00.02-.025c.288-.348.616-.661.96-.994.233-.224.472-.458.7-.697 1.06-1.104 1.06-2.506-.01-3.575l-2.988-2.99c-.508-.526-1.114-.805-1.75-.805-.637 0-1.249.279-1.771.801l-1.78 1.78c-.165-.094-.334-.179-.493-.258a6.118 6.118 0 01-.547-.299c-1.621-1.03-3.093-2.372-4.5-4.098-.712-.9-1.19-1.655-1.522-2.426.467-.423.905-.866 1.328-1.298.149-.154.303-.309.457-.463.537-.537.826-1.159.826-1.79 0-.632-.284-1.253-.826-1.79L8.103 2.283c-.174-.174-.338-.344-.507-.518a27.27 27.27 0 00-1.01-1C6.074.265 5.472 0 4.836 0c-.632 0-1.239.264-1.77.77l-1.86 1.86a3.821 3.821 0 00-1.14 2.447c-.094 1.19.125 2.452.692 3.979.87 2.362 2.183 4.555 4.132 6.898zM1.28 5.182a2.63 2.63 0 01.79-1.69l1.85-1.85c.29-.28.607-.424.916-.424.303 0 .611.145.895.433.333.308.646.632.985.975.169.174.343.348.517.527l1.482 1.482c.308.308.467.622.467.93 0 .308-.159.621-.467.93l-.463.467c-.462.468-.895.91-1.372 1.333l-.025.025c-.413.413-.348.806-.249 1.104l.015.04c.383.92.915 1.795 1.746 2.84 1.492 1.84 3.063 3.267 4.794 4.366.213.139.442.248.656.358.199.1.383.194.547.298l.055.03c.164.084.323.124.482.124.398 0 .657-.253.741-.338l1.86-1.86c.289-.288.602-.442.91-.442.378 0 .687.233.88.442l3 2.994c.596.597.591 1.243-.016 1.875-.209.224-.427.438-.661.661-.348.338-.711.687-1.04 1.08-.571.616-1.253.905-2.133.905-.084 0-.174-.006-.259-.01-1.63-.105-3.147-.741-4.286-1.284-3.094-1.496-5.809-3.62-8.062-6.315-1.855-2.233-3.103-4.312-3.928-6.54-.513-1.367-.707-2.466-.627-3.466z"/></g><defs><clipPath id="bfclip0"><path d="M0 0h24v24H0z"/></clipPath></defs></svg><svg fill="none" viewBox="0 0 30 30" id="ic_plan" xmlns="http://www.w3.org/2000/svg"><path d="M27.363.059h-2.93a.879.879 0 00-.878.878v2.637H7.617V.938a.879.879 0 00-.879-.88H.878A.879.879 0 000 .939v28.125c0 .485.394.878.879.878h5.86a.879.879 0 00.878-.878v-2.637h19.746A2.64 2.64 0 0030 23.789V2.695A2.64 2.64 0 0027.363.06zM5.86 3.574H4.395a.879.879 0 000 1.758h1.464V7.09H4.98a.879.879 0 000 1.758h.88v1.757H4.394a.879.879 0 000 1.758h1.464v1.758H4.98a.879.879 0 000 1.758h.88v1.758H4.394a.879.879 0 000 1.758h1.464v1.757H4.98a.879.879 0 000 1.758h.88v1.758H4.394a.879.879 0 000 1.758h1.464v1.758H1.758V1.816h4.101v1.758zM28.242 23.79a.88.88 0 01-.879.879H7.617V5.332h19.746c.308 0 .604-.054.88-.151v18.608zm-.879-20.215h-2.05V1.816h2.05a.88.88 0 010 1.758z" fill="#9C938C"/><path d="M25.605 7.09H10.254a.879.879 0 00-.879.879V22.03c0 .486.394.88.879.88h4.805a.879.879 0 00.879-.88V18.96a2.641 2.641 0 011.757 2.486v.586c0 .486.394.88.88.88h7.03a.879.879 0 00.88-.88V7.97a.879.879 0 00-.88-.88zm-.878 3.515H22.09a.879.879 0 000 1.758h2.637v8.79h-5.284a4.4 4.4 0 00-4.384-4.102.879.879 0 00-.88.879v3.222h-3.046V15.88h3.926a.879.879 0 00.879-.879v-3.516a.879.879 0 00-1.758 0v2.637h-3.047V8.848h6.562V15c0 .485.394.879.88.879h2.929a.879.879 0 000-1.758h-2.05V8.848h5.273v1.757z" fill="#9C938C"/></svg><svg fill="none" viewBox="0 0 14 14" id="ic_planer" xmlns="http://www.w3.org/2000/svg"><path d="M3.911 10.608l9.597-3.536a.359.359 0 00.23-.373.355.355 0 00-.303-.316l-5.038-.72-.72-5.037A.356.356 0 006.99.552L3.453 10.15a.357.357 0 00.458.459z" fill="#fff"/><path d="M3.911 10.608l9.597-3.536a.359.359 0 00.23-.373.355.355 0 00-.303-.316l-5.038-.72-.72-5.037A.356.356 0 006.99.552L3.453 10.15a.357.357 0 00.458.459z" fill="url(#bhpaint0_linear)"/><defs><linearGradient id="bhpaint0_linear" x1="10.354" y1="10.272" x2="3.788" y2="3.706" gradientUnits="userSpaceOnUse"><stop stop-color="#fff"/><stop offset="1" stop-color="#fff" stop-opacity="0"/></linearGradient></defs></svg><svg fill="none" viewBox="0 0 77 77" id="ic_play" xmlns="http://www.w3.org/2000/svg"><circle cx="38.5" cy="38.5" r="38.5" fill="#E2243C"/><path d="M48.293 36.498a2 2 0 010 3.004l-10.722 9.433c-1.292 1.136-3.321.219-3.321-1.502V28.567c0-1.72 2.029-2.638 3.321-1.502l10.722 9.433z" fill="#fff"/></svg><svg fill="none" viewBox="0 0 30 30" id="ic_plus" xmlns="http://www.w3.org/2000/svg"><path stroke="#fff" stroke-width="2" d="M15 0v30M0 15h30"/></svg><svg fill="none" viewBox="0 0 30 30" id="ic_present" xmlns="http://www.w3.org/2000/svg"><g clip-path="url(#bkclip0)" fill="#9C938C"><path d="M14.837 23.848h-4.688a.879.879 0 100 1.758h4.688a.879.879 0 000-1.758zM14.837 20.332h-4.688a.879.879 0 100 1.758h4.688a.879.879 0 000-1.758z"/><path d="M28.675 17.304l-2.9-2.9a.88.88 0 00-1.243 0l-.613.613V3.516a.879.879 0 00-.879-.88h-5.273V.88a.879.879 0 00-.88-.879H8.1a.879.879 0 00-.88.879v1.758H1.947a.879.879 0 00-.879.879V29.12c0 .486.394.879.88.879H23.04a.879.879 0 00.879-.879v-5.818l4.756-4.756a.879.879 0 000-1.243zM16.009 1.758v3.515H8.978V1.758h7.03zm6.152 26.484H2.825V4.395H7.22v1.757c0 .486.393.88.879.88h8.789a.879.879 0 00.879-.88V4.395h4.394v12.38l-4.43 4.43a.88.88 0 00-.257.621v2.9c0 .486.393.88.878.88h2.9a.878.878 0 00.622-.258l.287-.287v3.181zm-1.272-4.394H19.23V22.19l5.922-5.921 1.658 1.657-5.922 5.922z"/><path d="M17.966 12.698a.879.879 0 00-.393-1.18l-4.687-2.343a.879.879 0 00-.786 0l-4.688 2.344a.879.879 0 00.686 1.614v4.152c0 .486.394.88.88.88h7.03a.879.879 0 00.88-.88v-4.152a.878.878 0 001.078-.435zm-4.594 3.708v-.879a.879.879 0 00-1.758 0v.88H9.856v-4.145l2.637-1.318 2.637 1.318v4.144h-1.758z"/></g><defs><clipPath id="bkclip0"><path fill="#fff" d="M0 0h30v30H0z"/></clipPath></defs></svg><svg fill="none" viewBox="0 0 7 14" id="ic_swiper-next" xmlns="http://www.w3.org/2000/svg"><path d="M7 7.287c0 .24-.084.482-.252.665l-5.28 5.773a.81.81 0 01-1.216 0 1.003 1.003 0 010-1.33l4.672-5.108L.252 2.18a1.003 1.003 0 010-1.33.809.809 0 011.216 0l5.28 5.773A.984.984 0 017 7.287z" fill="#222B32"/></svg><svg fill="none" viewBox="0 0 8 14" id="ic_swiper-prev" xmlns="http://www.w3.org/2000/svg"><path d="M.214 7.287c0 .24.084.482.252.665l5.28 5.773a.81.81 0 001.216 0 1.003 1.003 0 000-1.33L2.29 7.287 6.962 2.18a1.003 1.003 0 000-1.33.809.809 0 00-1.216 0L.466 6.623a.984.984 0 00-.252.664z" fill="#222B32"/></svg><svg viewBox="0 0 16 14" id="ic_tg" xmlns="http://www.w3.org/2000/svg"><path d="M6.279 9.096l-.265 3.723c.379 0 .543-.163.74-.358l1.775-1.697 3.679 2.695c.674.376 1.15.178 1.332-.621l2.415-11.316c.214-.997-.36-1.388-1.018-1.143L.743 5.813c-.969.376-.954.916-.165 1.161l3.629 1.129 8.43-5.274c.396-.263.757-.118.46.145L6.279 9.096z"/></svg><svg viewBox="0 0 16 13" id="ic_tw" xmlns="http://www.w3.org/2000/svg"><path d="M16 1.543a6.872 6.872 0 01-1.645 1.696 9.368 9.368 0 01-.376 3.066 9.453 9.453 0 01-1.177 2.517 9.91 9.91 0 01-1.868 2.143c-.724.615-1.597 1.11-2.62 1.482a9.666 9.666 0 01-3.278.548A9.106 9.106 0 010 11.523c.237.027.5.04.792.04a6.42 6.42 0 004.07-1.4 3.214 3.214 0 01-1.908-.65 3.235 3.235 0 01-1.157-1.625c.223.034.43.051.62.051.29 0 .578-.037.862-.112a3.259 3.259 0 01-1.888-1.126A3.201 3.201 0 01.65 4.609v-.04c.46.257.954.395 1.482.416a3.275 3.275 0 01-1.066-1.168A3.195 3.195 0 01.67 2.254c0-.596.149-1.147.447-1.655a9.373 9.373 0 002.985 2.426A9.22 9.22 0 007.878 4.03a3.643 3.643 0 01-.081-.75c0-.908.318-1.68.954-2.316A3.169 3.169 0 0111.076 0c.948 0 1.746.345 2.396 1.036a6.43 6.43 0 002.081-.792 3.184 3.184 0 01-1.441 1.807A6.534 6.534 0 0016 1.543z"/></svg><svg viewBox="0 0 20 20" id="ic_vb" xmlns="http://www.w3.org/2000/svg"><path d="M17.745 1.948c-.524-.457-2.64-1.914-7.36-1.934 0 0-5.565-.316-8.276 2.043C.602 3.487.07 5.584.013 8.18c-.058 2.597-.128 7.464 4.819 8.784h.004l-.004 2.015s-.033.817.535.98c.684.204 1.088-.417 1.743-1.085.358-.367.852-.906 1.227-1.316 3.386.27 5.985-.348 6.281-.438.684-.21 4.552-.68 5.178-5.546.65-5.023-.313-8.194-2.051-9.627zm.572 9.26c-.531 4.062-3.666 4.32-4.242 4.496-.247.074-2.534.613-5.404.437 0 0-2.142 2.449-2.81 3.086-.218.207-.457.187-.452-.223 0-.27.016-3.347.016-3.347-.004 0-.004 0 0 0-4.193-1.102-3.946-5.246-3.9-7.413.045-2.168.477-3.945 1.754-5.14 2.294-1.973 7.019-1.68 7.019-1.68 3.99.016 5.902 1.156 6.347 1.539 1.47 1.195 2.22 4.054 1.672 8.245zm-5.725-3.156c.016.336-.515.36-.532.024-.045-.86-.469-1.278-1.342-1.324-.354-.02-.322-.524.029-.504 1.149.058 1.787.683 1.845 1.804zm.836.442c.041-1.656-1.05-2.953-3.122-3.098-.35-.023-.313-.527.037-.504 2.389.164 3.662 1.723 3.616 3.613-.004.336-.54.32-.531-.011zm1.936.523c.004.336-.532.34-.532.004-.024-3.183-2.26-4.918-4.975-4.937-.35-.004-.35-.504 0-.504 3.036.02 5.478 2.008 5.507 5.437zm-.466 3.832v.007c-.444.742-1.276 1.563-2.133 1.3l-.008-.01c-.87-.231-2.917-1.231-4.21-2.208-.667-.5-1.277-1.09-1.746-1.656a12.643 12.643 0 01-1.269-1.82c-.877-1.503-1.07-2.175-1.07-2.175-.277-.813.584-1.602 1.37-2.023h.009c.379-.188.741-.125.984.152 0 0 .511.578.73.863.205.266.481.691.626.93.25.425.094.859-.153 1.039l-.494.375c-.251.19-.218.546-.218.546s.733 2.629 3.472 3.293c0 0 .375.031.576-.207l.396-.469c.19-.234.646-.383 1.095-.144.606.324 1.376.828 1.887 1.285.288.222.354.562.156.921z"/></svg><svg viewBox="0 0 20 20" id="ic_view-card" xmlns="http://www.w3.org/2000/svg"><path d="M.5.5h7v8h-7zM.5 11.5h7v8h-7zM12.5.5h7v8h-7zM12.5 11.5h7v8h-7z"/></svg><svg viewBox="0 0 21 20" id="ic_view-list" xmlns="http://www.w3.org/2000/svg"><path d="M.5.5h20v3H.5zM.5 8.5h20v3H.5zM.5 16.5h20v3H.5z"/></svg><svg viewBox="0 0 19 11" id="ic_vk" xmlns="http://www.w3.org/2000/svg"><path d="M17.57 8.059c-.393-.414-.84-.785-1.27-1.143-.154-.128-.313-.26-.466-.39-.438-.377-.454-.519-.107-.947.24-.295.495-.59.742-.876.224-.26.455-.527.677-.796l.045-.055c.424-.515.862-1.047 1.095-1.689.06-.17.124-.418-.021-.627-.145-.208-.427-.272-.627-.301a1.946 1.946 0 00-.287-.017l-2.774-.002h-.023c-.42 0-.702.174-.864.53a13.74 13.74 0 01-.519 1.05c-.385.688-.875 1.48-1.584 2.141l-.03.028c-.084.08-.179.169-.248.169a.133.133 0 01-.035-.006c-.147-.05-.246-.362-.241-.507v-.006L11.03 1.8l-.003-.03c-.07-.457-.226-.742-.817-.843a.278.278 0 00-.048-.004H7.278c-.47 0-.729.168-.972.419-.066.067-.202.206-.135.376.07.172.292.208.365.22.361.06.564.254.622.593.1.588.113 1.216.039 1.975a1.49 1.49 0 01-.129.514c-.015.032-.07.138-.127.138-.018 0-.07-.006-.165-.063-.224-.135-.387-.327-.578-.564A12.863 12.863 0 014.53 1.817a.986.986 0 00-.92-.592c-.46-.006-.878-.01-1.276-.01-.435 0-.839.004-1.232.012-.337.005-.57.093-.693.263s-.115.394.024.664C1.544 4.32 2.55 5.896 3.697 7.261c.804.956 1.61 1.618 2.536 2.082.977.49 2.071.729 3.345.729.145 0 .294-.003.445-.01.74-.031 1.015-.266 1.05-.9.016-.323.057-.662.238-.951.114-.183.22-.183.256-.183.067 0 .151.028.241.079.161.092.3.216.413.324l.317.31c.228.224.464.456.71.675.538.481 1.132.693 1.813.647h2.56a.755.755 0 00.602-.34c.16-.248.157-.564-.008-.847a4.587 4.587 0 00-.645-.817z"/></svg><svg viewBox="0 0 16 17" id="ic_wa" xmlns="http://www.w3.org/2000/svg"><path d="M9.719 9.385c.27-.34.451-.51.541-.51.09 0 .428.153 1.01.458.591.306.904.49.938.552.014.035.021.087.021.157 0 .229-.059.493-.177.791-.111.271-.358.5-.74.688-.381.18-.736.27-1.062.27-.396 0-1.056-.215-1.98-.645a5.945 5.945 0 01-1.77-1.23C6 9.41 5.486 8.768 4.958 7.99c-.5-.743-.746-1.417-.74-2.021v-.084c.022-.632.279-1.18.772-1.645a.788.788 0 01.541-.23c.042 0 .104.007.188.021.083.007.15.01.198.01.132 0 .222.025.27.074.056.041.112.135.167.28.056.14.17.445.344.918.174.472.26.732.26.78 0 .147-.121.348-.364.605-.236.25-.354.41-.354.48 0 .048.017.1.052.155.236.507.59.983 1.062 1.427.39.368.913.72 1.573 1.053.083.048.16.072.23.072.103 0 .29-.166.562-.5zm-1.573 5.01a6.33 6.33 0 002.531-.52 6.581 6.581 0 002.094-1.396 6.613 6.613 0 001.396-2.083c.347-.813.52-1.66.52-2.542a6.33 6.33 0 00-.52-2.531 6.582 6.582 0 00-1.396-2.094 6.581 6.581 0 00-2.094-1.396 6.329 6.329 0 00-2.531-.52c-.882 0-1.73.173-2.542.52-.805.348-1.5.813-2.083 1.396a6.582 6.582 0 00-1.396 2.094 6.329 6.329 0 00-.52 2.531c0 1.41.416 2.688 1.25 3.833l-.824 2.428 2.521-.803a6.406 6.406 0 003.594 1.084zM5.094.626A7.669 7.669 0 018.146 0c1.062 0 2.076.208 3.041.625a7.918 7.918 0 012.51 1.677 7.918 7.918 0 011.678 2.51c.417.966.625 1.98.625 3.042 0 1.063-.208 2.08-.625 3.052a7.947 7.947 0 01-1.677 2.5 7.916 7.916 0 01-2.51 1.677 7.594 7.594 0 01-3.042.625 7.735 7.735 0 01-3.802-.979L0 16.125l1.417-4.219A7.666 7.666 0 01.292 7.854c0-1.062.208-2.076.625-3.042a7.917 7.917 0 011.677-2.51 7.948 7.948 0 012.5-1.677z"/></svg></svg>