<?xml version="1.0" encoding="utf-8"?><svg viewBox="0 0 92 63" xmlns="http://www.w3.org/2000/svg" xmlns:xlink="http://www.w3.org/1999/xlink"><style>:root>svg{display:none}:root>svg:target{display:block}</style><svg fill="none" viewBox="0 0 18 11" id="ic_arr-right" xmlns="http://www.w3.org/2000/svg"><path fill-rule="evenodd" clip-rule="evenodd" d="M13.007.219l4.773 4.753a.745.745 0 010 1.056l-4.773 4.753a.752.752 0 01-1.06 0 .745.745 0 010-1.056l3.492-3.478H0V4.753h15.44l-3.493-3.478a.745.745 0 010-1.056.752.752 0 011.06 0z" fill="#fff"/></svg><svg fill="none" viewBox="0 0 25 25" id="ic_call24" xmlns="http://www.w3.org/2000/svg"><path fill-rule="evenodd" clip-rule="evenodd" d="M20.471 19.368l-3.336-1.926a1.364 1.364 0 00-1.859.497l-.131.229a2.182 2.182 0 01-1.5 1.08 2.19 2.19 0 01-1.804-.405 28.932 28.932 0 01-3.087-2.687 28.9 28.9 0 01-2.686-3.086 2.192 2.192 0 01-.406-1.804 2.183 2.183 0 011.081-1.5l.228-.13c.317-.183.538-.475.633-.828a1.348 1.348 0 00-.134-1.032L5.543 4.44a1.36 1.36 0 00-1.683-.584l-.041.016c-.654.251-2.458.91-2.943 1.395-1.434 1.434-.82 4.027-.18 5.677 1.12 2.89 3.244 5.673 5.421 7.85 2.177 2.177 4.96 4.302 7.85 5.422 1.002.388 2.13.695 3.213.695.906 0 1.808-.22 2.464-.876.462-.462 1.148-2.322 1.399-2.954l.016-.04a1.348 1.348 0 00-.588-1.673zM19.444 6.28a.794.794 0 01.526.747v3.8h.147a.794.794 0 010 1.587h-.148v.879a.794.794 0 01-1.587 0v-.88h-2.986a.794.794 0 01-.613-1.297l3.78-4.593a.795.795 0 01.88-.243zm-1.062 4.546h-1.305l1.305-1.585v1.585zm-5.38-1.567c.146-.534.06-.932-.255-1.182-.368-.29-.98-.342-1.394-.117-.299.163-.425.437-.387.838a.793.793 0 11-1.58.152c-.1-1.043.34-1.912 1.207-2.384.977-.532 2.268-.423 3.139.267.825.652 1.117 1.69.802 2.844-.215.787-.958 1.367-1.744 1.98-.336.262-.692.54-1.016.842h2.307a.794.794 0 010 1.587h-3.923a.794.794 0 01-.714-1.14c.54-1.112 1.554-1.904 2.369-2.54.496-.387 1.114-.869 1.19-1.147zM25 10.426a10.27 10.27 0 01-3.028 7.31.793.793 0 11-1.122-1.123 8.693 8.693 0 002.563-6.187c0-4.825-3.926-8.75-8.75-8.75-2.338 0-4.535.91-6.187 2.563a.794.794 0 11-1.123-1.123A10.27 10.27 0 0114.663.09C20.362.089 25 4.726 25 10.426z" fill="#fff"/></svg><svg fill="none" viewBox="0 0 63 63" id="ic_call24red" xmlns="http://www.w3.org/2000/svg"><path fill-rule="evenodd" clip-rule="evenodd" d="M51.588 48.807l-8.408-4.854a3.437 3.437 0 00-4.684 1.255l-.332.575c-.84 1.457-2.132 2.386-3.78 2.723-1.64.337-3.206-.015-4.545-1.02a72.908 72.908 0 01-7.778-6.772 72.846 72.846 0 01-6.77-7.777c-1.006-1.34-1.359-2.905-1.023-4.546.338-1.647 1.269-2.938 2.725-3.778l.575-.332a3.393 3.393 0 001.594-2.085 3.397 3.397 0 00-.339-2.6L13.97 11.19c-.862-1.493-2.64-2.085-4.24-1.471l-.105.04c-1.65.633-6.195 2.293-7.417 3.515C-1.405 16.886.141 23.42 1.752 27.58c2.823 7.284 8.177 14.294 13.664 19.78 5.486 5.486 12.496 10.842 19.779 13.664 2.527.98 5.37 1.752 8.098 1.752 2.283 0 4.556-.553 6.21-2.207 1.165-1.165 2.892-5.853 3.525-7.445l.04-.102c.632-1.59-.004-3.363-1.48-4.215zm-2.59-32.98a2 2 0 011.325 1.882v9.573h.373a2.001 2.001 0 010 4.001h-.373v2.214a2 2 0 01-4 0v-2.214h-7.525a2.001 2.001 0 01-1.545-3.27l9.525-11.575a2.002 2.002 0 012.22-.612zm-2.675 11.456h-3.288l3.288-3.996v3.996zm-13.556-3.95c.367-1.346.151-2.348-.646-2.979-.926-.732-2.469-.862-3.513-.294-.75.41-1.069 1.1-.973 2.11a2 2 0 11-3.981.384c-.253-2.628.855-4.818 3.04-6.008 2.463-1.34 5.716-1.065 7.91.672 2.08 1.645 2.816 4.259 2.022 7.169-.542 1.983-2.415 3.443-4.396 4.99-.845.66-1.744 1.361-2.559 2.12h5.812a2 2 0 010 4H25.6a2 2 0 01-1.8-2.872c1.362-2.804 3.917-4.799 5.97-6.401 1.25-.976 2.806-2.19 2.998-2.89zM63 26.274c0 6.958-2.71 13.499-7.63 18.42a1.998 1.998 0 01-2.829 0 2 2 0 010-2.83A21.906 21.906 0 0059 26.274c0-12.159-9.892-22.05-22.05-22.05a21.906 21.906 0 00-15.591 6.458 2 2 0 11-2.83-2.83C23.45 2.935 29.992.224 36.95.224 51.313.223 63 11.91 63 26.274z" fill="#BF3232"/></svg><svg viewBox="0 0 18 18" id="ic_cross" xmlns="http://www.w3.org/2000/svg"><path d="M13.5 4.5l-9 9m0-9l9 9" stroke="#fff"/></svg><svg fill="none" viewBox="0 0 26 26" id="ic_faq" xmlns="http://www.w3.org/2000/svg"><path d="M13 0v26M0 13h26" stroke="#BF3232" stroke-width="2"/></svg><svg viewBox="0 0 9 17" id="ic_fb" xmlns="http://www.w3.org/2000/svg"><path d="M8.216 0H7.198c-2.83 0-5.134 2.015-5.134 4.492v1.896H.324c-.179 0-.324.127-.324.284v2.272c0 .156.145.284.324.284h1.74v6.956c0 .157.146.284.325.284h2.595c.18 0 .325-.127.325-.284V9.228H7.89c.179 0 .324-.128.324-.284V6.672c0-.157-.145-.284-.324-.284H5.309V4.492c0-.911.847-1.653 1.889-1.653h1.018c.18 0 .325-.127.325-.284V.284C8.54.127 8.395 0 8.216 0z"/></svg><svg viewBox="0 0 30 26" id="ic_heart" xmlns="http://www.w3.org/2000/svg"><path d="M21.494.582a8.43 8.43 0 00-6.494 3 8.316 8.316 0 00-6.494-3A8.506 8.506 0 000 9.088C0 17.138 14.05 25 14.62 25.303c.23.154.53.154.76 0C15.95 25 30 17.253 30 9.088A8.506 8.506 0 0021.494.582zM15 23.784C12.797 22.494 1.519 15.62 1.519 9.088a6.987 6.987 0 016.987-6.987 6.835 6.835 0 015.848 3.152.798.798 0 001.292 0A6.987 6.987 0 0128.48 9.088c0 6.608-11.279 13.443-13.481 14.696z"/></svg><svg viewBox="0 0 24 24" id="ic_heart-solid" xmlns="http://www.w3.org/2000/svg"><path d="M17.192 2.565h.003A6.305 6.305 0 0123.5 8.87c0 1.49-.643 3.002-1.672 4.46-1.027 1.455-2.41 2.818-3.826 4.001-2.83 2.366-5.721 3.957-5.933 4.07l-.022.012-.02.014a.047.047 0 01-.053 0l-.02-.014-.023-.012c-.21-.111-3.1-1.726-5.932-4.103-1.416-1.189-2.8-2.555-3.827-4.007C1.142 11.836.5 10.336.5 8.871a6.305 6.305 0 016.305-6.306h.006a6.153 6.153 0 014.804 2.22l.383.46.384-.458a6.244 6.244 0 014.81-2.222z"/></svg><svg viewBox="0 0 20 21" id="ic_ig" xmlns="http://www.w3.org/2000/svg"><path d="M10.004 5.295a5.122 5.122 0 00-5.13 5.13 5.122 5.122 0 005.13 5.129c2.84 0 5.13-2.29 5.13-5.13 0-2.839-2.29-5.13-5.13-5.13zm0 8.464a3.34 3.34 0 01-3.334-3.335 3.338 3.338 0 013.334-3.335 3.338 3.338 0 013.335 3.335 3.34 3.34 0 01-3.335 3.335zm6.536-8.674c0 .665-.536 1.196-1.196 1.196a1.197 1.197 0 111.196-1.196zm3.397 1.214c-.076-1.602-.442-3.022-1.616-4.192C17.151.937 15.732.572 14.13.491c-1.651-.094-6.602-.094-8.254 0-1.598.076-3.018.442-4.192 1.612C.509 3.273.147 4.693.067 6.295c-.094 1.652-.094 6.603 0 8.254.076 1.603.442 3.023 1.616 4.192 1.174 1.17 2.59 1.536 4.192 1.616 1.652.094 6.603.094 8.254 0 1.603-.076 3.023-.442 4.192-1.616 1.17-1.17 1.536-2.59 1.616-4.192.094-1.651.094-6.598 0-8.25zm-2.134 10.023a3.376 3.376 0 01-1.901 1.901c-1.317.523-4.442.402-5.898.402-1.455 0-4.584.116-5.897-.402a3.377 3.377 0 01-1.902-1.901c-.522-1.317-.401-4.442-.401-5.898 0-1.455-.117-4.585.401-5.897a3.376 3.376 0 011.902-1.902c1.317-.522 4.442-.402 5.897-.402 1.456 0 4.585-.116 5.898.402a3.376 3.376 0 011.902 1.902c.522 1.317.401 4.442.401 5.897 0 1.456.12 4.585-.401 5.898z"/></svg><svg fill="none" viewBox="0 0 38 38" id="ic_link-arrow" xmlns="http://www.w3.org/2000/svg"><circle cx="19" cy="19" r="19" fill="#BF3232"/><path fill-rule="evenodd" clip-rule="evenodd" d="M23.007 13.219l4.773 4.753a.745.745 0 010 1.056l-4.773 4.753a.752.752 0 01-1.06 0 .745.745 0 010-1.056l3.492-3.478H10v-1.494h15.44l-3.493-3.478a.745.745 0 010-1.056.752.752 0 011.06 0z" fill="#fff"/></svg><svg fill="none" viewBox="0 0 16 21" id="ic_pen" xmlns="http://www.w3.org/2000/svg"><path d="M7.875 0A7.885 7.885 0 000 7.875c0 5.654 7.337 12.735 7.649 13.033a.325.325 0 00.452 0c.312-.299 7.649-7.38 7.649-13.033A7.885 7.885 0 007.875 0zm0 11.484a3.61 3.61 0 110-7.218 3.61 3.61 0 010 7.218z" fill="#BF3232"/></svg><svg viewBox="0 0 24 24" id="ic_phone" xmlns="http://www.w3.org/2000/svg"><g clip-path="url(#lclip0)"><path d="M4.89 15.954c2.368 2.83 5.217 5.057 8.47 6.634 1.238.586 2.894 1.283 4.739 1.402.114.005.224.01.338.01 1.238 0 2.233-.428 3.044-1.308a.108.108 0 00.02-.025c.288-.348.616-.661.96-.994.233-.224.472-.458.7-.697 1.06-1.104 1.06-2.506-.01-3.575l-2.988-2.99c-.508-.526-1.114-.805-1.75-.805-.637 0-1.249.279-1.771.801l-1.78 1.78c-.165-.094-.334-.179-.493-.258a6.118 6.118 0 01-.547-.299c-1.621-1.03-3.093-2.372-4.5-4.098-.712-.9-1.19-1.655-1.522-2.426.467-.423.905-.866 1.328-1.298.149-.154.303-.309.457-.463.537-.537.826-1.159.826-1.79 0-.632-.284-1.253-.826-1.79L8.103 2.283c-.174-.174-.338-.344-.507-.518a27.27 27.27 0 00-1.01-1C6.074.265 5.472 0 4.836 0c-.632 0-1.239.264-1.77.77l-1.86 1.86a3.821 3.821 0 00-1.14 2.447c-.094 1.19.125 2.452.692 3.979.87 2.362 2.183 4.555 4.132 6.898zM1.28 5.182a2.63 2.63 0 01.79-1.69l1.85-1.85c.29-.28.607-.424.916-.424.303 0 .611.145.895.433.333.308.646.632.985.975.169.174.343.348.517.527l1.482 1.482c.308.308.467.622.467.93 0 .308-.159.621-.467.93l-.463.467c-.462.468-.895.91-1.372 1.333l-.025.025c-.413.413-.348.806-.249 1.104l.015.04c.383.92.915 1.795 1.746 2.84 1.492 1.84 3.063 3.267 4.794 4.366.213.139.442.248.656.358.199.1.383.194.547.298l.055.03c.164.084.323.124.482.124.398 0 .657-.253.741-.338l1.86-1.86c.289-.288.602-.442.91-.442.378 0 .687.233.88.442l3 2.994c.596.597.591 1.243-.016 1.875-.209.224-.427.438-.661.661-.348.338-.711.687-1.04 1.08-.571.616-1.253.905-2.133.905-.084 0-.174-.006-.259-.01-1.63-.105-3.147-.741-4.286-1.284-3.094-1.496-5.809-3.62-8.062-6.315-1.855-2.233-3.103-4.312-3.928-6.54-.513-1.367-.707-2.466-.627-3.466z"/></g><defs><clipPath id="lclip0"><path d="M0 0h24v24H0z"/></clipPath></defs></svg><svg fill="none" viewBox="0 0 48 48" id="ic_play" xmlns="http://www.w3.org/2000/svg"><rect width="48" height="48" rx="24" fill="#BF3232"/><path d="M28.627 22.356a2 2 0 010 3.288L22.89 29.62c-1.326.918-3.139-.03-3.139-1.645v-7.95c0-1.614 1.813-2.563 3.139-1.644l5.738 3.975z" fill="#fff"/></svg><svg fill="none" viewBox="0 0 92 13" id="ic_rating" xmlns="http://www.w3.org/2000/svg"><path d="M13.363 4.936a.394.394 0 00-.317-.271L8.898 4.05 7.042.223A.391.391 0 006.691 0a.391.391 0 00-.352.223L4.484 4.05l-4.148.614a.394.394 0 00-.317.271.404.404 0 00.1.41l3.001 2.98-.708 4.207a.403.403 0 00.156.39.387.387 0 00.412.031l3.71-1.987 3.711 1.987c.132.07.292.06.413-.03.12-.09.181-.241.156-.39l-.709-4.208 3.002-2.98a.404.404 0 00.1-.41zM32.599 4.936a.394.394 0 00-.316-.271l-4.149-.614L26.28.223A.391.391 0 0025.927 0a.392.392 0 00-.351.223L23.72 4.05l-4.148.614a.394.394 0 00-.316.271.404.404 0 00.099.41l3.002 2.98-.709 4.207a.403.403 0 00.156.39.387.387 0 00.413.031l3.71-1.987 3.71 1.987c.133.07.293.06.413-.03.121-.09.182-.241.156-.39l-.708-4.208 3.002-2.98a.404.404 0 00.099-.41zM52.672 4.936a.394.394 0 00-.317-.271l-4.148-.614L46.352.223A.392.392 0 0046 0a.391.391 0 00-.352.223L43.794 4.05l-4.148.614a.394.394 0 00-.317.271.404.404 0 00.1.41l3.001 2.98-.708 4.207a.403.403 0 00.156.39.387.387 0 00.412.031L46 10.967l3.71 1.987c.132.07.292.06.413-.03.12-.09.181-.241.156-.39l-.709-4.208 3.002-2.98a.404.404 0 00.1-.41zM71.908 4.936a.394.394 0 00-.316-.271l-4.149-.614L65.588.223A.391.391 0 0065.236 0a.391.391 0 00-.351.223L63.029 4.05l-4.148.614a.394.394 0 00-.316.271.404.404 0 00.099.41l3.002 2.98-.709 4.207a.403.403 0 00.156.39.387.387 0 00.413.031l3.71-1.987 3.71 1.987c.133.07.293.06.414-.03.12-.09.18-.241.156-.39l-.71-4.208 3.003-2.98a.404.404 0 00.1-.41zM91.98 4.936a.394.394 0 00-.316-.271l-4.148-.614L85.66.223A.391.391 0 0085.309 0a.392.392 0 00-.352.223L83.102 4.05l-4.148.614a.394.394 0 00-.317.271.404.404 0 00.1.41l3.001 2.98-.708 4.207a.403.403 0 00.156.39.387.387 0 00.413.031l3.71-1.987 3.71 1.987c.132.07.293.06.413-.03.121-.09.181-.241.156-.39l-.708-4.208 3.002-2.98a.404.404 0 00.099-.41z" fill="#BF3232"/></svg><svg fill="none" viewBox="0 0 92 13" id="ic_rating-gray" xmlns="http://www.w3.org/2000/svg"><path d="M13.363 4.936a.394.394 0 00-.317-.271L8.898 4.05 7.042.223A.391.391 0 006.691 0a.391.391 0 00-.352.223L4.484 4.05l-4.148.614a.394.394 0 00-.317.271.404.404 0 00.1.41l3.001 2.98-.708 4.207a.403.403 0 00.156.39.387.387 0 00.412.031l3.71-1.987 3.711 1.987c.132.07.292.06.413-.03.12-.09.181-.241.156-.39l-.709-4.208 3.002-2.98a.404.404 0 00.1-.41zM32.599 4.936a.394.394 0 00-.316-.271l-4.149-.614L26.28.223A.391.391 0 0025.927 0a.392.392 0 00-.351.223L23.72 4.05l-4.148.614a.394.394 0 00-.316.271.404.404 0 00.099.41l3.002 2.98-.709 4.207a.403.403 0 00.156.39.387.387 0 00.413.031l3.71-1.987 3.71 1.987c.133.07.293.06.413-.03.121-.09.182-.241.156-.39l-.708-4.208 3.002-2.98a.404.404 0 00.099-.41zM52.672 4.936a.394.394 0 00-.317-.271l-4.148-.614L46.352.223A.392.392 0 0046 0a.391.391 0 00-.352.223L43.794 4.05l-4.148.614a.394.394 0 00-.317.271.404.404 0 00.1.41l3.001 2.98-.708 4.207a.403.403 0 00.156.39.387.387 0 00.412.031L46 10.967l3.71 1.987c.132.07.292.06.413-.03.12-.09.181-.241.156-.39l-.709-4.208 3.002-2.98a.404.404 0 00.1-.41zM71.908 4.936a.394.394 0 00-.316-.271l-4.149-.614L65.588.223A.391.391 0 0065.236 0a.391.391 0 00-.351.223L63.029 4.05l-4.148.614a.394.394 0 00-.316.271.404.404 0 00.099.41l3.002 2.98-.709 4.207a.403.403 0 00.156.39.387.387 0 00.413.031l3.71-1.987 3.71 1.987c.133.07.293.06.414-.03.12-.09.18-.241.156-.39l-.71-4.208 3.003-2.98a.404.404 0 00.1-.41zM91.98 4.936a.394.394 0 00-.316-.271l-4.148-.614L85.66.223A.391.391 0 0085.309 0a.392.392 0 00-.352.223L83.102 4.05l-4.148.614a.394.394 0 00-.317.271.404.404 0 00.1.41l3.001 2.98-.708 4.207a.403.403 0 00.156.39.387.387 0 00.413.031l3.71-1.987 3.71 1.987c.132.07.293.06.413-.03.121-.09.181-.241.156-.39l-.708-4.208 3.002-2.98a.404.404 0 00.099-.41z" fill="#D8D8D8"/></svg><svg fill="none" viewBox="0 0 9 6" id="ic_select" xmlns="http://www.w3.org/2000/svg"><path d="M1 1l3.5 3L8 1" stroke="#000" stroke-width="2"/></svg><svg fill="none" viewBox="0 0 18 36" id="ic_swiper-next" xmlns="http://www.w3.org/2000/svg"><path d="M1 35l15-17L1 1" stroke="#000" stroke-width="2"/></svg><svg fill="none" viewBox="0 0 18 36" id="ic_swiper-prev" xmlns="http://www.w3.org/2000/svg"><path d="M17 35L2 18 17 1" stroke="#000" stroke-width="2"/></svg><svg viewBox="0 0 16 14" id="ic_tg" xmlns="http://www.w3.org/2000/svg"><path d="M6.279 9.096l-.265 3.723c.379 0 .543-.163.74-.358l1.775-1.697 3.679 2.695c.674.376 1.15.178 1.332-.621l2.415-11.316c.214-.997-.36-1.388-1.018-1.143L.743 5.813c-.969.376-.954.916-.165 1.161l3.629 1.129 8.43-5.274c.396-.263.757-.118.46.145L6.279 9.096z"/></svg><svg viewBox="0 0 16 13" id="ic_tw" xmlns="http://www.w3.org/2000/svg"><path d="M16 1.543a6.872 6.872 0 01-1.645 1.696 9.368 9.368 0 01-.376 3.066 9.453 9.453 0 01-1.177 2.517 9.91 9.91 0 01-1.868 2.143c-.724.615-1.597 1.11-2.62 1.482a9.666 9.666 0 01-3.278.548A9.106 9.106 0 010 11.523c.237.027.5.04.792.04a6.42 6.42 0 004.07-1.4 3.214 3.214 0 01-1.908-.65 3.235 3.235 0 01-1.157-1.625c.223.034.43.051.62.051.29 0 .578-.037.862-.112a3.259 3.259 0 01-1.888-1.126A3.201 3.201 0 01.65 4.609v-.04c.46.257.954.395 1.482.416a3.275 3.275 0 01-1.066-1.168A3.195 3.195 0 01.67 2.254c0-.596.149-1.147.447-1.655a9.373 9.373 0 002.985 2.426A9.22 9.22 0 007.878 4.03a3.643 3.643 0 01-.081-.75c0-.908.318-1.68.954-2.316A3.169 3.169 0 0111.076 0c.948 0 1.746.345 2.396 1.036a6.43 6.43 0 002.081-.792 3.184 3.184 0 01-1.441 1.807A6.534 6.534 0 0016 1.543z"/></svg><svg viewBox="0 0 20 20" id="ic_vb" xmlns="http://www.w3.org/2000/svg"><path d="M17.745 1.948c-.524-.457-2.64-1.914-7.36-1.934 0 0-5.565-.316-8.276 2.043C.602 3.487.07 5.584.013 8.18c-.058 2.597-.128 7.464 4.819 8.784h.004l-.004 2.015s-.033.817.535.98c.684.204 1.088-.417 1.743-1.085.358-.367.852-.906 1.227-1.316 3.386.27 5.985-.348 6.281-.438.684-.21 4.552-.68 5.178-5.546.65-5.023-.313-8.194-2.051-9.627zm.572 9.26c-.531 4.062-3.666 4.32-4.242 4.496-.247.074-2.534.613-5.404.437 0 0-2.142 2.449-2.81 3.086-.218.207-.457.187-.452-.223 0-.27.016-3.347.016-3.347-.004 0-.004 0 0 0-4.193-1.102-3.946-5.246-3.9-7.413.045-2.168.477-3.945 1.754-5.14 2.294-1.973 7.019-1.68 7.019-1.68 3.99.016 5.902 1.156 6.347 1.539 1.47 1.195 2.22 4.054 1.672 8.245zm-5.725-3.156c.016.336-.515.36-.532.024-.045-.86-.469-1.278-1.342-1.324-.354-.02-.322-.524.029-.504 1.149.058 1.787.683 1.845 1.804zm.836.442c.041-1.656-1.05-2.953-3.122-3.098-.35-.023-.313-.527.037-.504 2.389.164 3.662 1.723 3.616 3.613-.004.336-.54.32-.531-.011zm1.936.523c.004.336-.532.34-.532.004-.024-3.183-2.26-4.918-4.975-4.937-.35-.004-.35-.504 0-.504 3.036.02 5.478 2.008 5.507 5.437zm-.466 3.832v.007c-.444.742-1.276 1.563-2.133 1.3l-.008-.01c-.87-.231-2.917-1.231-4.21-2.208-.667-.5-1.277-1.09-1.746-1.656a12.643 12.643 0 01-1.269-1.82c-.877-1.503-1.07-2.175-1.07-2.175-.277-.813.584-1.602 1.37-2.023h.009c.379-.188.741-.125.984.152 0 0 .511.578.73.863.205.266.481.691.626.93.25.425.094.859-.153 1.039l-.494.375c-.251.19-.218.546-.218.546s.733 2.629 3.472 3.293c0 0 .375.031.576-.207l.396-.469c.19-.234.646-.383 1.095-.144.606.324 1.376.828 1.887 1.285.288.222.354.562.156.921z"/></svg><svg viewBox="0 0 19 11" id="ic_vk" xmlns="http://www.w3.org/2000/svg"><path d="M17.57 8.059c-.393-.414-.84-.785-1.27-1.143-.154-.128-.313-.26-.466-.39-.438-.377-.454-.519-.107-.947.24-.295.495-.59.742-.876.224-.26.455-.527.677-.796l.045-.055c.424-.515.862-1.047 1.095-1.689.06-.17.124-.418-.021-.627-.145-.208-.427-.272-.627-.301a1.946 1.946 0 00-.287-.017l-2.774-.002h-.023c-.42 0-.702.174-.864.53a13.74 13.74 0 01-.519 1.05c-.385.688-.875 1.48-1.584 2.141l-.03.028c-.084.08-.179.169-.248.169a.133.133 0 01-.035-.006c-.147-.05-.246-.362-.241-.507v-.006L11.03 1.8l-.003-.03c-.07-.457-.226-.742-.817-.843a.278.278 0 00-.048-.004H7.278c-.47 0-.729.168-.972.419-.066.067-.202.206-.135.376.07.172.292.208.365.22.361.06.564.254.622.593.1.588.113 1.216.039 1.975a1.49 1.49 0 01-.129.514c-.015.032-.07.138-.127.138-.018 0-.07-.006-.165-.063-.224-.135-.387-.327-.578-.564A12.863 12.863 0 014.53 1.817a.986.986 0 00-.92-.592c-.46-.006-.878-.01-1.276-.01-.435 0-.839.004-1.232.012-.337.005-.57.093-.693.263s-.115.394.024.664C1.544 4.32 2.55 5.896 3.697 7.261c.804.956 1.61 1.618 2.536 2.082.977.49 2.071.729 3.345.729.145 0 .294-.003.445-.01.74-.031 1.015-.266 1.05-.9.016-.323.057-.662.238-.951.114-.183.22-.183.256-.183.067 0 .151.028.241.079.161.092.3.216.413.324l.317.31c.228.224.464.456.71.675.538.481 1.132.693 1.813.647h2.56a.755.755 0 00.602-.34c.16-.248.157-.564-.008-.847a4.587 4.587 0 00-.645-.817z"/></svg><svg viewBox="0 0 16 17" id="ic_wa" xmlns="http://www.w3.org/2000/svg"><path d="M9.719 9.385c.27-.34.451-.51.541-.51.09 0 .428.153 1.01.458.591.306.904.49.938.552.014.035.021.087.021.157 0 .229-.059.493-.177.791-.111.271-.358.5-.74.688-.381.18-.736.27-1.062.27-.396 0-1.056-.215-1.98-.645a5.945 5.945 0 01-1.77-1.23C6 9.41 5.486 8.768 4.958 7.99c-.5-.743-.746-1.417-.74-2.021v-.084c.022-.632.279-1.18.772-1.645a.788.788 0 01.541-.23c.042 0 .104.007.188.021.083.007.15.01.198.01.132 0 .222.025.27.074.056.041.112.135.167.28.056.14.17.445.344.918.174.472.26.732.26.78 0 .147-.121.348-.364.605-.236.25-.354.41-.354.48 0 .048.017.1.052.155.236.507.59.983 1.062 1.427.39.368.913.72 1.573 1.053.083.048.16.072.23.072.103 0 .29-.166.562-.5zm-1.573 5.01a6.33 6.33 0 002.531-.52 6.581 6.581 0 002.094-1.396 6.613 6.613 0 001.396-2.083c.347-.813.52-1.66.52-2.542a6.33 6.33 0 00-.52-2.531 6.582 6.582 0 00-1.396-2.094 6.581 6.581 0 00-2.094-1.396 6.329 6.329 0 00-2.531-.52c-.882 0-1.73.173-2.542.52-.805.348-1.5.813-2.083 1.396a6.582 6.582 0 00-1.396 2.094 6.329 6.329 0 00-.52 2.531c0 1.41.416 2.688 1.25 3.833l-.824 2.428 2.521-.803a6.406 6.406 0 003.594 1.084zM5.094.626A7.669 7.669 0 018.146 0c1.062 0 2.076.208 3.041.625a7.918 7.918 0 012.51 1.677 7.918 7.918 0 011.678 2.51c.417.966.625 1.98.625 3.042 0 1.063-.208 2.08-.625 3.052a7.947 7.947 0 01-1.677 2.5 7.916 7.916 0 01-2.51 1.677 7.594 7.594 0 01-3.042.625 7.735 7.735 0 01-3.802-.979L0 16.125l1.417-4.219A7.666 7.666 0 01.292 7.854c0-1.062.208-2.076.625-3.042a7.917 7.917 0 011.677-2.51 7.948 7.948 0 012.5-1.677z"/></svg></svg>